<?xml version="1.0" encoding="UTF-8" standalone="no"?>
<!DOCTYPE svg PUBLIC "-//W3C//DTD SVG 20010904//EN"
              "http://www.w3.org/TR/2001/REC-SVG-20010904/DTD/svg10.dtd">

<svg xmlns="http://www.w3.org/2000/svg"
     width="50" height="50"
     viewBox="0 0 300 300">
  <path id="attack"
        fill="black" stroke="black" stroke-width="1"
        d="M 205.00,38.00
           C 205.00,38.00 166.00,65.42 166.00,65.42
             162.66,67.79 153.83,75.29 150.00,74.73
             147.28,74.34 138.72,67.65 136.00,65.71
             136.00,65.71 105.00,44.00 105.00,44.00
             105.00,44.00 106.00,69.00 106.00,69.00
             106.00,69.00 107.00,84.00 107.00,84.00
             107.00,84.00 108.00,98.00 108.00,98.00
             108.00,98.00 94.00,99.00 94.00,99.00
             94.00,99.00 77.00,100.00 77.00,100.00
             77.00,100.00 54.00,101.00 54.00,101.00
             54.00,101.00 34.00,102.00 34.00,102.00
             37.94,106.76 43.17,110.20 48.00,114.00
             48.00,114.00 76.00,135.65 76.00,135.65
             79.08,138.03 91.32,148.14 94.00,148.84
             97.29,149.71 101.27,146.63 104.00,145.00
             104.00,145.00 86.00,120.00 86.00,120.00
             86.00,120.00 125.00,116.00 125.00,116.00
             125.00,116.00 127.00,81.00 127.00,81.00
             127.00,81.00 149.00,94.14 149.00,94.14
             149.00,94.14 160.00,90.42 160.00,90.42
             160.00,90.42 186.00,78.00 186.00,78.00
             186.00,78.00 189.58,108.00 189.58,108.00
             190.01,111.15 189.90,115.93 192.51,118.07
             194.14,119.40 198.82,120.33 201.00,120.87
             206.76,122.31 212.64,123.40 218.00,126.00
             218.00,126.00 196.00,138.00 196.00,138.00
             196.00,138.00 212.00,168.00 212.00,168.00
             212.00,168.00 180.00,167.00 180.00,167.00
             180.00,167.00 178.00,206.00 178.00,206.00
             178.00,206.00 152.00,188.00 152.00,188.00
             152.00,188.00 148.61,198.00 148.61,198.00
             148.61,198.00 160.33,217.00 160.33,217.00
             160.33,217.00 189.00,259.00 189.00,259.00
             189.00,259.00 191.17,237.00 191.17,237.00
             191.17,237.00 196.00,183.00 196.00,183.00
             196.00,183.00 258.00,205.00 258.00,205.00
             258.00,205.00 241.69,178.00 241.69,178.00
             241.69,178.00 220.00,144.00 220.00,144.00
             220.00,144.00 265.00,123.00 265.00,123.00
             265.00,123.00 240.00,114.00 240.00,114.00
             240.00,114.00 209.00,104.00 209.00,104.00
             209.00,104.00 208.00,73.00 208.00,73.00
             208.00,73.00 207.00,55.00 207.00,55.00
             207.00,55.00 205.00,38.00 205.00,38.00 Z
           M 177.00,112.00
           C 177.00,112.00 149.17,119.16 149.17,119.16
             149.17,119.16 140.01,128.00 140.01,128.00
             140.01,128.00 119.91,150.00 119.91,150.00
             119.91,150.00 83.91,189.00 83.91,189.00
             83.91,189.00 61.00,215.00 61.00,215.00
             61.00,215.00 46.00,202.00 46.00,202.00
             40.98,209.98 42.89,209.36 54.00,219.96
             54.00,219.96 93.00,256.00 93.00,256.00
             93.00,256.00 99.00,252.00 99.00,252.00
             95.62,245.01 88.06,242.31 88.04,238.00
             88.03,235.69 91.89,231.77 93.42,230.00
             93.42,230.00 111.00,211.00 111.00,211.00
             111.00,211.00 131.17,189.00 131.17,189.00
             131.17,189.00 154.28,164.00 154.28,164.00
             154.28,164.00 173.15,143.00 173.15,143.00
             174.84,140.16 174.95,137.18 175.42,134.00
             176.26,128.35 178.97,117.01 177.00,112.00 Z
           M 56.00,231.00
           C 56.00,231.00 42.72,246.00 42.72,246.00
             40.02,249.06 32.78,255.50 31.92,259.00
             30.70,264.01 38.09,271.23 43.00,270.19
             45.81,269.60 48.86,266.09 50.72,264.00
             50.72,264.00 63.57,250.00 63.57,250.00
             64.98,248.34 67.83,245.25 67.81,243.00
             67.76,239.42 58.89,233.04 56.00,231.00 Z" />
</svg>
