<?xml version="1.0" encoding="UTF-8" standalone="no"?>
<!DOCTYPE svg PUBLIC "-//W3C//DTD SVG 20010904//EN"
              "http://www.w3.org/TR/2001/REC-SVG-20010904/DTD/svg10.dtd">

<svg xmlns="http://www.w3.org/2000/svg"
     width="50" height="50"
     viewBox="0 0 300 300">
  <path id="skull"
        fill="black" stroke="black" stroke-width="1"
        d="M 130.00,232.00
           C 136.20,238.93 141.19,239.95 148.00,233.00
             151.68,236.74 154.88,240.64 160.72,238.44
             163.32,237.46 164.78,235.05 167.97,234.98
             170.06,234.94 171.90,236.43 174.17,236.72
             178.67,237.30 181.99,234.98 185.00,231.94
             189.66,237.82 196.18,238.82 200.80,231.94
             203.56,227.25 204.20,209.35 200.80,205.00
             203.48,201.59 202.81,200.07 204.72,197.04
             206.14,194.78 212.22,188.86 214.42,186.82
             218.87,182.69 231.44,172.61 233.86,167.83
             237.61,160.44 230.91,150.09 231.96,142.58
             231.96,142.58 233.56,137.00 233.56,137.00
             233.56,137.00 235.73,126.00 235.73,126.00
             238.68,114.58 240.98,114.33 241.00,101.00
             241.02,86.41 238.82,80.73 235.01,67.00
             233.97,63.26 231.23,54.11 229.16,51.18
             226.65,47.63 221.96,45.44 218.28,43.31
             218.28,43.31 202.91,34.28 202.91,34.28
             198.19,32.11 191.66,29.57 189.00,25.00
             185.04,25.16 176.55,24.05 175.00,20.00
             169.45,18.87 160.77,14.97 156.00,15.41
             150.47,15.93 142.01,19.94 136.91,22.34
             136.91,22.34 120.28,30.14 120.28,30.14
             120.28,30.14 105.96,38.20 105.96,38.20
             100.48,41.11 90.42,46.25 86.87,51.17
             81.48,58.65 80.01,72.88 77.83,82.00
             75.84,90.37 73.80,92.62 74.01,102.00
             74.23,111.36 77.21,117.44 79.58,126.00
             79.58,126.00 81.83,135.91 81.83,135.91
             81.83,135.91 84.04,142.77 84.04,142.77
             84.83,147.94 78.56,159.80 81.10,166.00
             84.33,173.90 104.60,186.10 110.11,195.00
             113.30,200.15 111.91,217.22 112.00,224.00
             112.19,237.38 124.67,240.43 130.00,232.00 Z
           M 145.00,133.00
           C 145.00,133.00 146.09,139.04 146.09,139.04
             146.09,142.47 143.39,151.08 140.45,153.12
             138.35,154.37 135.31,153.62 133.00,153.12
             127.42,152.34 112.92,148.14 110.57,142.70
             108.97,138.98 110.82,132.65 112.00,129.00
             112.00,129.00 129.83,128.24 129.83,128.24
             129.83,128.24 145.00,133.00 145.00,133.00 Z
           M 169.00,134.00
           C 169.00,134.00 175.05,132.33 175.05,132.33
             175.05,132.33 194.00,131.00 194.00,131.00
             196.08,131.01 199.74,130.85 201.25,132.17
             204.21,134.36 202.75,142.25 201.25,144.81
             197.37,150.46 180.85,155.28 175.21,151.98
             172.70,150.51 170.79,146.63 169.76,144.00
             168.13,139.87 168.06,138.27 169.00,134.00 Z
           M 157.00,149.00
           C 157.00,149.00 161.81,154.32 161.81,154.32
             164.75,158.76 168.35,168.64 168.82,174.00
             169.76,184.53 159.25,182.13 152.00,182.00
             149.78,181.95 147.29,182.03 145.56,180.40
             142.72,177.73 143.55,173.25 144.64,170.00
             147.03,162.87 151.75,154.36 157.00,149.00 Z" />
     <path id="arrow"
        fill="#d36362" stroke="#d36362" stroke-width="1"
        d="M 231.00,225.00
           C 231.00,225.00 231.00,247.00 231.00,247.00
             231.00,247.00 130.00,247.00 130.00,247.00
             130.00,247.00 99.00,247.00 99.00,247.00
             99.00,247.00 81.00,248.00 81.00,248.00
             81.00,248.00 72.00,237.00 72.00,237.00
             72.00,237.00 70.00,238.00 70.00,238.00
             67.10,234.21 62.49,234.06 58.00,234.00
             47.21,233.87 42.86,234.09 34.98,241.98
             28.62,248.33 27.11,251.93 27.00,261.00
             26.94,266.36 26.31,273.41 31.00,277.00
             31.91,282.43 35.34,285.27 39.97,287.90
             48.19,292.59 54.58,293.46 64.00,291.67
             64.00,291.67 71.00,290.00 71.00,290.00
             71.00,290.00 82.26,278.98 82.26,278.98
             82.26,278.98 88.00,278.00 88.00,278.00
             88.00,278.00 118.00,278.00 118.00,278.00
             118.00,278.00 221.00,278.00 221.00,278.00
             221.00,278.00 229.40,279.60 229.40,279.60
             229.40,279.60 231.00,286.00 231.00,286.00
             231.00,286.00 231.00,302.00 231.00,302.00
             231.00,302.00 255.00,290.00 255.00,290.00
             255.00,290.00 261.00,284.00 261.00,284.00
             261.00,284.00 263.00,285.00 263.00,285.00
             263.00,285.00 279.72,274.87 279.72,274.87
             279.72,274.87 298.00,265.00 298.00,265.00
             295.02,257.31 279.48,252.79 273.00,247.00
             273.00,247.00 271.00,248.00 271.00,248.00
             268.45,244.02 263.08,241.81 259.00,239.55
             252.16,235.77 238.02,225.81 231.00,225.00 Z" />
</svg>
