<?xml version="1.0" encoding="UTF-8" standalone="no"?>
<!DOCTYPE svg PUBLIC "-//W3C//DTD SVG 20010904//EN"
              "http://www.w3.org/TR/2001/REC-SVG-20010904/DTD/svg10.dtd">

<svg xmlns="http://www.w3.org/2000/svg"
     width="50" height="50"
     viewBox="0 0 300 300">
  <path id="summon"
        fill="black" stroke="black" stroke-width="1"
        d="M 147.83,4.57
           C 134.40,7.51 136.09,15.33 127.96,18.87
             124.19,20.51 115.47,21.57 105.00,26.81
             83.31,37.65 65.09,56.24 54.37,78.00
             49.98,86.91 45.05,106.08 45.00,116.00
             45.00,116.00 45.00,135.00 45.00,135.00
             45.02,148.55 48.72,154.04 49.38,160.00
             49.80,163.76 47.49,168.05 46.67,172.00
             45.57,177.26 46.68,183.34 49.36,188.00
             55.91,199.33 65.54,196.43 72.00,200.70
             72.00,200.70 90.00,216.25 90.00,216.25
             102.79,225.45 128.12,235.81 144.00,236.00
             144.00,236.00 162.00,236.00 162.00,236.00
             180.29,235.97 202.99,227.07 218.00,216.91
             224.30,212.65 229.33,207.15 235.00,202.18
             242.56,195.57 251.29,195.13 256.08,185.00
             259.99,176.73 256.18,172.03 258.30,164.00
             263.59,143.94 265.25,142.73 265.00,121.00
             264.63,89.97 245.84,55.31 221.00,37.16
             214.46,32.38 199.64,24.38 192.00,21.70
             192.00,21.70 179.00,18.52 179.00,18.52
             172.52,16.21 171.47,11.48 166.00,7.65
             160.44,3.76 154.25,3.76 147.83,4.57 Z
           M 150.00,12.39
           C 154.27,11.85 158.15,12.01 161.67,14.85
             170.84,22.24 167.68,37.13 156.00,39.61
             139.46,43.13 131.15,18.47 150.00,12.39 Z
           M 202.00,34.00
           C 196.48,39.14 179.96,51.58 173.00,53.00
             173.00,53.00 167.00,43.00 167.00,43.00
             172.15,36.22 173.77,34.69 175.00,26.00
             175.00,26.00 202.00,34.00 202.00,34.00 Z
           M 131.00,27.00
           C 132.25,34.99 134.46,37.31 140.00,43.00
             140.00,43.00 134.00,53.00 134.00,53.00
             125.41,50.26 115.40,40.53 108.00,35.00
             110.97,32.78 111.31,32.65 115.00,33.00
             118.28,28.63 125.79,27.26 131.00,27.00 Z
           M 100.00,39.00
           C 100.00,39.00 101.00,52.00 101.00,52.00
             101.00,52.00 101.00,64.00 101.00,64.00
             101.00,64.00 102.00,74.00 102.00,74.00
             102.00,74.00 67.00,72.00 67.00,72.00
             71.33,64.30 77.63,57.13 84.00,51.04
             87.43,47.76 90.22,44.80 95.00,44.00
             95.00,44.00 100.00,39.00 100.00,39.00 Z
           M 210.00,39.00
           C 220.08,47.05 235.19,57.69 240.00,70.00
             240.00,70.00 206.00,74.00 206.00,74.00
             206.00,74.00 207.83,53.00 207.83,53.00
             207.83,53.00 210.00,39.00 210.00,39.00 Z
           M 109.00,45.00
           C 111.99,47.31 123.95,55.19 125.30,57.32
             127.00,60.03 125.20,62.59 123.84,65.00
             119.66,72.41 118.13,72.97 109.96,73.00
             109.96,73.00 109.96,63.00 109.96,63.00
             109.96,63.00 109.00,45.00 109.00,45.00 Z
           M 201.00,45.00
           C 201.00,45.00 199.16,62.00 199.16,62.00
             198.89,64.53 199.07,68.23 197.15,70.15
             190.84,76.45 180.52,65.74 181.09,60.09
             181.35,57.63 184.19,55.91 186.00,54.58
             190.79,51.07 195.66,47.61 201.00,45.00 Z
           M 177.00,74.00
           C 168.25,71.95 166.08,69.12 156.00,69.00
             141.22,68.83 142.36,71.11 130.00,74.00
             130.00,74.00 139.42,58.00 139.42,58.00
             139.42,58.00 145.52,49.99 145.52,49.99
             145.52,49.99 153.00,49.09 153.00,49.09
             153.00,49.09 160.82,49.09 160.82,49.09
             160.82,49.09 166.66,56.00 166.66,56.00
             166.66,56.00 177.00,74.00 177.00,74.00 Z
           M 178.00,74.00
           C 178.00,74.00 178.00,75.00 178.00,75.00
             178.00,75.00 177.00,74.00 177.00,74.00
             177.00,74.00 178.00,74.00 178.00,74.00 Z
           M 193.00,97.00
           C 189.56,97.00 183.06,97.27 180.00,96.35
             176.33,95.25 172.59,92.16 169.00,90.38
             163.93,87.86 158.63,86.90 153.00,87.02
             140.42,87.27 135.03,94.30 128.00,96.87
             123.96,98.34 119.26,98.00 115.00,98.00
             125.03,78.53 152.54,72.96 172.00,79.96
             181.09,83.23 187.86,88.91 193.00,97.00 Z
           M 245.00,77.00
           C 252.20,93.74 256.00,101.19 256.00,120.00
             256.00,120.00 225.00,107.00 225.00,107.00
             227.25,101.13 240.36,81.16 245.00,77.00 Z
           M 234.00,78.00
           C 234.00,78.00 234.00,79.00 234.00,79.00
             234.00,79.00 233.00,78.00 233.00,78.00
             233.00,78.00 234.00,78.00 234.00,78.00 Z
           M 64.00,79.00
           C 68.82,85.25 81.36,102.13 83.00,109.00
             83.00,109.00 52.00,122.00 52.00,122.00
             52.11,110.27 56.74,88.14 64.00,79.00 Z
           M 112.00,83.00
           C 112.00,83.00 97.00,111.00 97.00,111.00
             97.00,111.00 95.00,111.00 95.00,111.00
             95.00,111.00 73.00,79.00 73.00,79.00
             73.00,79.00 112.00,83.00 112.00,83.00 Z
           M 233.00,79.00
           C 233.00,79.00 213.00,110.00 213.00,110.00
             208.34,105.00 199.16,88.55 196.00,82.00
             196.00,82.00 233.00,79.00 233.00,79.00 Z
           M 164.00,96.00
           C 164.00,96.00 143.00,97.00 143.00,97.00
             148.64,93.35 157.64,95.16 164.00,96.00 Z
           M 190.00,104.00
           C 190.00,104.00 189.00,108.00 189.00,108.00
             189.00,108.00 186.00,104.00 186.00,104.00
             186.00,104.00 190.00,104.00 190.00,104.00 Z
           M 122.00,105.00
           C 122.00,105.00 119.00,109.00 119.00,109.00
             119.00,109.00 117.00,105.00 117.00,105.00
             117.00,105.00 122.00,105.00 122.00,105.00 Z
           M 133.04,105.22
           C 133.04,105.22 171.00,105.22 171.00,105.22
             173.01,105.04 175.08,105.01 176.90,106.02
             180.55,108.05 183.26,113.92 182.32,118.00
             182.32,118.00 168.00,145.00 168.00,145.00
             165.61,149.16 163.02,155.40 157.99,156.69
             155.09,157.43 149.65,157.18 147.18,155.40
             144.02,153.12 141.06,146.53 138.99,143.00
             135.98,137.86 126.34,123.96 125.70,119.00
             125.40,116.64 126.05,114.18 126.93,112.00
             128.46,108.22 129.36,107.03 133.04,105.22 Z
           M 199.00,107.00
           C 201.25,116.97 202.01,114.81 202.00,126.00
             201.97,151.13 184.89,170.64 160.00,174.00
             166.25,157.06 178.13,161.35 187.47,145.00
             194.23,133.17 190.55,125.45 192.39,117.00
             193.11,113.70 195.40,110.03 197.00,107.00
             197.00,107.00 199.00,107.00 199.00,107.00 Z
           M 110.00,108.00
           C 121.75,126.07 110.83,127.09 121.45,145.00
             133.52,165.35 141.00,154.92 148.00,174.00
             139.28,172.43 135.94,172.60 128.00,167.45
             122.64,163.98 118.02,159.36 114.55,154.00
             106.85,142.11 102.19,120.77 110.00,108.00 Z
           M 247.00,125.00
           C 247.00,125.00 224.00,135.00 224.00,135.00
             219.10,126.39 215.94,122.30 221.00,113.00
             221.00,113.00 247.00,125.00 247.00,125.00 Z
           M 88.00,115.00
           C 91.96,125.58 87.51,126.43 84.00,136.00
             84.00,136.00 63.00,126.00 63.00,126.00
             70.33,121.82 79.81,116.92 88.00,115.00 Z
           M 99.00,129.00
           C 99.00,129.00 99.00,130.00 99.00,130.00
             99.00,130.00 98.00,129.00 98.00,129.00
             98.00,129.00 99.00,129.00 99.00,129.00 Z
           M 211.00,129.00
           C 211.00,129.00 224.00,156.00 224.00,156.00
             224.00,156.00 216.13,164.00 216.13,164.00
             216.13,164.00 211.59,170.83 211.59,170.83
             211.59,170.83 204.00,172.00 204.00,172.00
             204.00,172.00 186.00,172.00 186.00,172.00
             192.94,165.11 199.28,160.47 203.56,151.00
             203.56,151.00 211.00,129.00 211.00,129.00 Z
           M 257.00,129.00
           C 257.00,129.00 255.58,141.00 255.58,141.00
             255.58,141.00 252.00,160.00 252.00,160.00
             244.00,155.53 241.68,152.48 232.00,154.00
             232.00,154.00 227.00,143.00 227.00,143.00
             227.00,143.00 257.00,129.00 257.00,129.00 Z
           M 81.00,143.00
           C 81.00,143.00 75.36,154.13 75.36,154.13
             75.36,154.13 67.00,154.13 67.00,154.13
             67.00,154.13 57.00,157.00 57.00,157.00
             53.88,149.66 52.07,138.00 52.00,130.00
             52.00,130.00 81.00,143.00 81.00,143.00 Z
           M 98.00,130.00
           C 100.92,146.01 108.30,163.41 123.00,172.03
             123.00,172.03 113.00,172.03 113.00,172.03
             113.00,172.03 97.00,172.03 97.00,172.03
             97.00,172.03 91.63,171.01 91.63,171.01
             91.63,171.01 82.00,159.00 82.00,159.00
             82.00,159.00 98.00,130.00 98.00,130.00 Z
           M 184.00,133.00
           C 182.38,139.89 179.64,145.56 174.00,150.00
             175.67,144.14 179.55,137.16 184.00,133.00 Z
           M 127.00,137.00
           C 127.00,137.00 131.00,146.00 131.00,146.00
             128.31,143.30 126.47,140.95 127.00,137.00 Z
           M 132.00,146.00
           C 132.00,146.00 132.00,147.00 132.00,147.00
             132.00,147.00 131.00,146.00 131.00,146.00
             131.00,146.00 132.00,146.00 132.00,146.00 Z
           M 233.00,161.39
           C 235.97,161.02 238.12,160.84 241.00,162.01
             256.39,168.24 250.88,191.69 234.00,189.80
             220.76,188.32 215.73,166.96 233.00,161.39 Z
           M 64.00,162.43
           C 69.47,161.60 74.60,161.82 78.61,166.21
             85.45,173.70 81.84,187.33 72.00,189.94
             54.44,194.60 46.10,169.48 64.00,162.43 Z
           M 156.00,165.00
           C 156.00,165.00 155.00,168.00 155.00,168.00
             155.00,168.00 153.00,165.00 153.00,165.00
             153.00,165.00 156.00,165.00 156.00,165.00 Z
           M 102.00,179.00
           C 102.00,179.00 101.00,195.00 101.00,195.00
             101.00,195.00 100.00,212.00 100.00,212.00
             91.48,209.28 85.16,202.16 79.00,196.00
             79.00,196.00 87.01,186.00 87.01,186.00
             87.01,186.00 91.41,179.57 91.41,179.57
             91.41,179.57 102.00,179.00 102.00,179.00 Z
           M 229.00,196.00
           C 223.49,203.70 216.47,208.92 208.00,213.00
             208.00,203.69 208.13,187.76 206.00,179.00
             206.00,179.00 213.51,180.02 213.51,180.02
             213.51,180.02 218.39,187.00 218.39,187.00
             218.39,187.00 229.00,196.00 229.00,196.00 Z
           M 199.00,181.00
           C 199.00,181.00 200.00,206.00 200.00,206.00
             197.05,204.34 182.06,194.58 180.64,192.62
             178.24,189.33 180.59,184.05 184.11,182.60
             184.11,182.60 199.00,181.00 199.00,181.00 Z
           M 109.00,206.00
           C 109.00,206.00 110.00,182.00 110.00,182.00
             113.43,182.00 124.15,181.42 126.61,183.02
             129.77,185.08 130.07,188.89 127.67,191.68
             125.93,193.70 111.74,204.40 109.00,206.00 Z
           M 170.00,183.00
           C 170.00,183.00 163.33,199.00 163.33,199.00
             163.33,199.00 154.00,218.00 154.00,218.00
             154.00,218.00 138.00,183.00 138.00,183.00
             138.00,183.00 170.00,183.00 170.00,183.00 Z
           M 135.00,196.00
           C 139.82,204.47 146.37,218.70 149.00,228.00
             136.32,227.42 117.77,223.68 107.00,217.00
             107.00,217.00 135.00,196.00 135.00,196.00 Z
           M 173.00,197.00
           C 173.00,197.00 202.00,217.00 202.00,217.00
             189.83,223.90 173.00,227.87 159.00,228.00
             159.94,223.00 169.96,201.62 173.00,197.00 Z" />
    <path id="control"
        fill="#d36362" stroke="#d36362" stroke-width="1"
        d="M 231.00,225.00
           C 231.00,225.00 231.00,247.00 231.00,247.00
             231.00,247.00 130.00,247.00 130.00,247.00
             130.00,247.00 99.00,247.00 99.00,247.00
             99.00,247.00 81.00,248.00 81.00,248.00
             81.00,248.00 72.00,237.00 72.00,237.00
             72.00,237.00 70.00,238.00 70.00,238.00
             67.10,234.21 62.49,234.06 58.00,234.00
             47.21,233.87 42.86,234.09 34.98,241.98
             28.62,248.33 27.11,251.93 27.00,261.00
             26.94,266.36 26.31,273.41 31.00,277.00
             31.91,282.43 35.34,285.27 39.97,287.90
             48.19,292.59 54.58,293.46 64.00,291.67
             64.00,291.67 71.00,290.00 71.00,290.00
             71.00,290.00 82.26,278.98 82.26,278.98
             82.26,278.98 88.00,278.00 88.00,278.00
             88.00,278.00 118.00,278.00 118.00,278.00
             118.00,278.00 221.00,278.00 221.00,278.00
             221.00,278.00 229.40,279.60 229.40,279.60
             229.40,279.60 231.00,286.00 231.00,286.00
             231.00,286.00 231.00,302.00 231.00,302.00
             231.00,302.00 255.00,290.00 255.00,290.00
             255.00,290.00 261.00,284.00 261.00,284.00
             261.00,284.00 263.00,285.00 263.00,285.00
             263.00,285.00 279.72,274.87 279.72,274.87
             279.72,274.87 298.00,265.00 298.00,265.00
             295.02,257.31 279.48,252.79 273.00,247.00
             273.00,247.00 271.00,248.00 271.00,248.00
             268.45,244.02 263.08,241.81 259.00,239.55
             252.16,235.77 238.02,225.81 231.00,225.00 Z" />
</svg>
