<?xml version="1.0" encoding="UTF-8" standalone="no"?>
<!DOCTYPE svg PUBLIC "-//W3C//DTD SVG 20010904//EN"
              "http://www.w3.org/TR/2001/REC-SVG-20010904/DTD/svg10.dtd">

<svg xmlns="http://www.w3.org/2000/svg"
     width="50" height="50"
     viewBox="0 0 300 300">
            <path id="trap"
        fill="black" stroke="black" stroke-width="1"
        d="M 155.00,44.00
           C 155.00,44.00 150.23,61.00 150.23,61.00
             147.05,71.60 142.58,82.11 137.63,92.00
             129.77,107.73 119.81,119.66 121.09,138.00
             123.46,171.85 170.92,180.07 186.17,150.00
             194.61,133.35 187.65,120.88 180.11,106.00
             180.11,106.00 164.86,74.00 164.86,74.00
             164.86,74.00 155.00,44.00 155.00,44.00 Z
           M 155.00,75.00
           C 154.99,86.35 153.82,86.69 151.66,97.00
             151.66,97.00 149.87,107.00 149.87,107.00
             148.38,113.24 145.90,121.68 147.56,128.00
             150.05,137.53 160.36,144.41 170.00,141.15
             174.95,139.47 177.94,136.00 181.00,132.00
             184.01,140.22 176.22,159.54 157.00,159.99
             152.78,160.08 149.01,159.93 145.00,158.44
             142.22,157.41 139.29,155.67 137.10,153.67
             118.15,136.42 137.07,111.18 145.65,94.00
             148.17,88.95 152.01,78.39 155.00,75.00 Z
           M 152.00,133.00
           C 152.00,133.00 152.00,134.00 152.00,134.00
             152.00,134.00 151.00,133.00 151.00,133.00
             151.00,133.00 152.00,133.00 152.00,133.00 Z
           M 252.00,154.00
           C 252.00,154.00 237.00,190.00 237.00,190.00
             237.00,190.00 235.00,190.00 235.00,190.00
             233.93,184.69 228.95,169.08 226.00,165.00
             226.00,165.00 210.00,198.00 210.00,198.00
             210.00,198.00 201.00,174.00 201.00,174.00
             201.00,174.00 185.00,207.00 185.00,207.00
             185.00,207.00 176.00,182.00 176.00,182.00
             176.00,182.00 168.77,196.00 168.77,196.00
             168.77,196.00 160.00,216.00 160.00,216.00
             137.60,209.65 129.92,242.28 147.00,250.03
             154.22,253.31 163.30,251.91 168.66,245.90
             172.97,241.06 170.88,238.80 178.00,235.83
             178.00,235.83 198.00,228.91 198.00,228.91
             198.00,228.91 250.00,210.09 250.00,210.09
             250.00,210.09 270.00,203.00 270.00,203.00
             270.00,203.00 259.52,173.00 259.52,173.00
             259.52,173.00 252.00,154.00 252.00,154.00 Z
           M 57.00,155.00
           C 57.00,155.00 41.00,203.00 41.00,203.00
             41.00,203.00 71.00,213.86 71.00,213.86
             71.00,213.86 127.00,234.00 127.00,234.00
             128.71,221.89 134.47,210.69 147.00,207.00
             144.75,201.77 138.10,185.64 134.00,183.00
             134.00,183.00 126.00,207.00 126.00,207.00
             126.00,207.00 110.00,172.00 110.00,172.00
             110.00,172.00 100.00,198.00 100.00,198.00
             100.00,198.00 85.00,164.00 85.00,164.00
             79.51,171.58 79.45,183.69 73.00,190.00
             73.00,190.00 67.42,175.00 67.42,175.00
             67.42,175.00 57.00,155.00 57.00,155.00 Z
           M 196.00,187.00
           C 196.00,187.00 196.00,188.00 196.00,188.00
             196.00,188.00 195.00,187.00 195.00,187.00
             195.00,187.00 196.00,187.00 196.00,187.00 Z
           M 155.00,224.65
           C 168.11,226.47 165.83,242.16 155.00,241.90
             145.14,241.66 142.06,226.45 155.00,224.65 Z
           M 168.00,244.00
           C 168.00,244.00 168.00,245.00 168.00,245.00
             168.00,245.00 167.00,244.00 167.00,244.00
             167.00,244.00 168.00,244.00 168.00,244.00 Z" />

             <path id="disarm"
        fill="#d36362" stroke="#d36362" stroke-width="1"
        d="M 136.00,22.21
           C 117.14,25.27 101.57,29.59 85.00,39.45
             55.26,57.14 33.98,85.44 25.63,119.00
             23.73,126.61 22.04,135.15 22.00,143.00
             21.91,162.34 22.15,175.24 28.69,194.00
             42.88,234.66 77.30,266.00 119.00,276.37
             125.90,278.09 134.92,279.91 142.00,280.00
             170.95,280.33 189.07,277.94 215.00,263.69
             228.46,256.30 242.63,243.93 252.19,232.00
             289.09,185.94 289.56,118.80 253.76,72.00
             240.52,54.69 225.41,43.30 206.00,33.76
             192.60,27.17 172.96,22.02 158.00,22.21
             158.00,22.21 136.00,22.21 136.00,22.21 Z
           M 145.00,28.28
           C 152.01,27.63 154.31,28.16 161.00,28.83
             179.92,30.72 191.97,34.09 209.00,42.76
             213.90,45.25 218.56,48.17 223.00,51.43
             224.44,52.49 227.16,54.38 227.66,56.17
             228.31,58.48 226.33,60.45 224.94,62.00
             224.94,62.00 212.00,75.00 212.00,75.00
             212.00,75.00 168.00,119.00 168.00,119.00
             168.00,119.00 157.00,129.98 157.00,129.98
             155.49,131.42 153.24,133.80 151.00,133.80
             148.76,133.80 146.51,131.42 145.00,129.98
             145.00,129.98 134.00,119.00 134.00,119.00
             134.00,119.00 90.00,75.00 90.00,75.00
             90.00,75.00 77.06,62.00 77.06,62.00
             75.67,60.45 73.69,58.48 74.34,56.17
             75.20,53.11 86.87,46.03 90.00,44.31
             104.18,36.52 117.98,31.73 134.00,29.43
             134.00,29.43 145.00,28.28 145.00,28.28 Z
           M 57.09,74.20
           C 62.75,76.02 71.44,86.44 76.00,91.00
             76.00,91.00 117.00,132.00 117.00,132.00
             117.00,132.00 129.98,145.00 129.98,145.00
             131.42,146.51 133.80,148.76 133.80,151.00
             133.80,154.16 126.33,160.67 124.00,163.00
             124.00,163.00 93.00,194.00 93.00,194.00
             93.00,194.00 68.00,219.00 68.00,219.00
             65.86,221.14 60.03,227.80 57.09,227.80
             54.17,227.80 50.84,222.20 49.34,220.00
             43.97,212.10 38.72,202.06 35.67,193.00
             25.27,162.13 25.16,128.70 39.76,99.00
             42.96,92.48 50.39,76.53 57.09,74.20 Z
           M 244.91,74.20
           C 251.61,76.53 259.04,92.48 262.24,99.00
             276.84,128.70 276.73,162.13 266.33,193.00
             263.28,202.06 258.03,212.10 252.66,220.00
             251.16,222.20 247.83,227.80 244.91,227.80
             241.97,227.80 236.14,221.14 234.00,219.00
             234.00,219.00 209.00,194.00 209.00,194.00
             209.00,194.00 178.00,163.00 178.00,163.00
             175.67,160.67 168.20,154.16 168.20,151.00
             168.20,148.76 170.58,146.51 172.02,145.00
             172.02,145.00 185.00,132.00 185.00,132.00
             185.00,132.00 226.00,91.00 226.00,91.00
             230.56,86.44 239.25,76.02 244.91,74.20 Z
           M 151.00,168.20
           C 155.94,169.73 159.40,174.40 163.00,178.00
             163.00,178.00 185.00,200.00 185.00,200.00
             185.00,200.00 217.00,232.00 217.00,232.00
             219.37,234.37 227.80,241.82 227.80,244.91
             227.80,247.48 223.88,249.95 222.00,251.28
             214.59,256.53 210.99,258.32 203.00,262.24
             172.45,277.26 137.50,276.78 106.00,265.31
             98.22,262.47 87.83,256.70 81.00,251.98
             78.64,250.34 73.43,247.40 74.34,243.96
             75.01,241.39 82.76,234.24 85.00,232.00
             85.00,232.00 113.00,204.00 113.00,204.00
             113.00,204.00 138.00,179.00 138.00,179.00
             141.86,175.14 145.71,169.84 151.00,168.20 Z" />
</svg>
