<?xml version="1.0" encoding="UTF-8" standalone="no"?>
<!DOCTYPE svg PUBLIC "-//W3C//DTD SVG 20010904//EN"
              "http://www.w3.org/TR/2001/REC-SVG-20010904/DTD/svg10.dtd">

<svg xmlns="http://www.w3.org/2000/svg"
     width="50" height="50"
     viewBox="0 0 300 300">
  <path id="heal"
        fill="black" stroke="black" stroke-width="1"
        d="M 144.00,33.00
           C 144.00,33.00 134.69,55.00 134.69,55.00
             127.20,71.32 119.37,85.11 109.33,100.00
             91.51,126.44 67.40,152.14 67.00,186.00
             66.86,198.59 68.74,210.57 74.26,222.00
             78.30,230.36 83.34,238.40 90.04,244.91
             120.30,274.35 168.14,274.28 198.99,245.83
             206.35,239.04 211.99,230.01 216.22,221.00
             220.30,212.31 222.88,200.60 223.00,191.00
             223.47,150.11 197.11,125.01 176.00,93.00
             168.35,81.40 160.52,66.72 154.86,54.00
             154.86,54.00 146.00,33.00 146.00,33.00
             146.00,33.00 144.00,33.00 144.00,33.00 Z" />
</svg>
