<?xml version="1.0" encoding="UTF-8" standalone="no"?>
<!DOCTYPE svg PUBLIC "-//W3C//DTD SVG 20010904//EN"
              "http://www.w3.org/TR/2001/REC-SVG-20010904/DTD/svg10.dtd">

<svg xmlns="http://www.w3.org/2000/svg"
     width="50" height="50"
     viewBox="0 0 300 300">
  <path id="skull"
        fill="black" stroke="black" stroke-width="1"
        d="M 147.00,239.00
           C 149.70,241.61 152.82,245.56 157.00,243.93
             159.11,243.10 161.12,240.47 163.39,240.50
             164.96,240.53 166.69,242.26 168.28,242.67
             171.82,243.57 173.60,240.66 176.17,240.49
             178.57,240.32 180.33,242.27 182.96,242.36
             185.91,242.45 188.77,239.69 191.00,238.00
             190.21,231.63 192.03,224.86 186.00,221.00
             186.00,221.00 187.00,218.00 187.00,218.00
             187.00,218.00 186.00,217.00 186.00,217.00
             186.00,217.00 184.00,218.00 184.00,218.00
             182.59,214.67 182.64,213.80 179.00,213.00
             179.00,213.00 178.00,208.00 178.00,208.00
             178.00,208.00 176.00,209.00 176.00,209.00
             176.00,209.00 172.00,203.00 172.00,203.00
             172.00,203.00 188.41,194.79 188.41,194.79
             188.41,194.79 190.00,192.00 190.00,192.00
             190.00,192.00 197.28,193.42 197.28,193.42
             197.28,193.42 203.00,199.00 203.00,199.00
             207.23,196.48 215.53,189.83 216.68,185.00
             217.77,180.44 215.11,175.43 214.50,171.00
             213.99,167.27 215.07,163.58 216.00,160.00
             218.01,152.29 221.91,141.38 222.00,134.00
             222.12,123.06 220.43,120.20 217.87,110.00
             216.87,105.98 214.87,97.61 212.75,94.32
             209.99,90.03 196.06,82.88 191.00,80.00
             184.34,76.21 162.92,65.48 156.00,65.14
             150.94,64.89 142.62,68.55 138.00,70.71
             138.00,70.71 113.00,83.86 113.00,83.86
             108.96,86.20 103.55,88.68 100.22,91.82
             95.66,96.12 93.77,105.96 92.55,112.00
             91.36,117.90 87.89,129.01 88.04,134.00
             88.36,144.53 94.20,155.23 95.98,165.84
             97.47,174.77 91.97,181.28 94.06,186.00
             97.13,192.88 112.84,201.67 116.87,208.17
             120.13,213.43 118.99,224.67 119.00,231.00
             119.01,236.27 120.05,242.56 127.04,242.37
             129.70,242.30 131.43,240.46 133.58,240.61
             137.76,240.91 140.01,246.87 147.00,239.00 Z
           M 169.00,70.00
           C 169.00,70.00 169.00,71.00 169.00,71.00
             169.00,71.00 168.00,70.00 168.00,70.00
             168.00,70.00 169.00,70.00 169.00,70.00 Z
           M 121.06,155.43
           C 127.45,154.43 139.60,154.76 144.42,159.65
             148.20,163.48 145.26,175.50 139.87,176.60
             135.29,177.53 120.54,172.08 117.60,168.47
             114.29,164.42 116.68,157.44 121.06,155.43 Z
           M 174.00,157.80
           C 177.26,157.26 187.99,156.12 190.40,157.80
             192.21,159.45 192.10,162.94 191.79,165.00
             190.66,172.39 181.53,175.16 175.00,175.61
             173.36,175.99 170.78,176.08 169.26,175.61
             165.97,173.93 162.09,164.65 164.06,161.43
             165.63,158.86 171.23,158.01 174.00,157.80 Z
           M 153.00,172.00
           C 157.53,173.99 157.92,174.77 160.21,179.04
             162.04,182.47 166.49,193.07 164.65,196.70
             162.44,201.07 147.83,201.13 144.94,197.49
             142.02,193.83 144.56,186.69 146.37,183.00
             146.37,183.00 153.00,172.00 153.00,172.00 Z
           M 187.00,193.00
           C 187.00,193.00 187.00,194.00 187.00,194.00
             187.00,194.00 186.00,193.00 186.00,193.00
             186.00,193.00 187.00,193.00 187.00,193.00 Z
           M 189.00,193.00
           C 189.00,193.00 189.00,194.00 189.00,194.00
             189.00,194.00 188.00,193.00 188.00,193.00
             188.00,193.00 189.00,193.00 189.00,193.00 Z
           M 180.00,197.00
           C 180.00,197.00 180.00,198.00 180.00,198.00
             180.00,198.00 179.00,197.00 179.00,197.00
             179.00,197.00 180.00,197.00 180.00,197.00 Z
           M 178.00,198.00
           C 178.00,198.00 178.00,199.00 178.00,199.00
             178.00,199.00 177.00,198.00 177.00,198.00
             177.00,198.00 178.00,198.00 178.00,198.00 Z
           M 176.00,200.00
           C 176.00,200.00 176.00,201.00 176.00,201.00
             176.00,201.00 175.00,200.00 175.00,200.00
             175.00,200.00 176.00,200.00 176.00,200.00 Z" />

      <path id="x"
        fill="#d36362" stroke="#d36362" stroke-width="1"
        d="M 216.00,214.00
           C 211.89,209.80 201.91,196.98 198.00,195.02
             190.88,191.46 179.49,198.80 174.00,203.00
             178.19,209.60 186.33,218.65 191.59,225.00
             193.48,227.28 197.12,230.81 196.40,234.00
             195.86,236.35 191.96,240.08 190.28,242.00
             190.28,242.00 174.08,260.00 174.08,260.00
             171.83,262.45 166.72,267.20 168.74,270.81
             171.89,276.44 178.88,275.15 183.00,271.77
             183.00,271.77 199.83,254.00 199.83,254.00
             201.50,252.16 204.69,247.83 207.01,247.20
             210.98,246.11 217.63,256.16 220.13,258.98
             221.75,260.81 223.89,263.31 226.17,264.26
             231.38,266.43 241.95,261.66 245.84,258.21
             250.07,254.46 246.82,251.36 244.00,248.00
             244.00,248.00 230.59,232.00 230.59,232.00
             229.29,230.43 226.50,227.57 226.69,225.42
             226.90,223.16 232.29,217.80 233.93,216.00
             233.93,216.00 248.17,200.00 248.17,200.00
             250.17,197.78 254.45,193.85 255.12,191.01
             256.31,185.89 248.24,181.84 242.00,185.74
             238.77,187.76 235.59,192.12 232.91,195.00
             228.01,200.27 220.02,208.38 216.00,214.00 Z" />
</svg>
