<?xml version="1.0" encoding="UTF-8" standalone="no"?>
<!DOCTYPE svg PUBLIC "-//W3C//DTD SVG 20010904//EN"
              "http://www.w3.org/TR/2001/REC-SVG-20010904/DTD/svg10.dtd">

<svg xmlns="http://www.w3.org/2000/svg"
     width="175.692mm" height="181.69mm"
     viewBox="0 0 1000 1000">
  <path id="Selection #1"
        fill="black" stroke="black" stroke-width="1"
        d="M 501.00,13.00
           C 501.00,13.00 482.42,45.00 482.42,45.00
             482.42,45.00 441.42,116.00 441.42,116.00
             441.42,116.00 307.58,348.00 307.58,348.00
             307.58,348.00 255.58,438.00 255.58,438.00
             255.58,438.00 228.00,486.00 228.00,486.00
             228.00,486.00 382.00,486.00 382.00,486.00
             382.00,486.00 382.00,723.00 382.00,723.00
             382.00,723.00 621.00,723.00 621.00,723.00
             621.00,723.00 621.00,486.00 621.00,486.00
             621.00,486.00 775.00,486.00 775.00,486.00
             775.00,486.00 758.42,457.00 758.42,457.00
             758.42,457.00 721.42,393.00 721.42,393.00
             721.42,393.00 597.85,179.00 597.85,179.00
             597.85,179.00 534.42,69.00 534.42,69.00
             534.42,69.00 515.28,36.00 515.28,36.00
             515.28,36.00 501.00,13.00 501.00,13.00 Z
           M 658.00,551.00
           C 658.00,551.00 658.00,759.00 658.00,759.00
             658.00,759.00 345.00,759.00 345.00,759.00
             345.00,759.00 345.00,551.00 345.00,551.00
             327.50,553.36 294.45,562.05 277.00,567.28
             230.42,581.26 180.74,601.96 143.00,633.08
             119.00,652.88 93.39,684.19 93.00,717.00
             92.87,728.65 92.56,735.50 95.74,747.00
             106.48,785.71 144.36,817.84 178.00,837.15
             240.83,873.21 318.34,893.59 390.00,902.15
             390.00,902.15 421.00,905.83 421.00,905.83
             421.00,905.83 442.00,907.09 442.00,907.09
             442.00,907.09 468.00,909.00 468.00,909.00
             468.00,909.00 533.00,909.00 533.00,909.00
             533.00,909.00 546.00,908.04 546.00,908.04
             546.00,908.04 596.00,904.16 596.00,904.16
             645.57,898.86 694.64,889.45 742.00,873.67
             784.78,859.41 830.88,838.63 865.00,808.71
             895.87,781.65 918.01,744.08 907.87,702.00
             906.06,694.48 903.29,686.86 899.68,680.00
             891.23,663.93 879.42,650.29 866.00,638.17
             828.81,604.58 773.68,581.59 726.00,567.28
             708.55,562.05 675.50,553.36 658.00,551.00 Z
           M 93.00,816.00
           C 93.00,816.00 93.00,829.00 93.00,829.00
             93.11,851.43 106.99,874.31 120.92,891.00
             153.51,930.04 212.35,957.12 260.00,973.00
             306.01,988.34 353.82,998.01 402.00,1003.16
             402.00,1003.16 425.00,1005.83 425.00,1005.83
             425.00,1005.83 448.00,1007.09 448.00,1007.09
             448.00,1007.09 458.00,1008.04 458.00,1008.04
             458.00,1008.04 473.00,1008.04 473.00,1008.04
             473.00,1008.04 483.00,1009.00 483.00,1009.00
             483.00,1009.00 518.00,1009.00 518.00,1009.00
             518.00,1009.00 535.00,1008.00 535.00,1008.00
             557.11,1007.97 579.03,1005.51 601.00,1003.16
             654.41,997.45 709.61,985.83 760.00,967.05
             804.26,950.55 853.25,925.92 883.75,889.00
             896.48,873.59 909.76,850.52 910.00,830.00
             910.00,830.00 910.00,816.00 910.00,816.00
             910.00,816.00 882.00,841.58 882.00,841.58
             862.70,857.39 841.29,870.59 819.00,881.73
             773.75,904.36 724.39,918.78 675.00,929.00
             648.10,934.57 621.32,938.44 594.00,941.17
             594.00,941.17 566.00,944.00 566.00,944.00
             566.00,944.00 557.00,944.00 557.00,944.00
             557.00,944.00 545.00,945.00 545.00,945.00
             545.00,945.00 523.00,946.00 523.00,946.00
             523.00,946.00 480.00,946.00 480.00,946.00
             480.00,946.00 458.00,945.00 458.00,945.00
             458.00,945.00 446.00,944.00 446.00,944.00
             446.00,944.00 437.00,944.00 437.00,944.00
             437.00,944.00 391.00,939.16 391.00,939.16
             324.04,932.00 244.26,911.86 184.00,881.73
             161.71,870.59 140.30,857.39 121.00,841.58
             121.00,841.58 93.00,816.00 93.00,816.00 Z" />
</svg>
