<?xml version="1.0" encoding="UTF-8" standalone="no"?>
<!DOCTYPE svg PUBLIC "-//W3C//DTD SVG 20010904//EN"
              "http://www.w3.org/TR/2001/REC-SVG-20010904/DTD/svg10.dtd">

<svg xmlns="http://www.w3.org/2000/svg"
     width="50" height="50"
     viewBox="0 0 300 300">
  <path id="move"
        fill="black" stroke="black" stroke-width="1"
        d="M 28.00,51.00
           C 29.05,73.58 49.10,98.51 66.00,112.00
             71.07,116.04 76.16,120.14 82.00,123.00
             82.00,123.00 82.00,125.00 82.00,125.00
             69.70,126.36 59.23,119.20 48.00,116.00
             51.09,135.72 72.80,150.11 90.00,157.00
             90.00,157.00 90.00,159.00 90.00,159.00
             80.23,161.82 75.97,162.00 66.00,162.00
             73.73,172.55 88.55,175.99 101.00,177.00
             101.05,193.87 106.97,183.78 107.00,199.00
             107.01,203.62 107.32,216.24 106.47,220.00
             106.47,220.00 94.00,252.00 94.00,252.00
             99.97,253.70 108.62,253.00 115.00,253.00
             115.00,253.00 150.00,253.00 150.00,253.00
             159.15,252.83 156.02,250.25 156.00,235.00
             155.99,229.16 153.66,219.65 156.60,215.00
             158.13,212.58 165.53,205.47 168.00,203.00
             168.00,203.00 182.01,188.00 182.01,188.00
             189.39,180.44 192.98,179.83 193.00,169.00
             193.00,169.00 193.00,96.00 193.00,96.00
             193.00,96.00 160.00,110.74 160.00,110.74
             160.00,110.74 125.00,128.00 125.00,128.00
             125.00,128.00 137.86,165.00 137.86,165.00
             137.86,165.00 144.77,180.96 144.77,180.96
             144.77,180.96 138.00,189.00 138.00,189.00
             131.93,181.53 126.80,169.07 123.20,160.00
             114.75,138.67 107.02,109.98 107.00,87.00
             87.66,86.11 63.04,75.44 47.00,64.92
             47.00,64.92 28.00,51.00 28.00,51.00 Z
           M 270.00,253.00
           C 270.00,226.09 257.21,205.31 231.00,196.67
             224.62,194.57 217.73,193.08 211.00,193.00
             208.63,192.98 204.11,192.82 202.00,193.60
             197.14,195.39 187.34,207.64 183.00,212.00
             180.09,214.93 174.13,219.97 173.40,224.00
             173.40,224.00 174.72,245.00 174.72,245.00
             174.98,247.11 174.82,250.57 176.60,251.98
             178.19,253.23 182.01,253.00 184.00,253.00
             184.00,253.00 270.00,253.00 270.00,253.00 Z" />
</svg>
