<?xml version="1.0" encoding="UTF-8" standalone="no"?>
<!DOCTYPE svg PUBLIC "-//W3C//DTD SVG 20010904//EN"
              "http://www.w3.org/TR/2001/REC-SVG-20010904/DTD/svg10.dtd">

<svg xmlns="http://www.w3.org/2000/svg"
     width="50" height="50"
     viewBox="0 0 300 300">
  <path id="pull"
        fill="#474845" stroke="#474845" stroke-width="1"
        d="M 151.00,290.22
           C 156.54,287.43 160.66,282.34 165.00,278.00
             165.00,278.00 186.00,257.00 186.00,257.00
             186.00,257.00 258.00,185.00 258.00,185.00
             258.00,185.00 282.00,161.00 282.00,161.00
             284.66,158.33 289.60,154.05 289.50,150.00
             289.41,146.36 285.37,142.45 282.99,140.00
             282.99,140.00 262.00,119.00 262.00,119.00
             262.00,119.00 181.00,38.00 181.00,38.00
             181.00,38.00 158.00,15.02 158.00,15.02
             155.08,12.18 151.51,8.34 147.00,9.78
             143.61,10.86 138.61,16.39 136.00,19.00
             136.00,19.00 115.00,40.00 115.00,40.00
             115.00,40.00 39.00,116.00 39.00,116.00
             39.00,116.00 16.00,139.00 16.00,139.00
             13.41,141.63 8.60,146.09 8.50,150.00
             8.41,153.80 12.53,157.50 15.00,160.00
             15.00,160.00 35.00,180.00 35.00,180.00
             35.00,180.00 117.00,262.00 117.00,262.00
             117.00,262.00 138.00,283.00 138.00,283.00
             142.13,287.11 144.78,291.07 151.00,290.22 Z
           M 113.00,128.00
           C 113.00,128.00 164.00,128.00 164.00,128.00
             166.26,128.00 171.42,127.48 172.18,130.31
             173.04,133.54 168.51,136.81 167.30,145.00
             166.62,149.61 166.94,155.61 168.56,160.00
             169.47,162.48 172.79,167.38 172.18,169.69
             171.42,172.52 166.26,172.00 164.00,172.00
             164.00,172.00 113.00,172.00 113.00,172.00
             113.00,172.00 113.00,191.00 113.00,191.00
             113.00,192.91 113.41,197.59 111.43,198.60
             108.83,199.92 103.10,195.08 101.00,193.58
             101.00,193.58 72.00,172.71 72.00,172.71
             72.00,172.71 50.00,157.00 50.00,157.00
             47.92,155.50 43.63,152.88 43.63,150.00
             43.63,147.12 47.92,144.50 50.00,143.00
             50.00,143.00 72.00,127.29 72.00,127.29
             72.00,127.29 101.00,106.42 101.00,106.42
             103.10,104.92 108.83,100.08 111.43,101.40
             113.14,102.27 112.97,105.39 113.00,107.00
             113.00,107.00 113.00,128.00 113.00,128.00 Z
           M 252.67,171.40
           C 244.30,173.43 240.09,169.47 236.88,162.00
             233.03,153.04 234.23,135.50 243.04,129.60
             245.55,127.92 254.11,126.44 254.30,131.15
             254.39,133.36 251.39,138.57 250.47,141.00
             248.96,144.98 248.66,149.79 249.18,154.00
             250.17,161.91 257.03,167.39 252.67,171.40 Z
           M 222.00,128.00
           C 222.00,128.00 216.03,150.00 216.03,150.00
             216.03,150.00 222.00,172.00 222.00,172.00
             222.00,172.00 200.00,172.00 200.00,172.00
             196.57,171.99 193.08,172.27 190.09,170.26
             179.71,163.27 179.57,139.95 188.33,131.23
             191.69,127.87 194.59,128.02 199.00,128.00
             199.00,128.00 222.00,128.00 222.00,128.00 Z" />
</svg>
