<?xml version="1.0" encoding="UTF-8" standalone="no"?>
<!DOCTYPE svg PUBLIC "-//W3C//DTD SVG 20010904//EN"
              "http://www.w3.org/TR/2001/REC-SVG-20010904/DTD/svg10.dtd">

<svg xmlns="http://www.w3.org/2000/svg"
     width="50" height="50"
     viewBox="0 0 300 300">
  <path id="push"
        fill="#474845" stroke="#474845" stroke-width="1"
        d="M 149.00,11.78
           C 143.46,14.57 139.34,19.66 135.00,24.00
             135.00,24.00 114.00,45.00 114.00,45.00
             114.00,45.00 42.00,117.00 42.00,117.00
             42.00,117.00 18.00,141.00 18.00,141.00
             15.34,143.67 10.40,147.95 10.50,152.00
             10.59,155.64 14.63,159.55 17.01,162.00
             17.01,162.00 38.00,183.00 38.00,183.00
             38.00,183.00 119.00,264.00 119.00,264.00
             119.00,264.00 142.00,286.98 142.00,286.98
             144.92,289.82 148.49,293.66 153.00,292.22
             156.39,291.14 161.39,285.61 164.00,283.00
             164.00,283.00 185.00,262.00 185.00,262.00
             185.00,262.00 261.00,186.00 261.00,186.00
             261.00,186.00 284.00,163.00 284.00,163.00
             286.59,160.37 291.40,155.91 291.50,152.00
             291.59,148.20 287.47,144.50 285.00,142.00
             285.00,142.00 265.00,122.00 265.00,122.00
             265.00,122.00 183.00,40.00 183.00,40.00
             183.00,40.00 162.00,19.00 162.00,19.00
             157.87,14.89 155.22,10.93 149.00,11.78 Z
           M 187.00,174.00
           C 187.00,174.00 136.00,174.00 136.00,174.00
             133.74,174.00 128.58,174.52 127.82,171.69
             126.96,168.46 131.49,165.19 132.70,157.00
             133.38,152.39 133.06,146.39 131.44,142.00
             130.53,139.52 127.21,134.62 127.82,132.31
             128.58,129.48 133.74,130.00 136.00,130.00
             136.00,130.00 187.00,130.00 187.00,130.00
             187.00,130.00 187.00,111.00 187.00,111.00
             187.00,109.09 186.59,104.41 188.57,103.40
             191.17,102.08 196.90,106.92 199.00,108.42
             199.00,108.42 228.00,129.29 228.00,129.29
             228.00,129.29 250.00,145.00 250.00,145.00
             252.08,146.50 256.37,149.12 256.37,152.00
             256.37,154.88 252.08,157.50 250.00,159.00
             250.00,159.00 228.00,174.71 228.00,174.71
             228.00,174.71 199.00,195.58 199.00,195.58
             196.90,197.08 191.17,201.92 188.57,200.60
             186.86,199.73 187.03,196.61 187.00,195.00
             187.00,195.00 187.00,174.00 187.00,174.00 Z
           M 47.33,130.60
           C 55.70,128.57 59.91,132.53 63.12,140.00
             66.97,148.96 65.77,166.50 56.96,172.40
             54.45,174.08 45.89,175.56 45.70,170.85
             45.61,168.64 48.61,163.43 49.53,161.00
             51.04,157.02 51.34,152.21 50.82,148.00
             49.83,140.09 42.97,134.61 47.33,130.60 Z
           M 78.00,174.00
           C 78.00,174.00 83.97,152.00 83.97,152.00
             83.97,152.00 78.00,130.00 78.00,130.00
             78.00,130.00 100.00,130.00 100.00,130.00
             103.43,130.01 106.92,129.73 109.91,131.74
             120.29,138.73 120.43,162.05 111.67,170.77
             108.31,174.13 105.41,173.98 101.00,174.00
             101.00,174.00 78.00,174.00 78.00,174.00 Z" />
</svg>
