<?xml version="1.0" encoding="UTF-8" standalone="no"?>
<!DOCTYPE svg PUBLIC "-//W3C//DTD SVG 20010904//EN"
              "http://www.w3.org/TR/2001/REC-SVG-20010904/DTD/svg10.dtd">

<svg xmlns="http://www.w3.org/2000/svg"
     width="0.25in" height="0.25in"
     viewBox="0 0 300 300">
  <path id="Selection"
        fill="black" stroke="black" stroke-width="3"
        d="M 144.00,4.63
           C 139.30,6.37 135.80,8.09 132.52,12.04
             130.00,15.08 128.32,19.62 124.87,21.30
             122.95,22.24 105.96,25.99 92.00,32.86
             63.21,47.04 40.63,70.89 27.31,100.00
             21.70,112.26 16.02,133.54 16.00,147.00
             16.00,147.00 16.00,167.00 16.00,167.00
             16.02,182.24 22.12,197.67 22.55,202.00
             22.97,206.25 20.12,208.89 18.76,214.00
             17.05,220.44 17.96,228.17 21.18,234.00
             24.99,240.89 30.38,244.60 38.00,246.32
             42.58,247.36 45.99,246.22 49.96,249.31
             49.96,249.31 56.00,255.49 56.00,255.49
             60.37,259.80 65.08,263.96 70.00,267.62
             90.07,282.56 119.71,294.70 145.00,295.00
             145.00,295.00 160.00,295.00 160.00,295.00
             184.33,294.96 211.94,285.16 232.00,271.64
             243.45,263.93 247.45,258.83 257.00,250.06
             263.03,244.51 264.88,246.19 271.00,242.64
             279.03,237.98 284.59,228.39 283.81,219.00
             283.56,215.95 282.29,212.97 282.55,210.00
             282.55,210.00 289.55,184.00 289.55,184.00
             292.31,170.22 292.02,164.64 292.00,151.00
             291.99,142.76 290.47,134.04 288.65,126.00
             280.28,89.04 257.89,57.26 225.00,38.01
             216.18,32.85 205.74,28.13 196.00,25.03
             196.00,25.03 180.04,20.97 180.04,20.97
             175.01,19.00 173.70,13.96 169.82,10.21
             163.01,3.65 152.86,2.86 144.00,4.63 Z
           M 152.00,8.58
           C 158.54,9.04 163.46,10.64 167.69,16.02
             169.63,18.47 169.93,20.16 170.88,23.00
             171.55,24.99 172.35,26.88 172.50,29.00
             173.35,40.61 163.27,49.99 152.00,49.99
             136.10,49.99 126.33,32.57 134.09,19.00
             137.99,12.17 144.46,9.12 152.00,8.58 Z
           M 217.00,39.00
           C 217.00,39.00 217.00,41.00 217.00,41.00
             217.00,41.00 190.00,60.42 190.00,60.42
             187.65,62.12 181.84,67.11 179.09,66.89
             175.05,66.57 168.19,53.73 167.00,50.00
             174.96,44.01 177.91,35.69 178.00,26.00
             191.69,27.93 204.39,33.65 217.00,39.00 Z
           M 126.00,27.00
           C 126.23,37.18 129.91,44.74 138.00,51.00
             138.00,51.00 128.00,68.00 128.00,68.00
             128.00,68.00 109.00,55.15 109.00,55.15
             109.00,55.15 90.00,40.00 90.00,40.00
             100.60,33.97 113.87,28.64 126.00,27.00 Z
           M 86.00,42.00
           C 86.00,42.00 88.00,62.00 88.00,62.00
             88.00,62.00 88.00,73.00 88.00,73.00
             88.00,73.00 90.00,94.00 90.00,94.00
             90.00,94.00 39.00,90.00 39.00,90.00
             47.04,72.00 68.90,51.60 86.00,42.00 Z
           M 222.00,42.00
           C 236.06,51.37 246.07,58.60 256.80,72.00
             260.87,77.08 265.00,81.70 267.00,88.00
             267.00,88.00 245.00,89.91 245.00,89.91
             245.00,89.91 217.00,93.00 217.00,93.00
             217.00,93.00 219.91,61.00 219.91,61.00
             219.91,61.00 222.00,42.00 222.00,42.00 Z
           M 216.00,48.00
           C 216.00,48.00 212.00,89.00 212.00,89.00
             209.23,89.51 199.20,91.66 197.09,91.11
             192.59,89.95 185.13,75.41 183.00,71.00
             183.00,71.00 216.00,48.00 216.00,48.00 Z
           M 92.96,49.00
           C 92.96,49.00 122.00,70.00 122.00,70.00
             122.00,70.00 113.32,86.00 113.32,86.00
             113.32,86.00 108.62,91.43 108.62,91.43
             108.62,91.43 95.00,92.00 95.00,92.00
             95.00,92.00 92.96,64.00 92.96,64.00
             92.53,58.83 91.00,54.05 92.96,49.00 Z
           M 164.00,55.00
           C 164.00,55.00 190.00,97.00 190.00,97.00
             171.08,88.85 159.30,83.61 138.00,88.50
             125.55,91.36 123.19,94.73 116.00,97.00
             116.00,97.00 133.81,67.00 133.81,67.00
             133.81,67.00 141.39,56.76 141.39,56.76
             141.39,56.76 149.00,56.76 149.00,56.76
             149.00,56.76 164.00,55.00 164.00,55.00 Z
           M 270.00,91.00
           C 280.11,111.60 286.79,130.74 287.00,154.00
             287.00,154.00 240.00,133.00 240.00,133.00
             240.00,133.00 251.58,115.00 251.58,115.00
             251.58,115.00 268.00,91.00 268.00,91.00
             268.00,91.00 270.00,91.00 270.00,91.00 Z
           M 207.00,122.00
           C 202.32,122.00 188.61,122.56 185.00,121.15
             179.82,119.12 171.35,110.18 157.00,110.00
             147.25,109.89 143.11,109.70 134.00,114.13
             126.38,117.84 123.74,122.84 115.00,123.00
             115.00,123.00 100.00,123.00 100.00,123.00
             101.94,119.33 104.63,114.13 107.33,111.09
             109.81,108.29 114.83,104.48 118.00,102.36
             146.56,83.21 190.21,90.80 207.00,122.00 Z
           M 38.00,93.00
           C 38.00,93.00 56.43,119.00 56.43,119.00
             56.43,119.00 67.00,135.00 67.00,135.00
             67.00,135.00 20.00,156.00 20.00,156.00
             20.00,156.00 21.28,143.00 21.28,143.00
             22.81,130.13 24.41,122.27 28.86,110.00
             30.92,104.33 33.63,97.17 38.00,93.00 Z
           M 260.00,93.00
           C 260.00,93.00 248.66,111.00 248.66,111.00
             248.66,111.00 228.00,141.00 228.00,141.00
             228.00,141.00 216.99,124.00 216.99,124.00
             216.99,124.00 203.00,99.00 203.00,99.00
             203.00,99.00 231.00,96.17 231.00,96.17
             231.00,96.17 260.00,93.00 260.00,93.00 Z
           M 47.00,95.00
           C 47.00,95.00 71.00,97.17 71.00,97.17
             71.00,97.17 85.00,98.17 85.00,98.17
             85.00,98.17 104.00,100.00 104.00,100.00
             104.00,100.00 80.00,142.00 80.00,142.00
             75.18,138.20 73.67,134.83 70.12,130.00
             70.12,130.00 54.28,108.00 54.28,108.00
             51.69,104.31 46.76,99.64 47.00,95.00 Z
           M 191.00,97.00
           C 191.00,97.00 191.00,98.00 191.00,98.00
             191.00,98.00 190.00,97.00 190.00,97.00
             190.00,97.00 191.00,97.00 191.00,97.00 Z
           M 176.00,121.00
           C 176.00,121.00 161.00,122.00 161.00,122.00
             161.00,122.00 131.00,122.00 131.00,122.00
             142.13,110.99 163.66,114.00 176.00,121.00 Z
           M 204.00,126.00
           C 204.00,126.00 197.00,139.00 197.00,139.00
             197.00,139.00 190.00,127.00 190.00,127.00
             190.00,127.00 204.00,126.00 204.00,126.00 Z
           M 142.00,127.14
           C 142.00,127.14 177.00,127.14 177.00,127.14
             179.08,127.04 181.05,127.02 182.96,128.02
             187.44,130.37 193.32,140.87 192.49,146.00
             192.02,148.91 187.51,156.09 185.85,159.00
             185.85,159.00 172.42,183.00 172.42,183.00
             169.22,188.58 166.03,197.94 158.99,198.91
             154.89,199.47 147.82,199.96 144.18,197.83
             140.94,195.93 137.02,188.43 135.01,185.00
             135.01,185.00 120.94,161.00 120.94,161.00
             119.25,158.23 114.45,150.81 113.88,148.00
             112.88,143.08 118.77,131.37 123.09,129.02
             125.33,127.80 128.50,128.01 131.00,128.00
             136.39,127.99 136.59,128.06 142.00,127.14 Z
           M 210.00,127.00
           C 225.25,156.43 215.15,194.10 187.00,211.77
             178.45,217.14 171.14,219.98 161.00,220.00
             161.00,220.00 157.00,220.00 157.00,220.00
             158.73,216.40 164.68,205.03 167.39,202.81
             167.39,202.81 178.00,197.12 178.00,197.12
             184.99,192.70 190.15,187.27 194.10,180.00
             197.02,174.64 199.69,166.10 199.72,160.00
             199.72,160.00 199.72,146.00 199.72,146.00
             200.06,142.24 207.34,130.17 210.00,127.00 Z
           M 116.00,128.00
           C 116.00,128.00 109.00,141.00 109.00,141.00
             109.00,141.00 102.00,128.00 102.00,128.00
             102.00,128.00 116.00,128.00 116.00,128.00 Z
           M 97.00,129.00
           C 97.00,129.00 107.18,148.00 107.18,148.00
             107.18,148.00 107.18,159.00 107.18,159.00
             107.59,166.89 110.19,175.29 114.37,182.00
             119.13,189.63 122.37,192.87 130.00,197.63
             130.00,197.63 139.39,202.79 139.39,202.79
             142.05,205.09 148.07,216.36 150.00,220.00
             150.00,220.00 145.00,220.00 145.00,220.00
             115.47,219.95 93.14,191.47 89.85,164.00
             89.43,160.53 88.88,158.66 89.09,155.00
             89.58,146.42 91.09,135.51 97.00,129.00 Z
           M 278.00,155.00
           C 278.00,155.00 263.00,163.25 263.00,163.25
             263.00,163.25 242.00,172.00 242.00,172.00
             242.00,172.00 233.86,157.00 233.86,157.00
             233.86,157.00 231.24,149.00 231.24,149.00
             231.24,149.00 238.00,138.00 238.00,138.00
             238.00,138.00 278.00,155.00 278.00,155.00 Z
           M 69.00,140.00
           C 70.63,142.61 74.09,147.09 74.37,150.00
             74.77,154.16 66.31,168.63 64.00,173.00
             64.00,173.00 30.00,157.00 30.00,157.00
             30.00,157.00 51.00,147.14 51.00,147.14
             51.00,147.14 69.00,140.00 69.00,140.00 Z
           M 223.00,151.00
           C 223.00,151.00 246.00,195.00 246.00,195.00
             237.57,200.70 231.96,206.44 231.00,217.00
             231.00,217.00 219.00,218.00 219.00,218.00
             219.00,218.00 204.00,218.00 204.00,218.00
             204.00,218.00 185.00,219.00 185.00,219.00
             185.00,219.00 199.99,207.83 199.99,207.83
             209.03,199.49 215.76,187.73 219.28,176.00
             223.49,161.97 220.89,156.31 223.00,151.00 Z
           M 84.00,153.00
           C 84.00,179.07 96.71,206.09 121.00,218.00
             114.71,220.50 103.83,218.08 97.00,218.00
             97.00,218.00 77.00,218.00 77.00,218.00
             75.35,217.97 73.10,218.07 71.72,217.01
             70.41,215.99 68.90,211.74 67.95,210.00
             65.17,204.88 63.57,202.64 59.00,199.00
             59.00,199.00 70.69,176.00 70.69,176.00
             70.69,176.00 84.00,153.00 84.00,153.00 Z
           M 195.00,154.00
           C 195.00,171.77 188.84,186.74 172.00,195.00
             172.00,195.00 182.72,174.00 182.72,174.00
             182.72,174.00 195.00,154.00 195.00,154.00 Z
           M 113.00,157.00
           C 113.00,157.00 134.00,194.00 134.00,194.00
             123.75,189.62 116.70,179.54 113.88,169.00
             112.76,164.80 111.39,161.19 113.00,157.00 Z
           M 287.00,157.00
           C 287.00,174.71 283.91,187.20 279.00,204.00
             268.81,196.96 265.16,192.65 252.00,195.00
             252.00,195.00 243.00,178.00 243.00,178.00
             243.00,178.00 287.00,157.00 287.00,157.00 Z
           M 21.00,158.00
           C 21.00,158.00 44.00,169.25 44.00,169.25
             44.00,169.25 63.00,178.00 63.00,178.00
             63.00,178.00 54.00,197.00 54.00,197.00
             40.95,194.38 40.52,194.02 28.00,200.00
             24.25,192.27 22.74,181.53 21.58,173.00
             21.10,169.54 20.32,161.19 21.00,158.00 Z
           M 135.00,194.00
           C 135.00,194.00 135.00,195.00 135.00,195.00
             135.00,195.00 134.00,194.00 134.00,194.00
             134.00,194.00 135.00,194.00 135.00,194.00 Z
           M 257.00,199.38
           C 279.66,199.61 284.50,225.54 270.96,236.61
             267.16,239.71 260.84,240.67 256.00,240.74
             241.82,240.93 234.29,223.96 238.99,212.00
             242.20,203.82 248.75,200.48 257.00,199.38 Z
           M 41.00,200.32
           C 50.84,199.34 59.60,204.51 63.03,214.00
             66.91,224.73 60.55,238.51 49.00,241.02
             45.54,241.52 41.43,242.16 38.00,241.02
             24.95,237.59 18.97,221.44 26.00,210.00
             29.52,204.28 34.70,201.75 41.00,200.32 Z
           M 160.00,204.00
           C 160.00,204.00 154.00,216.00 154.00,216.00
             154.00,216.00 147.00,204.00 147.00,204.00
             147.00,204.00 160.00,204.00 160.00,204.00 Z
           M 90.00,223.00
           C 90.00,223.00 89.09,234.00 89.09,234.00
             89.09,234.00 87.91,257.00 87.91,257.00
             87.91,257.00 87.00,272.00 87.00,272.00
             76.01,267.09 60.95,254.71 54.00,245.00
             63.36,238.67 68.02,233.61 69.00,222.00
             69.00,222.00 90.00,223.00 90.00,223.00 Z
           M 252.00,245.00
           C 250.33,250.69 247.37,252.67 243.00,256.42
             236.44,262.04 228.78,268.21 221.00,272.00
             221.00,272.00 220.00,261.00 220.00,261.00
             220.00,261.00 220.00,252.00 220.00,252.00
             220.00,252.00 218.00,223.00 218.00,223.00
             221.11,222.59 228.74,221.02 231.28,223.00
             233.40,224.64 233.27,228.62 235.99,233.00
             239.71,238.99 245.30,243.08 252.00,245.00 Z
           M 213.00,225.00
           C 213.00,225.00 215.00,264.00 215.00,264.00
             215.00,264.00 182.00,242.00 182.00,242.00
             182.68,238.27 185.51,229.18 188.63,226.99
             190.42,225.75 193.87,226.00 196.00,226.00
             196.00,226.00 213.00,225.00 213.00,225.00 Z
           M 92.00,264.00
           C 92.00,264.00 94.00,236.00 94.00,236.00
             94.00,233.74 93.75,229.38 95.17,227.57
             97.11,225.11 110.51,225.94 114.00,226.00
             115.86,226.04 117.98,225.98 119.61,227.02
             122.56,228.90 126.33,236.45 124.30,239.70
             123.09,241.64 116.20,246.46 114.00,248.13
             108.14,252.57 98.19,261.21 92.00,264.00 Z
           M 178.00,227.00
           C 178.00,227.00 165.31,256.00 165.31,256.00
             165.31,256.00 153.00,281.00 153.00,281.00
             153.00,281.00 129.00,227.00 129.00,227.00
             129.00,227.00 178.00,227.00 178.00,227.00 Z
           M 130.00,242.00
           C 130.00,242.00 142.86,270.00 142.86,270.00
             142.86,270.00 151.00,290.00 151.00,290.00
             133.52,290.00 102.75,283.93 89.00,273.00
             89.00,273.00 130.00,242.00 130.00,242.00 Z
           M 219.00,273.00
           C 215.09,276.10 212.44,276.90 208.00,278.86
             190.48,286.60 174.13,290.00 155.00,290.00
             155.00,290.00 176.00,244.00 176.00,244.00
             176.00,244.00 219.00,273.00 219.00,273.00 Z
           M 216.00,264.00
           C 216.00,264.00 216.00,265.00 216.00,265.00
             216.00,265.00 215.00,264.00 215.00,264.00
             215.00,264.00 216.00,264.00 216.00,264.00 Z" />
</svg>
