<?xml version="1.0" encoding="UTF-8" standalone="no"?>
<!DOCTYPE svg PUBLIC "-//W3C//DTD SVG 20010904//EN"
              "http://www.w3.org/TR/2001/REC-SVG-20010904/DTD/svg10.dtd">

<svg xmlns="http://www.w3.org/2000/svg"
     width="50" height="50"
     viewBox="0 0 330 330">
  <path id="teleport"
        fill="black" stroke="black" stroke-width="1"
        d="M 135.00,36.00
           C 135.00,36.00 134.00,49.00 134.00,49.00
             124.72,49.75 109.81,52.68 101.00,55.67
             96.83,57.08 90.74,59.35 91.45,64.96
             92.04,69.65 100.02,72.91 104.00,74.09
             114.88,77.30 133.66,79.86 145.00,80.00
             145.00,80.00 162.00,81.00 162.00,81.00
             174.27,81.14 197.91,78.12 210.00,75.35
             215.17,74.16 229.67,70.84 227.34,63.04
             226.17,59.10 220.57,56.59 217.00,55.36
             208.18,52.32 193.35,50.03 184.00,50.00
             184.00,50.00 184.00,36.00 184.00,36.00
             184.00,36.00 135.00,36.00 135.00,36.00 Z
           M 184.00,71.00
           C 184.00,71.00 184.00,57.00 184.00,57.00
             188.32,57.35 198.07,58.69 201.98,60.05
             203.82,60.70 207.10,62.06 206.28,64.63
             205.67,66.55 202.70,67.16 201.00,67.57
             201.00,67.57 184.00,71.00 184.00,71.00 Z
           M 134.00,58.00
           C 134.00,58.00 134.00,72.00 134.00,72.00
             125.55,71.32 116.61,69.96 111.00,63.00
             122.58,58.02 121.28,58.00 134.00,58.00 Z
           M 134.00,89.00
           C 134.00,89.00 134.00,94.00 134.00,94.00
             116.93,94.00 94.93,95.94 79.00,102.31
             73.00,104.71 61.64,109.16 67.25,117.61
             68.84,120.00 72.47,121.49 75.00,122.75
             84.75,127.64 86.33,127.89 97.00,129.75
             128.62,135.25 144.47,135.05 176.00,135.00
             176.00,135.00 188.00,134.09 188.00,134.09
             204.39,132.94 220.33,130.87 236.00,125.67
             241.81,123.74 252.87,121.42 253.85,114.00
             254.65,107.90 243.49,103.59 239.00,101.73
             228.37,97.33 195.75,92.04 184.00,92.00
             184.00,92.00 184.00,89.00 184.00,89.00
             184.00,89.00 134.00,89.00 134.00,89.00 Z
           M 183.00,124.00
           C 183.00,124.00 183.00,102.00 183.00,102.00
             193.39,102.48 206.06,104.31 216.00,107.34
             218.42,108.08 225.46,109.43 225.95,112.22
             226.65,116.19 219.84,118.30 217.00,118.99
             205.17,121.83 195.24,124.00 183.00,124.00 Z
           M 134.00,104.00
           C 134.00,104.00 134.00,124.00 134.00,124.00
             126.44,123.93 102.79,122.03 97.13,118.01
             94.61,116.22 94.12,114.71 93.00,112.00
             93.00,112.00 100.00,108.62 100.00,108.62
             100.00,108.62 134.00,104.00 134.00,104.00 Z
           M 135.00,144.00
           C 135.00,144.00 135.00,151.00 135.00,151.00
             135.00,151.00 104.00,151.00 104.00,151.00
             104.00,151.00 121.58,183.00 121.58,183.00
             121.58,183.00 158.00,247.00 158.00,247.00
             158.00,247.00 160.00,247.00 160.00,247.00
             160.00,247.00 197.40,184.00 197.40,184.00
             201.80,176.66 214.56,157.11 216.00,150.00
             216.00,150.00 185.00,150.00 185.00,150.00
             185.00,150.00 185.00,144.00 185.00,144.00
             185.00,144.00 135.00,144.00 135.00,144.00 Z
           M 161.00,266.00
           C 161.00,266.00 116.00,188.00 116.00,188.00
             116.00,188.00 90.00,193.00 90.00,193.00
             90.00,193.00 35.00,204.00 35.00,204.00
             35.00,204.00 35.00,263.00 35.00,263.00
             35.00,263.00 60.00,269.12 60.00,269.12
             60.00,269.12 103.00,279.37 103.00,279.37
             114.81,282.29 129.02,286.98 141.00,287.00
             141.00,287.00 176.00,287.00 176.00,287.00
             187.35,286.98 214.42,279.92 227.00,277.21
             227.00,277.21 267.00,268.42 267.00,268.42
             270.32,267.69 281.31,265.96 283.40,264.07
             285.38,262.27 285.00,258.46 285.00,256.00
             285.00,256.00 285.00,204.00 285.00,204.00
             285.00,204.00 230.00,192.12 230.00,192.12
             230.00,192.12 214.00,188.58 214.00,188.58
             214.00,188.58 207.18,187.77 207.18,187.77
             207.18,187.77 202.28,193.00 202.28,193.00
             202.28,193.00 194.15,207.00 194.15,207.00
             194.15,207.00 171.72,246.00 171.72,246.00
             171.72,246.00 161.00,266.00 161.00,266.00 Z" />
</svg>
