<?xml version="1.0" encoding="UTF-8" standalone="no"?>
<!DOCTYPE svg PUBLIC "-//W3C//DTD SVG 20010904//EN"
              "http://www.w3.org/TR/2001/REC-SVG-20010904/DTD/svg10.dtd">

<svg xmlns="http://www.w3.org/2000/svg"
     width="4.30556in" height="4.30556in"
     viewBox="0 0 310 310">
  <path id="trap"
        fill="black" stroke="black" stroke-width="1"
        d="M 155.00,44.00
           C 155.00,44.00 150.23,61.00 150.23,61.00
             147.05,71.60 142.58,82.11 137.63,92.00
             129.77,107.73 119.81,119.66 121.09,138.00
             123.46,171.85 170.92,180.07 186.17,150.00
             194.61,133.35 187.65,120.88 180.11,106.00
             180.11,106.00 164.86,74.00 164.86,74.00
             164.86,74.00 155.00,44.00 155.00,44.00 Z
           M 155.00,75.00
           C 154.99,86.35 153.82,86.69 151.66,97.00
             151.66,97.00 149.87,107.00 149.87,107.00
             148.38,113.24 145.90,121.68 147.56,128.00
             150.05,137.53 160.36,144.41 170.00,141.15
             174.95,139.47 177.94,136.00 181.00,132.00
             184.01,140.22 176.22,159.54 157.00,159.99
             152.78,160.08 149.01,159.93 145.00,158.44
             142.22,157.41 139.29,155.67 137.10,153.67
             118.15,136.42 137.07,111.18 145.65,94.00
             148.17,88.95 152.01,78.39 155.00,75.00 Z
           M 152.00,133.00
           C 152.00,133.00 152.00,134.00 152.00,134.00
             152.00,134.00 151.00,133.00 151.00,133.00
             151.00,133.00 152.00,133.00 152.00,133.00 Z
           M 252.00,154.00
           C 252.00,154.00 237.00,190.00 237.00,190.00
             237.00,190.00 235.00,190.00 235.00,190.00
             233.93,184.69 228.95,169.08 226.00,165.00
             226.00,165.00 210.00,198.00 210.00,198.00
             210.00,198.00 201.00,174.00 201.00,174.00
             201.00,174.00 185.00,207.00 185.00,207.00
             185.00,207.00 176.00,182.00 176.00,182.00
             176.00,182.00 168.77,196.00 168.77,196.00
             168.77,196.00 160.00,216.00 160.00,216.00
             137.60,209.65 129.92,242.28 147.00,250.03
             154.22,253.31 163.30,251.91 168.66,245.90
             172.97,241.06 170.88,238.80 178.00,235.83
             178.00,235.83 198.00,228.91 198.00,228.91
             198.00,228.91 250.00,210.09 250.00,210.09
             250.00,210.09 270.00,203.00 270.00,203.00
             270.00,203.00 259.52,173.00 259.52,173.00
             259.52,173.00 252.00,154.00 252.00,154.00 Z
           M 57.00,155.00
           C 57.00,155.00 41.00,203.00 41.00,203.00
             41.00,203.00 71.00,213.86 71.00,213.86
             71.00,213.86 127.00,234.00 127.00,234.00
             128.71,221.89 134.47,210.69 147.00,207.00
             144.75,201.77 138.10,185.64 134.00,183.00
             134.00,183.00 126.00,207.00 126.00,207.00
             126.00,207.00 110.00,172.00 110.00,172.00
             110.00,172.00 100.00,198.00 100.00,198.00
             100.00,198.00 85.00,164.00 85.00,164.00
             79.51,171.58 79.45,183.69 73.00,190.00
             73.00,190.00 67.42,175.00 67.42,175.00
             67.42,175.00 57.00,155.00 57.00,155.00 Z
           M 196.00,187.00
           C 196.00,187.00 196.00,188.00 196.00,188.00
             196.00,188.00 195.00,187.00 195.00,187.00
             195.00,187.00 196.00,187.00 196.00,187.00 Z
           M 155.00,224.65
           C 168.11,226.47 165.83,242.16 155.00,241.90
             145.14,241.66 142.06,226.45 155.00,224.65 Z
           M 168.00,244.00
           C 168.00,244.00 168.00,245.00 168.00,245.00
             168.00,245.00 167.00,244.00 167.00,244.00
             167.00,244.00 168.00,244.00 168.00,244.00 Z" />
</svg>
