<?xml version="1.0" encoding="UTF-8" standalone="no"?>
<!DOCTYPE svg PUBLIC "-//W3C//DTD SVG 20010904//EN"
              "http://www.w3.org/TR/2001/REC-SVG-20010904/DTD/svg10.dtd">

<svg xmlns="http://www.w3.org/2000/svg"
     width="50" height="50"
     viewBox="0 0 300 300">
  <path id="card"
        fill="black" stroke="black" stroke-width="1"
        d="M 179.00,135.00
           C 179.00,135.00 138.00,135.00 138.00,135.00
             126.28,135.02 129.22,137.97 120.00,142.62
             113.69,145.81 105.98,146.84 99.00,145.68
             67.65,140.44 58.90,95.10 92.00,80.43
             99.59,77.18 109.39,77.06 117.00,80.43
             127.97,85.05 126.06,88.98 138.00,89.00
             138.00,89.00 179.00,89.00 179.00,89.00
             179.00,89.00 179.00,69.00 179.00,69.00
             178.99,64.45 179.13,58.87 175.58,55.43
             173.10,53.02 170.22,53.05 167.00,53.00
             167.00,53.00 146.00,53.00 146.00,53.00
             146.00,53.00 45.00,53.00 45.00,53.00
             41.24,53.01 37.35,52.64 34.39,55.43
             31.32,58.33 31.06,62.07 31.00,66.00
             31.00,66.00 31.00,97.00 31.00,97.00
             31.00,97.00 31.00,244.00 31.00,244.00
             31.01,248.16 30.79,252.36 33.65,255.77
             34.89,257.26 36.16,258.05 38.02,258.86
             38.02,258.86 63.00,258.86 63.00,258.86
             63.00,258.86 165.00,258.86 165.00,258.86
             167.78,259.00 171.42,259.21 173.89,257.83
             180.98,253.86 179.00,237.28 179.00,230.00
             179.00,230.00 179.00,135.00 179.00,135.00 Z
           M 158.00,190.00
           C 156.17,195.80 143.11,218.49 139.00,223.00
             139.00,223.00 120.00,190.00 120.00,190.00
             120.00,190.00 131.00,190.00 131.00,190.00
             125.16,180.65 117.58,173.30 106.00,173.01
             100.71,172.89 96.89,173.28 92.00,175.52
             70.45,185.38 67.95,216.66 92.00,228.72
             99.18,232.32 105.40,232.57 113.00,230.23
             118.14,228.64 123.58,223.97 128.57,228.65
             135.55,235.20 126.56,241.30 121.00,243.55
             94.37,254.32 60.37,236.30 60.00,206.00
             59.92,198.92 59.64,193.84 62.09,187.00
             63.84,182.12 66.76,176.89 70.18,173.00
             74.39,168.22 78.32,165.11 84.00,162.27
             92.81,157.87 97.50,157.89 107.00,158.00
             118.09,158.13 128.98,163.07 136.56,171.17
             139.51,174.32 142.24,178.15 144.19,182.00
             145.28,184.15 146.40,187.65 148.41,188.98
             150.49,190.35 155.46,190.00 158.00,190.00 Z" />
      <path id="marker"
        fill="#d36362" stroke="#d36362" stroke-width="1"
        d="M 99.00,89.53
           C 74.60,96.80 76.56,131.32 101.00,135.06
             106.52,135.91 112.12,135.09 117.00,132.27
             125.89,127.14 121.73,124.02 134.00,124.00
             134.00,124.00 226.00,124.00 226.00,124.00
             238.61,124.03 234.90,127.63 244.00,132.59
             250.30,136.01 258.40,136.22 265.00,133.52
             285.29,125.20 282.59,94.20 261.00,89.52
             255.10,88.24 248.15,88.86 243.00,92.13
             236.11,96.51 237.46,99.84 229.00,100.00
             229.00,100.00 134.00,100.00 134.00,100.00
             121.39,99.97 125.10,96.36 116.00,91.41
             110.80,88.59 104.70,88.60 99.00,89.53 Z" />
</svg>
