<?xml version="1.0" encoding="UTF-8" standalone="no"?>
<!DOCTYPE svg PUBLIC "-//W3C//DTD SVG 20010904//EN"
              "http://www.w3.org/TR/2001/REC-SVG-20010904/DTD/svg10.dtd">

<svg xmlns="http://www.w3.org/2000/svg"
     width="50" height="50"
     viewBox="0 0 300 300">
  <path id="card"
        fill="black" stroke="black" stroke-width="1"
        d="M 164.00,133.00
           C 164.00,133.00 123.00,133.00 123.00,133.00
             111.07,133.02 113.88,136.36 104.00,141.18
             98.24,143.99 90.29,144.73 84.00,143.68
             65.69,140.62 52.52,121.14 56.68,103.00
             59.29,91.63 67.44,82.88 78.00,78.34
             86.34,74.75 96.91,75.32 105.00,79.38
             114.22,84.00 111.24,86.98 123.00,87.00
             123.00,87.00 164.00,87.00 164.00,87.00
             164.00,87.00 164.00,66.00 164.00,66.00
             163.99,62.41 164.23,58.22 162.15,55.11
             161.07,53.51 159.77,52.45 157.98,51.74
             154.77,50.46 136.71,51.00 132.00,51.00
             132.00,51.00 30.00,51.00 30.00,51.00
             26.30,51.01 22.30,50.64 19.42,53.43
             16.34,56.40 16.05,61.00 16.00,65.00
             16.00,65.00 16.00,95.00 16.00,95.00
             16.00,95.00 16.00,241.00 16.00,241.00
             16.01,245.55 15.87,251.13 19.42,254.57
             21.90,256.98 24.78,256.95 28.00,257.00
             28.00,257.00 49.00,257.00 49.00,257.00
             49.00,257.00 150.00,257.00 150.00,257.00
             152.84,257.00 156.39,257.21 158.95,255.83
             166.29,251.86 164.00,234.46 164.00,227.00
             164.00,227.00 164.00,133.00 164.00,133.00 Z
           M 77.00,184.00
           C 70.64,181.36 66.34,177.15 59.00,180.23
             42.32,187.21 48.68,210.07 64.00,210.21
             72.61,210.28 80.07,197.52 84.00,191.00
             93.24,175.67 104.56,159.97 125.00,166.04
             128.50,167.08 131.01,168.34 134.00,170.44
             153.07,183.83 150.78,213.20 130.00,223.62
             117.81,229.74 106.91,227.09 96.00,220.00
             96.00,220.00 103.00,207.00 103.00,207.00
             110.49,209.36 115.71,214.16 123.96,208.86
             138.41,199.56 129.04,180.04 116.00,180.21
             109.26,180.30 102.37,189.80 99.05,195.00
             92.51,205.25 87.28,216.74 76.00,222.67
             57.39,232.47 34.36,217.64 33.09,197.00
             32.01,179.38 45.25,164.21 63.00,164.00
             68.27,163.94 82.09,165.09 82.99,172.04
             83.33,174.74 78.54,181.44 77.00,184.00 Z" />
      <path id="marker"
        fill="#d36362" stroke="#d36362" stroke-width="1"
        d="M 232.00,80.00
           C 232.00,80.00 232.00,98.00 232.00,98.00
             232.00,98.00 166.00,98.00 166.00,98.00
             166.00,98.00 117.00,98.00 117.00,98.00
             108.23,97.83 109.65,94.59 102.99,90.48
             96.22,86.30 86.09,85.56 79.00,89.41
             59.42,100.06 63.98,131.60 89.00,133.48
             94.44,133.89 100.70,131.84 104.96,128.47
             107.30,126.63 109.48,123.62 112.09,122.60
             113.91,121.88 117.00,122.00 119.00,122.00
             119.00,122.00 222.00,122.00 222.00,122.00
             224.19,122.00 227.84,121.79 229.69,123.02
             233.17,125.35 232.00,136.93 232.00,141.00
             232.00,141.00 285.00,111.00 285.00,111.00
             280.59,105.99 271.01,101.60 265.00,98.15
             257.61,93.91 238.86,82.17 232.00,80.00 Z" />
</svg>
