<?xml version="1.0" encoding="UTF-8" standalone="no"?>
<!DOCTYPE svg PUBLIC "-//W3C//DTD SVG 20010904//EN"
              "http://www.w3.org/TR/2001/REC-SVG-20010904/DTD/svg10.dtd">

<svg xmlns="http://www.w3.org/2000/svg"
     width="50" height="50"
     viewBox="0 0 300 300">
  <path id="uses"
        fill="black" stroke="black" stroke-width="1"
        d="M 132.00,54.42
           C 123.34,55.66 118.77,55.91 110.00,58.43
             88.98,64.45 69.66,78.90 57.52,97.00
             24.37,146.44 42.34,215.47 97.00,240.69
             108.68,246.08 124.13,249.69 137.00,249.99
             150.16,250.28 165.92,246.74 178.00,241.57
             188.69,237.00 198.76,230.18 207.00,222.00
             247.78,181.51 245.88,114.85 202.00,77.30
             192.37,69.06 180.97,63.03 169.00,59.00
             159.10,55.67 142.35,53.16 132.00,54.42 Z
           M 128.00,68.29
           C 151.29,66.11 173.67,71.44 192.00,86.46
             228.74,116.58 234.19,174.22 200.96,209.00
             193.12,217.21 186.24,222.75 176.00,227.74
             160.52,235.29 149.80,236.19 133.00,236.00
             124.82,235.90 114.58,233.46 107.00,230.40
             75.33,217.60 54.79,187.05 54.01,153.00
             53.82,144.43 55.73,134.16 58.34,126.00
             68.84,93.26 94.58,73.39 128.00,68.29 Z
           M 245.00,121.00
           C 247.07,131.29 249.99,141.40 249.99,152.00
             249.99,162.60 247.07,172.71 245.00,183.00
             251.57,180.98 261.65,166.73 266.41,161.00
             268.24,158.79 271.98,154.95 271.98,152.00
             271.98,149.05 268.24,145.21 266.41,143.00
             261.65,137.27 251.57,123.02 245.00,121.00 Z" />
</svg>
