<?xml version="1.0" encoding="UTF-8" standalone="no"?>
<!DOCTYPE svg PUBLIC "-//W3C//DTD SVG 20010904//EN"
              "http://www.w3.org/TR/2001/REC-SVG-20010904/DTD/svg10.dtd">

<svg xmlns="http://www.w3.org/2000/svg"
     width="50" height="50"
     viewBox="0 0 300 300">
  <path id="card"
        fill="white" stroke="black" stroke-width="2"
        d="M 80.00,77.00
           C 80.00,77.00 80.00,237.00 80.00,237.00
             80.00,237.00 190.00,237.00 190.00,237.00
             190.00,237.00 190.00,77.00 190.00,77.00
             190.00,77.00 80.00,77.00 80.00,77.00 Z" />
   <path id="x"
        fill="#d36362" stroke="black" stroke-width="2"
        d="M 190.00,127.00
           C 190.00,127.00 171.08,105.00 171.08,105.00
             168.20,101.56 164.26,96.34 160.00,94.74
             156.33,93.36 151.61,94.64 148.00,95.72
             138.64,98.53 130.37,103.67 123.00,110.00
             123.00,110.00 150.25,143.00 150.25,143.00
             152.41,145.59 160.29,154.14 160.47,157.00
             160.66,160.10 151.43,169.34 149.00,172.00
             149.00,172.00 124.92,199.00 124.92,199.00
             122.68,201.43 114.03,210.50 113.25,213.00
             112.27,216.11 114.83,218.68 117.04,220.47
             122.06,224.54 128.32,225.91 134.00,222.28
             134.00,222.28 179.00,176.00 179.00,176.00
             182.29,182.17 192.26,193.02 197.25,199.00
             200.20,202.54 203.34,207.19 208.00,208.42
             217.84,211.01 237.00,199.37 244.00,193.00
             239.77,185.76 222.79,166.54 216.42,159.00
             214.42,156.63 206.48,148.09 206.56,145.42
             206.64,143.11 216.07,133.35 218.16,131.00
             218.16,131.00 243.17,103.00 243.17,103.00
             245.52,100.38 252.90,92.94 253.85,90.00
             254.88,86.78 252.25,84.24 249.98,82.34
             244.84,78.04 238.78,76.88 233.00,80.70
             227.80,84.14 221.30,92.29 216.91,97.00
             216.91,97.00 190.00,127.00 190.00,127.00 Z" />
</svg>
