<?xml version="1.0" encoding="UTF-8" standalone="no"?>
<!DOCTYPE svg PUBLIC "-//W3C//DTD SVG 20010904//EN"
              "http://www.w3.org/TR/2001/REC-SVG-20010904/DTD/svg10.dtd">

<svg xmlns="http://www.w3.org/2000/svg"
     width="50" height="50"
     viewBox="0 0 300 300">
  <path id="ranged"
        fill="black" stroke="black" stroke-width="1"
        d="M 52.00,186.00
           C 52.00,186.00 71.28,200.38 71.28,200.38
             71.28,200.38 78.00,224.00 78.00,224.00
             81.97,221.77 94.05,212.76 97.00,212.47
             99.51,212.23 102.77,214.14 105.00,215.25
             105.00,215.25 121.00,223.22 121.00,223.22
             121.00,223.22 184.00,254.25 184.00,254.25
             184.00,254.25 204.00,264.34 204.00,264.34
             209.67,267.57 211.10,270.74 218.00,269.00
             215.95,260.23 210.19,252.18 210.18,243.00
             210.16,229.61 218.24,216.66 213.11,194.00
             207.60,169.62 192.58,153.63 181.00,133.00
             181.00,133.00 208.00,115.00 208.00,115.00
             208.00,115.00 211.00,130.00 211.00,130.00
             211.00,130.00 227.20,105.00 227.20,105.00
             227.20,105.00 242.00,80.00 242.00,80.00
             242.00,80.00 203.00,88.12 203.00,88.12
             203.00,88.12 185.00,93.00 185.00,93.00
             185.00,93.00 198.00,100.00 198.00,100.00
             198.00,100.00 172.00,120.00 172.00,120.00
             172.00,120.00 158.58,103.00 158.58,103.00
             148.80,90.45 135.11,74.85 121.00,67.32
             105.81,59.22 94.41,60.86 80.00,56.84
             69.21,53.83 67.11,48.50 60.00,43.38
             58.15,42.12 54.98,40.42 53.61,43.38
             52.35,46.01 54.50,50.35 55.22,53.00
             55.22,53.00 57.95,73.00 57.95,73.00
             57.95,73.00 66.28,140.00 66.28,140.00
             66.28,140.00 69.83,167.00 69.83,167.00
             69.98,168.99 70.00,171.02 68.98,172.82
             67.28,175.82 55.55,183.26 52.00,186.00 Z
           M 65.98,63.00
           C 84.29,72.66 88.88,69.28 104.00,75.87
             120.53,83.09 133.49,97.37 144.75,111.00
             149.20,116.39 155.50,123.57 158.00,130.00
             158.00,130.00 120.00,156.71 120.00,156.71
             120.00,156.71 103.00,168.40 103.00,168.40
             96.23,171.39 92.16,163.99 87.28,163.47
             84.95,163.22 80.24,166.74 78.00,168.00
             78.00,168.00 74.85,144.00 74.85,144.00
             74.85,144.00 68.72,95.00 68.72,95.00
             68.72,95.00 65.98,73.00 65.98,73.00
             65.98,73.00 65.98,63.00 65.98,63.00 Z
           M 200.00,253.00
           C 200.00,253.00 167.00,236.78 167.00,236.78
             167.00,236.78 105.00,206.00 105.00,206.00
             107.45,203.26 111.90,200.56 112.25,196.96
             112.69,192.48 108.86,187.35 111.64,183.18
             113.16,180.90 121.32,175.49 124.00,173.58
             124.00,173.58 153.00,153.00 153.00,153.00
             155.64,151.12 164.19,144.29 166.96,144.32
             169.82,144.36 171.90,147.91 173.33,150.00
             173.33,150.00 183.85,167.00 183.85,167.00
             192.14,181.51 199.97,196.92 200.00,214.00
             200.02,227.11 198.28,239.95 200.00,253.00 Z" />
</svg>
