<?xml version="1.0" encoding="UTF-8" standalone="no"?>
<!DOCTYPE svg PUBLIC "-//W3C//DTD SVG 20010904//EN"
              "http://www.w3.org/TR/2001/REC-SVG-20010904/DTD/svg10.dtd">

<svg xmlns="http://www.w3.org/2000/svg"
     width="50" height="50 "
     viewBox="0 0 300 300">
  <path id="xp"
        fill="black" stroke="black" stroke-width="1"
        d="M 64.00,67.00
           C 64.00,67.00 69.18,105.00 69.18,105.00
             69.54,108.97 71.52,116.51 69.18,119.91
             67.85,122.30 62.45,126.03 60.00,127.87
             60.00,127.87 40.00,142.85 40.00,142.85
             37.65,144.56 30.20,149.01 30.20,152.00
             30.20,154.92 37.69,159.63 40.00,161.29
             40.00,161.29 60.00,176.13 60.00,176.13
             62.45,177.97 67.85,181.70 69.18,184.09
             71.52,187.49 69.54,195.03 69.18,199.00
             69.18,199.00 64.00,237.00 64.00,237.00
             64.00,237.00 102.00,231.82 102.00,231.82
             105.97,231.46 113.51,229.48 116.91,231.82
             119.30,233.15 123.03,238.55 124.87,241.00
             124.87,241.00 139.71,261.00 139.71,261.00
             141.37,263.31 146.08,270.80 149.00,270.80
             151.99,270.80 156.44,263.35 158.15,261.00
             158.15,261.00 173.13,241.00 173.13,241.00
             174.97,238.55 178.70,233.15 181.09,231.82
             184.49,229.48 192.03,231.46 196.00,231.82
             196.00,231.82 234.00,237.00 234.00,237.00
             234.00,237.00 228.82,199.00 228.82,199.00
             228.46,195.03 226.48,187.49 228.82,184.09
             230.15,181.70 235.55,177.97 238.00,176.13
             238.00,176.13 258.00,161.29 258.00,161.29
             260.31,159.63 267.80,154.92 267.80,152.00
             267.80,149.01 260.35,144.56 258.00,142.85
             258.00,142.85 238.00,127.87 238.00,127.87
             235.55,126.03 230.15,122.30 228.82,119.91
             226.48,116.51 228.46,108.97 228.82,105.00
             228.82,105.00 234.00,67.00 234.00,67.00
             234.00,67.00 196.00,72.18 196.00,72.18
             192.03,72.54 184.49,74.52 181.09,72.18
             178.70,70.85 174.97,65.45 173.13,63.00
             173.13,63.00 158.29,43.00 158.29,43.00
             156.63,40.69 151.92,33.20 149.00,33.20
             146.08,33.20 141.37,40.69 139.71,43.00
             139.71,43.00 124.87,63.00 124.87,63.00
             123.03,65.45 119.30,70.85 116.91,72.18
             113.51,74.52 105.97,72.54 102.00,72.18
             102.00,72.18 64.00,67.00 64.00,67.00 Z" />
</svg>
