<?xml version="1.0" encoding="UTF-8" standalone="no"?>
<!DOCTYPE svg PUBLIC "-//W3C//DTD SVG 20010904//EN"
              "http://www.w3.org/TR/2001/REC-SVG-20010904/DTD/svg10.dtd">

<svg xmlns="http://www.w3.org/2000/svg"
     width="50" height="50"
     viewBox="0 0 300 300">
  <path id="brute"
        fill="black" stroke="black" stroke-width="1"
        d="M 148.00,37.00
           C 148.00,37.00 139.42,96.00 139.42,96.00
             139.42,96.00 128.72,177.00 128.72,177.00
             128.72,177.00 123.91,226.00 123.91,226.00
             123.91,226.00 123.00,236.00 123.00,236.00
             122.97,239.14 122.64,251.59 123.60,253.74
             124.61,256.01 128.02,257.71 130.00,259.34
             134.09,262.69 138.17,268.04 143.00,269.99
             153.24,274.14 159.20,267.31 166.00,261.09
             173.84,253.93 174.98,257.43 175.00,247.00
             175.00,247.00 175.00,236.00 175.00,236.00
             175.00,236.00 174.09,226.00 174.09,226.00
             174.09,226.00 169.28,177.00 169.28,177.00
             169.28,177.00 158.58,96.00 158.58,96.00
             158.58,96.00 150.00,37.00 150.00,37.00
             150.00,37.00 148.00,37.00 148.00,37.00 Z
           M 19.00,76.00
           C 25.24,97.57 15.19,132.26 23.53,151.00
             31.88,169.76 62.92,176.52 76.61,194.00
             81.76,200.57 83.90,211.77 84.00,220.00
             84.00,220.00 83.00,265.00 83.00,265.00
             95.92,267.31 92.17,263.33 102.00,258.38
             105.34,256.69 109.72,256.32 111.26,252.86
             111.26,252.86 113.09,231.00 113.09,231.00
             113.09,231.00 116.96,193.00 116.96,193.00
             118.06,164.77 88.50,154.36 67.00,144.86
             59.58,141.58 49.32,137.67 44.51,131.00
             41.49,126.82 39.69,118.13 38.37,113.00
             35.97,103.67 33.78,96.59 29.22,88.00
             26.64,83.14 23.99,78.58 19.00,76.00 Z
           M 215.00,265.00
           C 215.00,265.00 214.00,220.00 214.00,220.00
             214.10,211.77 216.24,200.57 221.39,194.00
             235.08,176.52 266.12,169.76 274.47,151.00
             282.81,132.26 272.76,97.57 279.00,76.00
             274.01,78.58 271.36,83.14 268.78,88.00
             264.22,96.59 262.03,103.67 259.63,113.00
             258.31,118.13 256.51,126.82 253.49,131.00
             248.68,137.67 238.42,141.58 231.00,144.86
             209.50,154.36 179.94,164.77 181.04,193.00
             181.04,193.00 184.91,231.00 184.91,231.00
             184.91,231.00 186.74,252.86 186.74,252.86
             188.28,256.32 192.66,256.69 196.00,258.38
             205.83,263.33 202.08,267.31 215.00,265.00 Z" />
</svg>
