<?xml version="1.0" encoding="UTF-8" standalone="no"?>
<!DOCTYPE svg PUBLIC "-//W3C//DTD SVG 20010904//EN"
              "http://www.w3.org/TR/2001/REC-SVG-20010904/DTD/svg10.dtd">

<svg xmlns="http://www.w3.org/2000/svg"
     width="50" height="50"
     viewBox="0 0 300 300">
  <path id="circles"
        fill="black" stroke="black" stroke-width="1"
        d="M 134.00,40.21
           C 120.38,42.48 109.47,45.12 97.00,51.37
             62.95,68.43 37.06,106.42 37.00,145.00
             36.97,165.97 38.76,180.83 48.37,200.00
             64.87,232.92 102.51,259.56 140.00,260.00
             161.38,260.25 178.66,258.37 198.00,248.11
             251.27,219.86 272.66,153.93 245.63,100.00
             239.96,88.68 232.92,79.88 224.00,71.00
             214.22,61.26 203.67,54.15 191.00,48.72
             178.95,43.56 165.16,40.02 152.00,40.21
             152.00,40.21 134.00,40.21 134.00,40.21 Z
           M 143.00,50.28
           C 153.21,49.34 169.22,52.38 179.00,55.67
             190.74,59.61 201.53,65.20 211.00,73.30
             250.42,107.04 258.79,165.58 228.25,208.00
             219.42,220.28 209.01,229.39 196.00,236.99
             186.68,242.43 170.76,247.71 160.00,248.83
             160.00,248.83 147.00,249.97 147.00,249.97
             147.00,249.97 139.00,249.17 139.00,249.17
             118.44,247.11 100.19,240.81 84.00,227.54
             41.81,192.95 34.75,129.34 69.46,87.00
             82.95,70.55 101.40,58.75 122.00,53.48
             122.00,53.48 143.00,50.28 143.00,50.28 Z
           M 135.00,62.43
           C 105.06,67.33 81.35,83.43 67.76,111.00
             62.30,122.06 59.02,133.62 59.00,146.00
             58.98,158.23 58.99,166.08 63.08,178.00
             74.16,210.30 105.92,237.59 141.00,238.00
             159.72,238.22 169.84,237.33 187.00,228.75
             197.71,223.39 205.84,216.95 213.83,208.00
             246.54,171.36 240.77,113.77 204.00,82.30
             185.12,66.14 159.47,59.41 135.00,62.43 Z
           M 163.00,226.00
           C 163.00,226.00 183.00,211.71 183.00,211.71
             193.80,202.20 202.82,186.18 205.54,172.00
             214.02,127.78 176.43,83.97 131.00,87.09
             118.89,87.92 106.02,92.19 96.00,99.03
             96.00,99.03 80.00,112.00 80.00,112.00
             82.41,104.45 88.38,98.41 94.00,93.04
             114.72,73.23 147.27,67.01 174.00,77.06
             227.97,97.38 241.83,165.97 201.00,205.99
             190.64,216.13 177.20,223.13 163.00,226.00 Z
           M 195.00,149.00
           C 190.60,143.53 189.96,140.53 183.71,134.29
             171.99,122.56 160.14,118.81 144.00,119.00
             118.40,119.30 95.12,143.64 95.00,169.00
             95.00,169.00 95.00,173.00 95.00,173.00
             95.25,193.73 107.65,207.10 124.00,218.00
             118.41,219.12 109.92,214.83 105.00,212.22
             83.57,200.83 73.73,179.44 74.00,156.00
             74.08,149.59 75.54,142.98 77.81,137.00
             93.17,96.65 145.55,84.58 177.00,114.09
             186.22,122.75 193.93,136.24 195.00,149.00 Z
           M 80.00,112.00
           C 80.00,112.00 80.00,113.00 80.00,113.00
             80.00,113.00 79.00,112.00 79.00,112.00
             79.00,112.00 80.00,112.00 80.00,112.00 Z
           M 151.00,212.00
           C 151.00,212.00 158.82,204.96 158.82,204.96
             163.82,199.51 167.82,190.48 167.82,183.00
             167.82,163.84 148.72,148.01 130.00,151.11
             119.79,152.80 112.65,158.59 107.00,167.00
             105.21,162.35 107.30,157.32 109.32,153.00
             114.82,141.26 125.50,133.18 138.00,130.24
             178.04,120.81 205.61,170.65 176.96,199.99
             169.81,207.31 161.31,211.77 151.00,212.00 Z
           M 132.00,161.30
           C 141.64,160.43 149.97,164.20 154.60,173.00
             161.01,185.19 154.00,202.17 140.00,204.67
             114.62,209.21 103.78,178.60 122.09,165.22
             125.46,162.76 128.01,162.08 132.00,161.30 Z" />
</svg>
