<?xml version="1.0" encoding="UTF-8" standalone="no"?>
<!DOCTYPE svg PUBLIC "-//W3C//DTD SVG 20010904//EN"
              "http://www.w3.org/TR/2001/REC-SVG-20010904/DTD/svg10.dtd">

<svg xmlns="http://www.w3.org/2000/svg"
     width="50" height="50"
     viewBox="0 0 300 300">
  <path id="cragheart"
        fill="black" stroke="black" stroke-width="1"
        d="M 153.00,15.00
           C 153.00,15.00 112.60,66.00 112.60,66.00
             112.60,66.00 86.00,101.00 86.00,101.00
             86.00,101.00 129.00,130.00 129.00,130.00
             134.47,133.66 143.00,140.52 149.00,142.00
             149.00,142.00 174.60,79.00 174.60,79.00
             174.60,79.00 181.15,63.00 181.15,63.00
             182.21,60.51 183.98,56.71 183.59,54.00
             183.09,50.56 177.91,44.91 175.65,42.00
             170.43,35.25 159.03,19.53 153.00,15.00 Z
           M 210.00,60.00
           C 210.00,60.00 201.78,77.00 201.78,77.00
             201.78,77.00 183.74,115.00 183.74,115.00
             181.89,118.83 173.60,133.93 173.70,137.00
             173.85,141.31 181.72,146.22 185.00,148.79
             185.00,148.79 222.00,177.58 222.00,177.58
             225.22,180.08 234.05,188.22 238.00,186.83
             240.95,185.79 244.99,180.42 247.17,178.00
             247.17,178.00 264.16,159.00 264.16,159.00
             266.56,156.32 271.61,151.89 271.17,148.00
             270.91,145.77 267.98,141.95 266.67,140.00
             266.67,140.00 256.33,125.00 256.33,125.00
             256.33,125.00 225.14,80.00 225.14,80.00
             221.04,74.24 215.06,64.29 210.00,60.00 Z
           M 92.00,240.00
           C 92.00,240.00 100.22,223.00 100.22,223.00
             100.22,223.00 118.26,185.00 118.26,185.00
             120.10,181.19 128.40,166.06 128.30,163.01
             128.15,158.80 120.18,153.81 117.00,151.35
             117.00,151.35 80.00,122.58 80.00,122.58
             76.73,120.02 68.09,111.73 64.00,113.17
             61.05,114.21 57.01,119.58 54.83,122.00
             54.83,122.00 37.84,141.00 37.84,141.00
             35.44,143.68 30.39,148.11 30.83,152.00
             31.09,154.23 34.02,158.05 35.33,160.00
             35.33,160.00 45.67,175.00 45.67,175.00
             45.67,175.00 76.86,220.00 76.86,220.00
             80.96,225.76 86.94,235.71 92.00,240.00 Z
           M 152.00,158.00
           C 152.00,158.00 127.58,217.00 127.58,217.00
             127.58,217.00 119.80,236.00 119.80,236.00
             118.93,238.16 116.68,242.92 116.66,245.00
             116.64,248.67 120.96,253.19 123.20,256.00
             123.20,256.00 137.35,274.00 137.35,274.00
             140.70,278.32 143.05,282.45 148.00,285.00
             148.00,285.00 195.65,224.00 195.65,224.00
             195.65,224.00 214.00,199.00 214.00,199.00
             214.00,199.00 176.00,173.28 176.00,173.28
             176.00,173.28 152.00,158.00 152.00,158.00 Z" />
</svg>
