<?xml version="1.0" encoding="UTF-8" standalone="no"?>
<!DOCTYPE svg PUBLIC "-//W3C//DTD SVG 20010904//EN"
              "http://www.w3.org/TR/2001/REC-SVG-20010904/DTD/svg10.dtd">

<svg xmlns="http://www.w3.org/2000/svg"
     width="50" height="50"
     viewBox="0 0 300 300">
  <path id="cthulhu"
        fill="black" stroke="black" stroke-width="1"
        d="M 88.00,141.00
           C 88.00,141.00 101.00,130.08 101.00,130.08
             102.83,128.54 105.95,126.18 106.85,123.96
             107.97,121.20 106.26,119.23 106.31,116.00
             106.37,112.20 110.17,103.85 113.21,101.60
             117.24,98.62 125.76,101.63 130.00,103.39
             132.40,104.38 135.38,105.89 134.95,109.02
             134.37,113.25 123.51,121.96 120.00,124.80
             120.00,124.80 92.00,149.01 92.00,149.01
             89.67,151.29 83.23,157.38 82.06,160.00
             80.15,164.32 86.64,175.74 88.75,180.00
             93.39,189.35 107.49,220.06 109.01,229.00
             110.58,238.20 103.21,253.38 103.83,258.00
             104.30,261.49 110.80,269.54 114.01,270.93
             115.82,271.61 116.33,271.20 118.00,270.93
             118.00,270.93 112.16,251.00 112.16,251.00
             112.56,246.44 117.78,241.62 119.30,237.00
             120.57,233.15 118.96,225.02 117.96,221.00
             116.71,216.00 113.74,211.75 111.82,207.00
             111.82,207.00 101.58,179.00 101.58,179.00
             101.58,179.00 96.39,164.18 96.39,164.18
             96.09,160.58 107.68,152.85 111.00,152.68
             112.26,152.62 112.93,152.92 114.00,153.53
             115.02,154.11 117.05,155.98 117.78,156.84
             127.94,166.39 115.23,175.62 117.78,186.00
             117.78,186.00 135.30,228.00 135.30,228.00
             135.30,228.00 127.20,265.00 127.20,265.00
             127.40,270.51 131.54,272.82 134.30,277.00
             136.27,279.98 137.82,285.47 139.00,289.00
             139.00,289.00 141.00,289.00 141.00,289.00
             146.22,277.50 136.02,272.62 135.64,264.00
             135.38,258.17 145.56,240.06 144.45,230.00
             143.75,223.66 136.70,207.74 134.00,201.00
             132.36,196.90 130.02,192.49 130.33,188.00
             130.33,188.00 131.61,180.00 131.61,180.00
             132.91,173.06 135.37,158.52 142.18,154.65
             143.68,154.19 145.37,154.37 147.00,154.65
             148.11,154.37 149.88,154.26 150.91,154.65
             153.75,155.53 156.11,159.48 157.48,162.00
             159.95,166.54 164.09,184.90 163.70,190.00
             163.22,196.41 149.87,221.81 149.47,231.00
             149.02,241.13 158.62,258.11 158.36,264.00
             157.98,272.62 147.78,277.50 153.00,289.00
             153.00,289.00 155.00,289.00 155.00,289.00
             156.18,285.47 157.73,279.98 159.70,277.00
             162.46,272.82 166.60,270.51 166.80,265.00
             166.80,265.00 158.70,228.00 158.70,228.00
             158.70,228.00 176.22,186.00 176.22,186.00
             178.77,175.62 166.06,166.39 176.22,156.84
             176.95,155.98 178.98,154.11 180.00,153.53
             181.07,152.92 181.74,152.62 183.00,152.68
             186.35,152.85 197.96,160.66 197.64,164.30
             197.64,164.30 192.42,179.00 192.42,179.00
             192.42,179.00 182.18,207.00 182.18,207.00
             180.26,211.75 177.29,216.00 176.04,221.00
             175.04,225.02 173.43,233.15 174.70,237.00
             176.22,241.62 181.44,246.44 181.84,251.00
             181.84,251.00 176.00,270.93 176.00,270.93
             177.67,271.20 178.18,271.61 179.99,270.93
             183.20,269.54 189.70,261.49 190.17,258.00
             190.79,253.38 183.42,238.20 184.99,229.00
             186.51,220.06 200.61,189.35 205.25,180.00
             207.36,175.74 213.85,164.32 211.94,160.00
             210.77,157.38 204.33,151.29 202.00,149.01
             202.00,149.01 174.00,125.00 174.00,125.00
             170.21,121.95 160.14,114.47 159.00,110.00
             157.21,102.98 176.23,98.23 180.79,101.60
             183.83,103.85 187.63,112.20 187.69,116.00
             187.74,119.23 186.03,121.20 187.15,123.96
             188.05,126.18 191.17,128.54 193.00,130.08
             193.00,130.08 206.00,141.00 206.00,141.00
             208.38,127.73 205.24,122.88 206.65,118.00
             208.18,112.72 216.28,103.99 216.27,100.01
             216.26,95.32 209.58,93.65 209.02,88.58
             209.02,88.58 210.96,76.00 210.96,76.00
             211.24,69.03 209.91,67.24 207.69,61.00
             203.02,47.87 200.28,40.73 189.00,31.32
             169.32,14.92 127.41,14.58 107.00,29.76
             96.07,37.89 91.26,46.50 87.00,59.00
             84.67,65.83 82.73,68.42 83.04,76.00
             83.27,81.74 85.94,87.35 84.60,90.41
             83.05,93.95 77.74,95.84 77.73,100.01
             77.72,103.99 85.82,112.72 87.35,118.00
             88.76,122.88 85.62,127.73 88.00,141.00 Z
           M 145.01,120.62
           C 146.72,120.38 147.12,119.99 148.99,120.62
             153.69,122.19 163.67,135.88 153.96,140.30
             149.30,142.42 138.76,142.37 136.35,136.89
             133.88,131.30 140.49,123.05 145.01,120.62 Z" />
</svg>
