<?xml version="1.0" encoding="UTF-8" standalone="no"?>
<!DOCTYPE svg PUBLIC "-//W3C//DTD SVG 20010904//EN"
              "http://www.w3.org/TR/2001/REC-SVG-20010904/DTD/svg10.dtd">

<svg xmlns="http://www.w3.org/2000/svg"
     width="50" height="50"
     viewBox="0 0 330 330">
  <path id="eye"
        fill="black" stroke="black" stroke-width="1"
        d="M 18.00,124.00
           C 17.00,131.62 23.08,132.63 22.97,136.99
             22.85,141.76 15.40,142.22 13.00,150.00
             22.01,149.80 28.24,145.78 32.00,147.20
             36.02,148.73 43.67,158.48 47.04,162.00
             57.03,172.44 68.03,182.47 79.00,191.87
             79.00,191.87 107.00,213.42 107.00,213.42
             131.78,230.96 153.23,240.36 184.00,240.00
             201.25,239.79 220.18,234.32 235.00,225.55
             246.48,218.76 261.20,206.31 275.00,207.09
             275.00,207.09 302.00,209.99 302.00,209.99
             305.37,210.07 312.10,210.73 312.46,205.94
             312.79,201.57 304.54,194.81 301.78,191.00
             301.78,191.00 292.23,176.00 292.23,176.00
             292.23,176.00 272.92,151.00 272.92,151.00
             254.46,128.89 230.84,105.66 203.00,96.08
             189.49,91.43 170.30,89.84 156.00,90.00
             156.00,90.00 146.00,90.91 146.00,90.91
             122.05,92.59 99.09,98.44 77.00,107.85
             66.36,112.39 55.95,117.52 46.00,123.45
             42.99,125.25 34.94,131.37 32.00,131.44
             27.97,131.52 24.98,126.36 18.00,124.00 Z
           M 145.00,112.00
           C 145.00,112.00 129.00,118.88 129.00,118.88
             119.89,124.18 114.51,131.74 110.00,141.00
             106.83,137.60 106.63,135.47 106.00,131.00
             100.98,148.67 116.43,169.22 129.00,180.00
             150.36,198.30 188.68,210.07 213.00,190.62
             222.27,183.21 224.21,178.16 229.00,168.00
             229.00,168.00 233.00,179.00 233.00,179.00
             236.68,166.04 229.17,158.13 226.00,147.00
             233.47,152.35 239.63,159.90 245.39,167.00
             249.11,171.59 252.56,175.15 254.00,181.00
             243.19,183.03 231.89,192.63 222.00,197.74
             202.35,207.91 186.29,213.10 164.00,213.00
             129.56,212.84 94.34,187.22 69.00,166.08
             62.74,160.86 45.21,147.24 42.00,141.00
             75.37,129.43 108.87,112.00 145.00,112.00 Z
           M 179.00,172.00
           C 181.07,163.54 189.73,155.92 185.85,146.00
             180.01,131.02 151.02,125.84 136.00,136.63
             127.78,142.55 125.66,148.89 123.00,158.00
             120.25,154.14 120.01,151.66 120.01,147.00
             120.01,134.96 126.98,127.60 138.00,123.70
             153.89,118.07 178.27,119.55 191.99,129.92
             201.52,137.13 205.40,151.04 197.61,161.00
             192.51,167.51 186.58,169.73 179.00,172.00 Z
           M 159.00,140.00
           C 156.64,148.80 147.38,156.90 152.45,167.00
             155.73,173.53 163.27,177.33 170.00,179.28
             189.67,184.98 211.96,176.57 214.00,154.00
             217.96,156.67 217.99,160.53 217.99,165.00
             217.99,177.77 210.37,184.28 199.00,188.30
             183.64,193.74 158.04,191.96 145.17,181.24
             136.03,173.62 132.70,159.75 140.68,150.09
             144.93,144.95 152.61,141.50 159.00,140.00 Z
           M 173.00,143.90
           C 185.87,147.64 175.27,168.66 166.00,168.55
             160.30,168.48 158.80,162.62 159.68,158.00
             161.05,150.86 165.26,144.43 173.00,143.90 Z" />
</svg>
