<?xml version="1.0" encoding="UTF-8" standalone="no"?>
<!DOCTYPE svg PUBLIC "-//W3C//DTD SVG 20010904//EN"
              "http://www.w3.org/TR/2001/REC-SVG-20010904/DTD/svg10.dtd">

<svg xmlns="http://www.w3.org/2000/svg"
     width="50" height="50"
     viewBox="0 0 300 300">
  <path id="lightning"
        fill="black" stroke="black" stroke-width="1"
        d="M 96.00,148.00
           C 96.00,148.00 160.00,148.00 160.00,148.00
             160.00,148.00 142.25,185.00 142.25,185.00
             142.25,185.00 121.75,227.00 121.75,227.00
             121.75,227.00 104.00,263.00 104.00,263.00
             104.00,263.00 117.00,251.00 117.00,251.00
             117.00,251.00 143.17,223.00 143.17,223.00
             143.17,223.00 153.91,212.00 153.91,212.00
             153.91,212.00 207.09,155.00 207.09,155.00
             207.09,155.00 224.04,137.00 224.04,137.00
             224.04,137.00 235.00,124.00 235.00,124.00
             235.00,124.00 196.00,121.09 196.00,121.09
             196.00,121.09 166.00,119.00 166.00,119.00
             166.00,119.00 178.75,92.00 178.75,92.00
             178.75,92.00 208.00,33.00 208.00,33.00
             201.46,36.09 198.67,40.89 193.91,46.00
             193.91,46.00 177.00,63.00 177.00,63.00
             177.00,63.00 155.99,85.00 155.99,85.00
             155.99,85.00 120.91,121.00 120.91,121.00
             114.57,127.80 99.49,140.63 96.00,148.00 Z
           M 82.00,125.00
           C 82.00,125.00 76.72,143.00 76.72,143.00
             76.72,143.00 64.58,184.00 64.58,184.00
             64.58,184.00 58.00,209.00 58.00,209.00
             58.00,209.00 74.00,206.31 74.00,206.31
             76.01,206.07 79.86,205.22 81.69,206.31
             84.46,207.66 85.41,215.93 86.12,219.00
             86.12,219.00 94.00,255.00 94.00,255.00
             94.00,255.00 96.09,231.00 96.09,231.00
             96.09,231.00 99.00,186.00 99.00,186.00
             99.00,186.00 75.00,188.00 75.00,188.00
             75.00,188.00 80.95,143.00 80.95,143.00
             80.95,143.00 82.00,125.00 82.00,125.00 Z
           M 173.00,208.00
           C 176.86,213.14 182.30,217.07 188.00,220.00
             183.75,225.39 174.03,230.66 168.00,234.67
             168.00,234.67 126.00,262.00 126.00,262.00
             126.00,262.00 135.00,259.42 135.00,259.42
             135.00,259.42 154.00,251.23 154.00,251.23
             154.00,251.23 221.00,222.00 221.00,222.00
             216.84,217.51 207.05,212.62 206.20,209.82
             205.19,206.50 211.73,202.14 214.00,200.25
             220.44,194.86 235.57,182.91 240.00,177.00
             240.00,177.00 212.00,189.75 212.00,189.75
             212.00,189.75 173.00,208.00 173.00,208.00 Z" />
</svg>
