<?xml version="1.0" encoding="UTF-8" standalone="no"?>
<!DOCTYPE svg PUBLIC "-//W3C//DTD SVG 20010904//EN"
              "http://www.w3.org/TR/2001/REC-SVG-20010904/DTD/svg10.dtd">

<svg xmlns="http://www.w3.org/2000/svg"
     width="50" height="50"
     viewBox="0 0 300 300">
  <path id="mindthief"
        fill="black" stroke="black" stroke-width="1"
        d="M 40.00,178.00
           C 37.52,180.88 34.56,183.38 33.15,187.00
             29.22,197.04 38.15,206.72 45.00,212.83
             58.18,224.58 78.37,231.95 96.00,232.00
             96.00,247.31 93.78,251.95 90.00,266.00
             109.90,254.56 123.98,235.38 124.00,212.00
             134.07,211.51 139.41,207.10 141.00,197.00
             146.85,199.80 150.21,202.09 157.00,202.67
             161.93,203.10 165.43,201.16 169.00,201.19
             173.36,201.22 176.71,204.05 186.00,202.56
             203.22,199.79 210.18,185.99 205.00,170.00
             205.00,170.00 219.00,169.22 219.00,169.22
             223.78,169.88 227.01,172.88 237.00,173.00
             247.18,173.12 254.99,171.79 262.91,164.68
             269.67,158.61 270.92,153.24 273.15,145.00
             276.91,131.11 277.50,120.35 270.73,107.00
             266.12,97.91 264.88,99.47 259.38,93.68
             254.78,88.85 254.39,84.10 242.00,76.47
             234.21,71.67 226.66,69.93 225.17,69.02
             221.49,66.75 220.90,63.05 214.00,58.55
             206.49,53.65 202.94,54.80 199.00,52.83
             199.00,52.83 189.00,46.04 189.00,46.04
             182.86,42.57 174.05,40.09 167.00,39.91
             167.00,39.91 156.00,39.91 156.00,39.91
             148.29,38.88 150.87,36.86 138.00,37.00
             129.62,37.10 127.56,39.19 123.00,39.20
             123.00,39.20 110.00,39.20 110.00,39.20
             103.66,39.08 85.88,43.45 80.00,46.04
             71.63,49.73 70.13,54.05 65.83,56.93
             56.73,63.02 50.15,64.34 42.52,74.00
             34.80,83.77 35.99,89.28 33.69,94.00
             31.58,98.34 26.78,101.92 23.93,109.00
             21.13,115.95 22.62,119.86 21.62,122.58
             20.33,126.08 14.03,130.92 14.08,141.00
             14.11,147.24 16.97,149.36 17.88,153.00
             18.65,156.10 17.42,158.45 19.22,164.00
             22.35,173.63 30.45,177.78 40.00,178.00 Z" />
</svg>
