<?xml version="1.0" encoding="UTF-8" standalone="no"?>
<!DOCTYPE svg PUBLIC "-//W3C//DTD SVG 20010904//EN"
              "http://www.w3.org/TR/2001/REC-SVG-20010904/DTD/svg10.dtd">

<svg xmlns="http://www.w3.org/2000/svg"
     width="50" height="50"
     viewBox="0 0 300 300">
  <path id="moon"
        fill="black" stroke="black" stroke-width="1"
        d="M 84.00,66.00
           C 84.00,66.00 94.00,62.52 94.00,62.52
             105.88,58.52 113.69,57.98 126.00,58.00
             136.22,58.02 146.49,60.28 156.00,64.00
             208.03,84.37 231.62,142.51 207.68,193.00
             193.44,223.04 159.53,245.95 126.00,246.00
             126.00,246.00 118.00,246.00 118.00,246.00
             103.74,245.83 96.54,241.39 84.00,238.00
             88.46,243.26 94.90,246.68 101.00,249.75
             114.54,256.57 131.75,261.82 147.00,262.00
             168.80,262.25 189.13,258.19 208.00,246.80
             258.81,216.12 276.59,152.32 248.83,100.00
             243.81,90.54 236.74,80.49 228.99,73.09
             198.25,43.76 153.96,34.05 114.00,48.59
             104.61,52.00 90.44,58.39 84.00,66.00 Z
           M 101.00,83.42
           C 82.59,86.09 70.01,89.37 56.17,103.17
             29.75,129.49 29.75,174.51 56.17,200.83
             68.98,213.60 85.24,219.55 103.00,220.82
             109.73,221.30 122.55,218.65 129.00,216.31
             137.13,213.35 144.66,208.79 151.00,202.91
             189.30,167.35 176.38,103.11 126.00,86.67
             119.58,84.58 107.63,82.68 101.00,83.42 Z" />
</svg>
