<?xml version="1.0" encoding="UTF-8" standalone="no"?>
<!DOCTYPE svg PUBLIC "-//W3C//DTD SVG 20010904//EN"
              "http://www.w3.org/TR/2001/REC-SVG-20010904/DTD/svg10.dtd">

<svg xmlns="http://www.w3.org/2000/svg"
     width="50" height="50"
     viewBox="0 0 300 300">
  <path id="musicNote"
        fill="black" stroke="black" stroke-width="1"
        d="M 118.00,185.00
           C 118.00,185.00 106.00,183.18 106.00,183.18
             88.67,181.95 65.86,194.25 57.09,209.00
             55.23,212.13 53.88,215.46 53.04,219.00
             52.24,222.33 51.93,224.59 52.44,228.00
             55.59,249.04 78.88,252.28 96.00,248.10
             101.97,246.65 107.70,244.21 113.00,241.12
             126.12,233.49 135.34,221.57 134.99,206.00
             134.99,206.00 125.25,148.00 125.25,148.00
             125.25,148.00 121.61,128.00 121.61,128.00
             121.11,125.32 119.95,120.57 121.11,118.09
             123.37,113.28 135.95,108.33 141.00,106.67
             161.99,99.75 181.26,99.75 203.00,100.00
             207.82,100.06 222.23,101.33 225.02,105.30
             226.92,108.01 228.56,125.63 229.05,130.00
             229.05,130.00 232.85,159.00 232.85,159.00
             232.85,159.00 236.00,183.00 236.00,183.00
             232.05,182.28 225.84,180.93 222.00,181.10
             200.29,182.06 171.57,197.78 171.01,222.00
             170.61,239.55 184.17,247.01 200.00,247.91
             222.53,249.19 255.60,229.12 253.82,204.00
             253.82,204.00 250.15,174.00 250.15,174.00
             250.15,174.00 243.28,119.00 243.28,119.00
             243.28,119.00 239.15,85.00 239.15,85.00
             239.15,85.00 236.72,67.04 236.72,67.04
             235.57,63.31 232.26,61.62 229.00,59.89
             222.91,56.67 210.92,53.34 204.00,52.27
             179.78,48.54 150.27,49.21 127.00,57.34
             120.72,59.54 105.24,66.94 101.60,72.17
             99.47,75.24 100.52,78.61 101.08,82.00
             101.08,82.00 104.59,103.00 104.59,103.00
             104.59,103.00 118.00,185.00 118.00,185.00 Z" />
</svg>
