<?xml version="1.0" encoding="UTF-8" standalone="no"?>
<!DOCTYPE svg PUBLIC "-//W3C//DTD SVG 20010904//EN"
              "http://www.w3.org/TR/2001/REC-SVG-20010904/DTD/svg10.dtd">

<svg xmlns="http://www.w3.org/2000/svg"
     width="50" height="50"
     viewBox="0 0 300 300">
  <path id="saw"
        fill="black" stroke="black" stroke-width="1"
        d="M 217.00,114.00
           C 217.00,114.00 247.00,107.00 247.00,107.00
             247.00,107.00 256.00,140.00 256.00,140.00
             256.00,140.00 228.00,148.00 228.00,148.00
             228.00,148.00 234.00,174.00 234.00,174.00
             244.13,170.69 264.37,166.75 271.83,160.32
             287.86,146.50 280.37,129.80 275.58,113.00
             271.80,99.74 269.56,88.06 255.00,82.47
             244.37,78.38 232.31,82.94 222.00,85.86
             219.46,86.58 212.66,87.85 211.67,90.43
             210.96,92.27 212.33,96.10 212.86,98.00
             212.86,98.00 217.00,114.00 217.00,114.00 Z
           M 67.00,218.00
           C 67.00,218.00 60.00,191.00 60.00,191.00
             60.00,191.00 99.00,210.00 99.00,210.00
             99.00,210.00 91.00,182.00 91.00,182.00
             91.00,182.00 130.00,201.00 130.00,201.00
             130.00,201.00 122.00,172.00 122.00,172.00
             122.00,172.00 161.00,192.00 161.00,192.00
             161.00,192.00 153.00,164.00 153.00,164.00
             153.00,164.00 191.00,183.00 191.00,183.00
             191.00,183.00 184.00,156.00 184.00,156.00
             184.00,156.00 222.00,174.00 222.00,174.00
             222.00,174.00 215.86,150.00 215.86,150.00
             215.86,150.00 200.00,93.00 200.00,93.00
             200.00,93.00 154.00,105.29 154.00,105.29
             154.00,105.29 69.00,129.58 69.00,129.58
             69.00,129.58 35.00,139.14 35.00,139.14
             31.00,140.27 22.30,142.29 19.42,144.85
             13.25,150.33 19.31,163.15 21.12,170.00
             21.12,170.00 26.71,190.00 26.71,190.00
             27.35,192.24 28.62,197.76 29.90,199.37
             31.55,201.42 38.37,204.44 41.00,205.75
             47.48,208.99 60.79,216.23 67.00,218.00 Z" />
</svg>
