<?xml version="1.0" encoding="UTF-8" standalone="no"?>
<!DOCTYPE svg PUBLIC "-//W3C//DTD SVG 20010904//EN"
              "http://www.w3.org/TR/2001/REC-SVG-20010904/DTD/svg10.dtd">

<svg xmlns="http://www.w3.org/2000/svg"
     width="50" height="50"
     viewBox="0 0 300 300">
  <path id="scoundrel"
        fill="black" stroke="black" stroke-width="1"
        d="M 140.00,34.00
           C 140.00,34.00 123.05,61.00 123.05,61.00
             123.05,61.00 82.19,125.00 82.19,125.00
             82.19,125.00 66.81,149.00 66.81,149.00
             65.48,151.13 61.49,157.04 60.94,159.00
             60.02,162.27 62.13,166.01 63.42,169.00
             63.42,169.00 72.94,190.00 72.94,190.00
             74.21,194.82 68.47,206.56 67.00,212.00
             67.00,212.00 73.50,208.50 73.50,208.50
             73.50,208.50 84.05,184.00 84.05,184.00
             84.05,184.00 112.00,113.00 112.00,113.00
             112.00,113.00 101.00,151.00 101.00,151.00
             101.00,151.00 120.00,136.13 120.00,136.13
             120.00,136.13 128.99,127.71 128.99,127.71
             128.99,127.71 133.28,101.00 133.28,101.00
             133.28,101.00 142.00,34.00 142.00,34.00
             142.00,34.00 140.00,34.00 140.00,34.00 Z
           M 64.00,254.00
           C 66.54,247.61 64.21,232.88 69.42,228.52
             71.43,226.83 73.21,227.53 76.00,226.40
             82.26,223.86 80.89,221.24 92.00,220.51
             96.72,220.21 101.32,221.99 103.91,221.23
             107.18,220.28 111.27,213.79 113.37,211.00
             113.37,211.00 122.98,200.55 122.98,200.55
             124.14,198.72 124.94,187.67 125.00,185.00
             125.00,185.00 111.29,203.00 111.29,203.00
             111.29,203.00 101.00,219.00 101.00,219.00
             101.00,219.00 94.00,215.00 94.00,215.00
             94.00,215.00 141.00,157.00 141.00,157.00
             141.00,157.00 164.00,129.00 164.00,129.00
             164.00,129.00 137.00,168.00 137.00,168.00
             137.00,168.00 162.00,156.25 162.00,156.25
             162.00,156.25 175.59,148.61 175.59,148.61
             175.59,148.61 180.26,140.00 180.26,140.00
             180.26,140.00 189.86,119.00 189.86,119.00
             189.86,119.00 207.31,81.00 207.31,81.00
             207.31,81.00 216.00,61.00 216.00,61.00
             209.31,63.86 193.39,78.38 187.00,83.87
             187.00,83.87 134.00,128.58 134.00,128.58
             134.00,128.58 113.00,146.25 113.00,146.25
             110.43,148.39 103.46,153.88 101.86,156.42
             100.28,159.38 101.30,163.80 101.86,167.00
             102.63,174.03 106.15,188.09 102.51,194.00
             100.58,197.13 91.42,209.42 88.71,210.98
             84.52,213.39 79.48,210.14 71.00,214.38
             60.07,219.84 55.01,232.40 58.62,244.00
             59.74,247.60 61.96,250.86 64.00,254.00 Z
           M 117.00,241.00
           C 117.00,241.00 140.00,225.34 140.00,225.34
             140.00,225.34 163.00,227.15 163.00,227.15
             163.00,227.15 172.56,227.15 172.56,227.15
             172.56,227.15 182.20,216.00 182.20,216.00
             182.20,216.00 201.88,191.00 201.88,191.00
             201.88,191.00 246.88,134.00 246.88,134.00
             246.88,134.00 265.00,110.00 265.00,110.00
             258.67,111.19 252.74,114.88 247.00,117.75
             247.00,117.75 217.00,132.75 217.00,132.75
             217.00,132.75 161.00,160.75 161.00,160.75
             161.00,160.75 132.28,175.35 132.28,175.35
             128.82,178.01 129.23,182.09 128.92,186.00
             128.92,186.00 126.78,206.00 126.78,206.00
             125.59,212.16 116.81,218.00 112.00,221.80
             110.00,223.38 107.59,225.54 105.00,225.90
             105.00,225.90 95.00,224.19 95.00,224.19
             69.24,222.06 58.88,257.88 81.00,270.47
             83.93,272.14 88.63,273.53 92.00,273.81
             95.05,274.07 98.10,273.45 101.00,272.56
             115.30,268.18 120.32,254.67 117.00,241.00 Z
           M 165.00,128.00
           C 165.00,128.00 165.00,129.00 165.00,129.00
             165.00,129.00 164.00,128.00 164.00,128.00
             164.00,128.00 165.00,128.00 165.00,128.00 Z
           M 200.00,163.00
           C 195.76,167.85 187.20,174.65 182.00,179.13
             182.00,179.13 145.00,211.00 145.00,211.00
             138.27,216.81 120.86,233.07 114.00,236.00
             113.06,234.20 111.67,232.23 112.32,230.09
             113.33,226.78 126.60,217.71 130.00,215.12
             130.00,215.12 177.00,179.12 177.00,179.12
             183.00,174.54 193.35,165.25 200.00,163.00 Z
           M 70.00,266.00
           C 66.03,256.08 60.12,258.36 54.23,251.90
             47.22,243.95 50.34,238.12 54.23,230.00
             54.23,230.00 60.00,218.00 60.00,218.00
             42.60,221.27 35.59,242.05 45.64,256.00
             52.22,265.15 59.71,266.00 70.00,266.00 Z
           M 98.00,233.00
           C 97.98,240.60 97.47,247.46 89.00,250.00
             91.80,240.31 90.20,242.13 90.00,233.00
             90.00,233.00 98.00,233.00 98.00,233.00 Z
           M 82.00,239.00
           C 81.87,244.62 81.57,245.96 79.00,251.00
             77.00,245.95 78.07,242.58 82.00,239.00 Z
           M 107.00,241.00
           C 112.75,249.71 107.98,261.49 98.00,264.36
             92.77,265.87 88.61,264.35 84.00,262.00
             84.00,262.00 95.00,257.15 95.00,257.15
             102.78,251.95 103.10,248.16 107.00,241.00 Z" />
</svg>
