<?xml version="1.0" encoding="UTF-8" standalone="no"?>
<!DOCTYPE svg PUBLIC "-//W3C//DTD SVG 20010904//EN"
              "http://www.w3.org/TR/2001/REC-SVG-20010904/DTD/svg10.dtd">

<svg xmlns="http://www.w3.org/2000/svg"
     width="50" height="50"
     viewBox="0 0 300 300">
  <path id="spellweaver"
        fill="black" stroke="black" stroke-width="1"
        d="M 182.00,37.00
           C 182.00,37.00 183.00,51.00 183.00,51.00
             183.03,68.84 180.46,80.50 173.80,97.00
             170.42,105.37 163.91,117.24 157.00,123.00
             153.50,100.69 128.74,73.16 111.00,60.43
             104.58,55.82 96.58,50.16 89.00,48.00
             89.00,48.00 107.33,67.00 107.33,67.00
             122.28,85.80 127.78,101.82 132.00,125.00
             121.96,121.50 113.58,117.76 103.00,115.42
             77.14,109.72 53.06,111.80 28.00,120.00
             30.89,121.06 41.84,119.99 46.00,120.00
             63.12,120.03 84.30,125.87 99.00,134.60
             104.41,137.82 109.94,141.13 114.00,146.00
             91.69,149.50 64.16,174.26 51.43,192.00
             46.82,198.42 41.16,206.42 39.00,214.00
             39.00,214.00 58.00,195.67 58.00,195.67
             76.80,180.72 92.82,175.22 116.00,171.00
             112.50,181.04 108.76,189.42 106.42,200.00
             100.72,225.86 102.80,249.94 111.00,275.00
             112.06,272.11 110.99,261.16 111.00,257.00
             111.03,239.88 116.87,218.70 125.60,204.00
             128.82,198.59 132.13,193.06 137.00,189.00
             140.50,211.31 165.26,238.84 183.00,251.57
             189.42,256.18 197.42,261.84 205.00,264.00
             195.02,253.45 189.46,249.83 180.75,237.00
             172.40,224.71 167.16,211.43 163.89,197.00
             163.89,197.00 162.00,187.00 162.00,187.00
             172.04,190.50 180.42,194.24 191.00,196.58
             216.86,202.28 240.94,200.20 266.00,192.00
             263.11,190.94 252.16,192.01 248.00,192.00
             230.88,191.97 209.70,186.13 195.00,177.40
             189.59,174.18 184.06,170.87 180.00,166.00
             202.31,162.50 229.84,137.74 242.57,120.00
             247.18,113.58 252.84,105.58 255.00,98.00
             255.00,98.00 236.00,116.33 236.00,116.33
             217.20,131.28 201.18,136.78 178.00,141.00
             178.00,141.00 186.12,118.00 186.12,118.00
             188.98,107.13 191.12,92.21 191.00,81.00
             191.00,81.00 190.03,70.00 190.03,70.00
             189.58,61.77 186.64,43.52 182.00,37.00 Z
           M 144.00,114.00
           C 152.86,123.74 155.99,133.00 156.00,146.00
             166.59,138.84 170.46,134.58 173.00,122.00
             175.66,128.77 170.53,142.14 166.75,148.00
             164.57,151.39 162.77,153.16 160.00,156.00
             178.32,157.48 172.41,156.47 189.00,152.00
             181.61,161.81 168.72,164.99 157.00,165.00
             164.16,175.59 168.42,179.46 181.00,182.00
             174.23,184.66 160.86,179.53 155.00,175.75
             151.61,173.57 149.84,171.77 147.00,169.00
             145.52,187.32 146.53,181.41 151.00,198.00
             141.19,190.61 138.01,177.72 138.00,166.00
             127.41,173.16 123.54,177.42 121.00,190.00
             118.34,183.23 123.47,169.86 127.25,164.00
             129.43,160.61 131.23,158.84 134.00,156.00
             115.68,154.52 121.59,155.53 105.00,160.00
             112.39,150.19 125.28,147.01 137.00,147.00
             129.84,136.41 125.58,132.54 113.00,130.00
             119.77,127.34 133.14,132.47 139.00,136.25
             142.39,138.43 144.16,140.23 146.99,143.00
             146.99,143.00 146.99,127.00 146.99,127.00
             146.99,127.00 144.00,114.00 144.00,114.00 Z" />
</svg>
