<?xml version="1.0" encoding="UTF-8" standalone="no"?>
<!DOCTYPE svg PUBLIC "-//W3C//DTD SVG 20010904//EN"
              "http://www.w3.org/TR/2001/REC-SVG-20010904/DTD/svg10.dtd">

<svg xmlns="http://www.w3.org/2000/svg"
     width="50" height="50"
     viewBox="0 0 300 300">
  <path id="spikey-head"
        fill="black" stroke="black" stroke-width="1"
        d="M 80.00,72.00
           C 70.65,67.15 60.71,62.10 50.00,62.00
             48.61,69.61 47.91,72.07 48.00,80.00
             48.00,80.00 48.51,89.00 48.51,89.00
             48.51,89.00 46.08,101.00 46.08,101.00
             46.08,101.00 46.08,121.00 46.08,121.00
             46.08,121.00 49.10,155.00 49.10,155.00
             49.42,164.55 38.68,166.22 41.47,174.00
             42.64,177.27 51.85,193.32 54.21,195.47
             59.16,199.99 77.21,208.85 84.00,212.25
             87.62,214.06 99.94,221.58 103.25,218.96
             106.65,216.50 102.61,209.75 103.25,202.00
             103.57,194.29 110.35,181.46 113.70,174.00
             115.52,169.94 118.23,164.43 115.82,160.11
             113.78,156.43 109.76,155.91 106.00,155.25
             106.00,155.25 89.00,152.08 89.00,152.08
             86.55,151.66 82.37,151.25 80.60,149.42
             78.96,147.72 79.04,145.19 79.00,143.00
             78.91,137.91 78.40,130.91 83.13,127.62
             86.20,125.47 89.72,126.81 93.00,127.62
             93.00,127.62 116.00,133.37 116.00,133.37
             121.30,134.70 134.21,136.68 137.17,141.13
             139.43,144.63 137.95,149.22 137.17,153.00
             137.17,153.00 135.58,162.00 135.58,162.00
             135.58,162.00 132.60,177.00 132.60,177.00
             130.67,186.67 128.66,195.81 142.00,196.00
             142.00,196.00 164.00,196.00 164.00,196.00
             177.34,195.81 175.33,186.67 173.40,177.00
             173.40,177.00 170.42,162.00 170.42,162.00
             170.42,162.00 168.83,153.00 168.83,153.00
             168.05,149.22 166.57,144.63 168.83,141.13
             171.79,136.68 184.70,134.70 190.00,133.37
             190.00,133.37 213.00,127.62 213.00,127.62
             216.28,126.81 219.80,125.47 222.87,127.62
             227.60,130.91 227.09,137.91 227.00,143.00
             226.96,145.19 227.04,147.72 225.40,149.42
             223.63,151.25 219.45,151.66 217.00,152.08
             217.00,152.08 200.00,155.25 200.00,155.25
             196.24,155.91 192.22,156.43 190.18,160.11
             187.77,164.43 190.48,169.94 192.30,174.00
             195.65,181.46 202.43,194.29 202.75,202.00
             203.39,209.75 199.35,216.50 202.75,218.96
             206.06,221.58 218.38,214.06 222.00,212.25
             228.79,208.85 246.84,199.99 251.79,195.47
             254.15,193.32 263.36,177.27 264.53,174.00
             267.32,166.22 256.58,164.55 256.90,155.00
             256.90,155.00 259.92,121.00 259.92,121.00
             259.92,121.00 259.92,101.00 259.92,101.00
             259.92,101.00 257.49,89.00 257.49,89.00
             257.49,89.00 258.00,80.00 258.00,80.00
             258.09,72.07 257.39,69.61 256.00,62.00
             245.29,62.10 235.35,67.15 226.00,72.00
             224.14,67.69 222.84,64.99 220.31,61.00
             218.46,58.10 213.46,50.34 210.83,48.70
             208.26,47.08 205.68,47.94 203.00,48.70
             197.24,50.41 190.29,53.46 185.00,56.31
             182.84,57.47 179.53,59.85 177.01,59.33
             174.30,58.78 171.68,55.07 170.00,53.00
             166.64,48.86 159.20,38.52 154.00,37.64
             150.55,37.06 147.41,39.83 145.17,42.09
             141.88,45.42 133.04,57.70 129.96,59.01
             126.77,60.37 122.81,57.26 120.00,55.78
             115.67,53.50 103.58,48.08 99.00,47.81
             95.02,47.58 93.34,50.10 91.16,53.00
             86.52,59.16 83.05,64.93 80.00,72.00 Z
           M 107.00,260.00
           C 122.81,263.61 134.00,267.80 151.00,268.00
             161.77,268.12 175.53,266.24 186.00,263.63
             186.00,263.63 199.00,260.00 199.00,260.00
             199.00,260.00 199.00,241.00 199.00,241.00
             198.95,233.28 197.06,232.32 191.00,227.46
             178.46,217.42 165.99,220.00 151.00,220.00
             135.80,220.00 126.65,217.74 114.00,228.29
             107.68,233.56 107.02,233.94 107.00,242.00
             107.00,242.00 107.00,260.00 107.00,260.00 Z" />
</svg>
