<?xml version="1.0" encoding="UTF-8" standalone="no"?>
<!DOCTYPE svg PUBLIC "-//W3C//DTD SVG 20010904//EN"
              "http://www.w3.org/TR/2001/REC-SVG-20010904/DTD/svg10.dtd">

<svg xmlns="http://www.w3.org/2000/svg"
     width="50" height="50"
     viewBox="0 0 300 300">
  <path id="sun"
        fill="black" stroke="black" stroke-width="1"
        d="M 146.00,24.00
           C 146.00,24.00 127.00,74.00 127.00,74.00
             127.00,74.00 83.00,41.00 83.00,41.00
             83.00,41.00 90.00,95.00 90.00,95.00
             90.00,95.00 36.00,88.00 36.00,88.00
             36.00,88.00 69.00,132.00 69.00,132.00
             69.00,132.00 40.00,142.99 40.00,142.99
             40.00,142.99 19.00,152.00 19.00,152.00
             19.00,152.00 40.00,161.01 40.00,161.01
             40.00,161.01 69.00,172.00 69.00,172.00
             69.00,172.00 36.00,216.00 36.00,216.00
             36.00,216.00 90.00,209.00 90.00,209.00
             90.00,209.00 83.00,263.00 83.00,263.00
             83.00,263.00 127.00,230.00 127.00,230.00
             127.00,230.00 137.99,259.00 137.99,259.00
             137.99,259.00 147.00,280.00 147.00,280.00
             147.00,280.00 156.01,259.00 156.01,259.00
             156.01,259.00 167.00,230.00 167.00,230.00
             167.00,230.00 211.00,263.00 211.00,263.00
             211.00,263.00 204.00,209.00 204.00,209.00
             204.00,209.00 258.00,216.00 258.00,216.00
             258.00,216.00 225.00,172.00 225.00,172.00
             225.00,172.00 254.00,161.01 254.00,161.01
             254.00,161.01 275.00,152.00 275.00,152.00
             275.00,152.00 254.00,142.99 254.00,142.99
             254.00,142.99 225.00,132.00 225.00,132.00
             225.00,132.00 258.00,88.00 258.00,88.00
             258.00,88.00 204.00,95.00 204.00,95.00
             204.00,95.00 211.00,41.00 211.00,41.00
             211.00,41.00 167.00,74.00 167.00,74.00
             165.61,66.30 156.60,46.49 153.20,38.00
             151.46,33.65 149.73,26.79 146.00,24.00 Z
           M 144.00,87.29
           C 149.17,86.85 150.10,87.40 155.00,87.95
             199.23,92.92 224.16,140.28 205.51,180.00
             194.45,203.56 174.78,213.89 150.00,216.71
             143.72,217.43 131.03,215.13 125.00,212.95
             92.44,201.14 74.99,166.06 85.04,133.00
             91.42,112.02 107.84,95.68 129.00,89.75
             129.00,89.75 144.00,87.29 144.00,87.29 Z
           M 141.00,112.44
           C 133.56,113.83 126.89,116.41 121.00,121.33
             90.51,146.78 113.18,197.84 153.00,191.56
             186.83,186.23 199.22,143.22 173.00,121.33
             169.41,118.33 163.48,115.15 159.00,113.77
             153.00,111.92 147.19,111.64 141.00,112.44 Z" />
</svg>
