<?xml version="1.0" encoding="UTF-8" standalone="no"?>
<!DOCTYPE svg PUBLIC "-//W3C//DTD SVG 20010904//EN"
              "http://www.w3.org/TR/2001/REC-SVG-20010904/DTD/svg10.dtd">

<svg xmlns="http://www.w3.org/2000/svg"
     width="50" height="50"
     viewBox="0 0 300 300">
  <path id="tinkerer"
        fill="black" stroke="black" stroke-width="1"
        d="M 129.00,57.00
           C 125.99,51.15 119.08,42.49 114.87,37.00
             112.91,34.44 110.49,30.87 107.00,30.52
             103.02,30.13 90.09,38.06 86.00,40.22
             82.20,42.23 73.08,46.01 71.64,50.10
             70.58,53.09 72.53,57.19 73.58,60.00
             74.73,63.09 80.92,79.75 80.67,81.72
             80.43,83.59 73.20,92.13 71.54,93.93
             70.11,95.47 69.09,96.48 66.99,96.98
             66.99,96.98 37.05,93.91 37.05,93.91
             33.45,95.01 32.39,98.80 31.34,102.00
             31.34,102.00 23.32,130.00 23.32,130.00
             22.69,136.15 26.29,136.95 31.00,139.26
             34.93,141.18 49.49,147.54 51.69,149.63
             54.38,152.20 54.80,165.24 56.00,170.00
             50.15,173.01 41.49,179.92 36.00,184.13
             33.44,186.09 29.87,188.51 29.52,192.00
             29.13,195.98 37.06,208.91 39.22,213.00
             41.23,216.81 45.01,225.92 49.10,227.36
             51.73,228.29 55.49,226.85 58.00,225.95
             61.53,224.67 78.33,218.03 80.72,218.33
             82.59,218.57 91.13,225.80 92.93,227.46
             94.47,228.89 95.48,229.91 95.98,232.01
             95.98,232.01 92.91,261.95 92.91,261.95
             94.01,265.55 97.80,266.61 101.00,267.66
             101.00,267.66 129.00,275.68 129.00,275.68
             135.15,276.31 135.95,272.71 138.26,268.00
             140.18,264.07 146.54,249.51 148.63,247.31
             151.20,244.62 164.24,244.20 169.00,243.00
             172.01,248.85 178.92,257.51 183.13,263.00
             185.09,265.56 187.51,269.13 191.00,269.48
             194.98,269.87 207.91,261.94 212.00,259.78
             215.81,257.77 224.92,253.99 226.36,249.90
             227.29,247.27 225.85,243.51 224.95,241.00
             223.67,237.47 217.03,220.67 217.33,218.28
             217.57,216.41 224.80,207.87 226.46,206.07
             227.89,204.53 228.91,203.52 231.01,203.02
             231.01,203.02 260.95,206.09 260.95,206.09
             264.55,204.99 265.61,201.20 266.66,198.00
             266.66,198.00 274.68,170.00 274.68,170.00
             275.31,163.85 271.71,163.05 267.00,160.74
             263.07,158.82 248.51,152.46 246.31,150.37
             243.62,147.80 243.20,134.76 242.00,130.00
             247.85,126.99 256.51,120.08 262.00,115.87
             264.56,113.91 268.13,111.49 268.48,108.00
             268.87,104.02 260.94,91.09 258.78,87.00
             256.77,83.20 252.99,74.08 248.90,72.64
             245.91,71.58 241.81,73.53 239.00,74.58
             235.91,75.73 219.25,81.92 217.28,81.67
             215.41,81.43 206.87,74.20 205.07,72.54
             203.87,71.43 202.93,70.52 202.31,68.96
             200.54,64.52 206.31,42.76 204.98,38.05
             203.94,34.39 200.22,33.39 197.00,32.34
             197.00,32.34 169.00,24.32 169.00,24.32
             162.85,23.69 162.05,27.29 159.74,32.00
             157.82,35.93 151.46,50.49 149.37,52.69
             146.80,55.38 133.76,55.80 129.00,57.00 Z
           M 144.00,69.28
           C 151.13,68.62 152.28,69.20 159.00,69.95
             210.12,75.69 242.48,128.88 225.30,177.00
             213.63,209.70 187.41,226.75 154.00,230.72
             147.96,231.43 139.03,230.35 133.00,229.20
             85.45,220.07 57.54,170.58 72.03,125.00
             80.50,98.35 102.19,78.83 129.00,71.73
             129.00,71.73 144.00,69.28 144.00,69.28 Z
           M 138.00,83.44
           C 107.20,89.20 82.05,114.76 82.00,147.00
             82.00,147.00 82.00,153.00 82.00,153.00
             82.05,185.49 111.07,216.61 144.00,217.00
             157.96,217.16 164.98,217.03 178.00,210.74
             186.42,206.67 194.37,201.24 200.38,194.00
             222.93,166.81 221.58,124.50 194.96,100.29
             179.23,85.98 158.83,80.77 138.00,83.44 Z
           M 145.00,104.29
           C 183.02,100.76 206.90,141.76 188.12,174.00
             185.24,178.96 180.66,183.88 176.00,187.21
             169.21,192.07 161.22,194.71 153.00,195.71
             148.38,196.28 145.51,195.87 141.00,195.08
             113.96,190.32 97.22,163.23 105.04,137.00
             110.90,117.36 125.44,107.27 145.00,104.29 Z" />
</svg>
