<?xml version="1.0" encoding="UTF-8" standalone="no"?>
<!DOCTYPE svg PUBLIC "-//W3C//DTD SVG 20010904//EN"
              "http://www.w3.org/TR/2001/REC-SVG-20010904/DTD/svg10.dtd">

<svg xmlns="http://www.w3.org/2000/svg"
     width="50" height="50"
     viewBox="0 0 300 300">
  <path id="triangle"
        fill="black" stroke="black" stroke-width="1"
        d="M 24.00,49.00
           C 26.05,56.18 41.27,80.96 45.99,89.00
             45.99,89.00 82.00,151.00 82.00,151.00
             88.33,147.71 95.37,132.63 99.15,126.00
             99.15,126.00 129.72,73.00 129.72,73.00
             133.78,65.86 141.15,55.99 142.00,48.00
             142.00,48.00 63.00,48.00 63.00,48.00
             54.47,48.00 30.77,47.08 24.00,49.00 Z
           M 152.00,48.00
           C 152.85,55.99 160.22,65.86 164.28,73.00
             164.28,73.00 194.85,126.00 194.85,126.00
             198.63,132.63 205.67,147.71 212.00,151.00
             212.00,151.00 248.01,89.00 248.01,89.00
             252.73,80.96 267.95,56.18 270.00,49.00
             263.23,47.08 239.53,48.00 231.00,48.00
             231.00,48.00 152.00,48.00 152.00,48.00 Z
           M 107.00,142.00
           C 107.00,142.00 134.00,143.00 134.00,143.00
             134.00,143.00 186.00,143.00 186.00,143.00
             186.00,143.00 173.42,119.00 173.42,119.00
             173.42,119.00 148.00,75.00 148.00,75.00
             141.97,78.18 138.01,88.08 134.58,94.00
             134.58,94.00 107.00,142.00 107.00,142.00 Z
           M 89.62,159.02
           C 87.63,162.25 89.03,163.83 90.73,167.00
             90.73,167.00 99.99,183.00 99.99,183.00
             99.99,183.00 132.28,239.00 132.28,239.00
             132.28,239.00 140.99,254.00 140.99,254.00
             141.94,255.60 143.68,259.06 145.37,259.83
             148.13,261.09 150.13,257.90 151.38,255.98
             151.38,255.98 161.80,238.00 161.80,238.00
             161.80,238.00 195.85,179.00 195.85,179.00
             195.85,179.00 203.94,165.00 203.94,165.00
             204.72,163.49 205.91,161.27 204.87,159.60
             203.64,157.63 199.05,158.00 197.00,158.00
             197.00,158.00 122.00,158.00 122.00,158.00
             122.00,158.00 101.00,158.00 101.00,158.00
             97.17,158.00 93.16,157.50 89.62,159.02 Z" />
</svg>
