<?xml version="1.0" encoding="UTF-8" standalone="no"?>
<!DOCTYPE svg PUBLIC "-//W3C//DTD SVG 20010904//EN"
              "http://www.w3.org/TR/2001/REC-SVG-20010904/DTD/svg10.dtd">

<svg xmlns="http://www.w3.org/2000/svg"
     width="50" height="50"
     viewBox="0 0 300 300">
  <path id="twoMini"
        fill="black" stroke="black" stroke-width="1"
        d="M 213.00,40.00
           C 206.66,46.36 203.91,49.24 199.20,57.00
             191.32,70.00 183.80,84.54 200.00,94.53
             201.92,95.72 204.77,97.21 207.00,97.57
             213.25,98.57 219.03,92.30 222.70,88.00
             226.72,83.30 228.81,80.27 228.98,74.00
             229.32,61.87 222.84,47.21 213.00,40.00 Z
           M 83.09,42.01
           C 74.71,48.09 66.32,68.86 69.97,79.00
             72.23,85.29 81.26,96.20 88.00,97.55
             90.72,98.09 93.57,97.21 96.00,96.00
             98.16,94.92 100.20,93.43 101.98,91.82
             104.06,89.95 106.25,87.64 107.26,85.00
             110.36,76.87 102.57,62.88 98.39,56.00
             96.31,52.59 89.67,42.81 85.92,42.01
             84.23,41.47 83.70,42.03 83.09,42.01 Z
           M 134.00,136.00
           C 124.22,135.52 115.57,130.54 107.00,126.25
             85.20,115.32 63.66,97.23 50.00,77.00
             45.26,79.26 43.48,81.61 40.71,86.00
             35.89,93.63 33.13,106.18 35.63,115.00
             35.63,115.00 51.00,145.00 51.00,145.00
             34.32,138.53 38.30,139.91 24.00,130.00
             22.17,136.45 22.32,158.95 25.07,165.00
             30.75,177.46 48.27,188.69 62.00,189.00
             62.00,189.00 36.00,210.00 36.00,210.00
             47.24,216.37 64.06,220.98 77.00,221.00
             77.00,221.00 90.00,221.00 90.00,221.00
             90.00,221.00 81.00,236.00 81.00,236.00
             81.00,236.00 96.00,241.67 96.00,241.67
             96.00,241.67 105.37,245.56 105.37,245.56
             105.37,245.56 121.00,267.00 121.00,267.00
             121.00,267.00 120.22,254.00 120.22,254.00
             120.08,250.75 121.00,247.04 120.22,244.00
             119.41,238.52 111.25,223.43 108.31,218.00
             108.31,218.00 102.04,206.31 102.04,206.31
             99.25,203.05 85.79,201.37 80.02,197.20
             77.37,195.29 74.42,192.60 75.23,189.00
             75.72,186.84 77.56,184.78 79.10,183.29
             88.61,174.10 90.90,177.25 98.83,186.00
             100.93,188.31 104.38,193.61 107.96,192.66
             110.20,192.08 114.92,186.11 117.01,184.17
             123.81,177.87 139.44,164.61 149.00,164.74
             159.18,164.88 172.71,176.96 179.99,183.42
             182.56,185.71 187.96,192.80 191.00,192.80
             198.08,192.80 203.82,173.55 213.00,178.67
             214.20,179.34 216.86,181.48 217.91,182.44
             219.51,183.90 221.48,185.98 222.32,188.00
             224.02,192.08 221.12,195.09 217.98,197.35
             212.06,201.64 198.80,203.00 195.96,206.31
             195.96,206.31 189.22,219.00 189.22,219.00
             186.30,224.53 178.62,238.35 177.78,244.00
             177.00,247.04 177.92,250.75 177.78,254.00
             177.78,254.00 177.00,267.00 177.00,267.00
             177.00,267.00 192.38,246.28 192.38,246.28
             192.38,246.28 217.00,236.00 217.00,236.00
             217.00,236.00 208.00,221.00 208.00,221.00
             227.89,221.17 244.07,220.17 262.00,210.00
             262.00,210.00 236.00,189.00 236.00,189.00
             250.01,188.69 267.09,177.85 272.93,165.00
             275.68,158.94 275.83,136.46 274.00,130.00
             261.54,138.64 262.13,139.75 247.00,145.00
             247.00,145.00 262.37,115.00 262.37,115.00
             264.84,106.27 262.23,94.68 257.77,87.00
             254.97,82.17 253.13,79.45 248.00,77.00
             233.85,97.97 215.76,112.43 194.00,124.85
             185.58,129.65 173.75,135.52 164.00,136.00
             166.01,126.13 171.29,116.74 176.14,108.00
             177.76,105.08 182.65,96.97 182.35,94.00
             181.92,89.90 173.11,81.00 170.00,78.09
             166.23,74.56 154.74,64.20 150.00,63.52
             145.95,62.95 141.96,66.46 139.00,68.81
             133.22,73.40 118.89,85.58 116.22,92.00
             114.53,96.07 118.85,102.38 120.86,106.00
             125.94,115.15 131.90,125.71 134.00,136.00 Z
           M 140.00,214.00
           C 135.92,219.42 131.48,222.15 125.00,224.00
             125.00,224.00 130.00,237.00 130.00,237.00
             146.93,230.50 152.47,232.55 169.00,237.00
             169.00,237.00 173.00,224.00 173.00,224.00
             166.81,222.23 162.32,219.66 159.00,214.00
             161.96,214.39 173.88,216.97 175.67,216.34
             178.81,215.23 182.60,207.20 182.36,204.00
             182.20,201.87 181.17,200.58 179.85,199.00
             173.02,190.81 160.16,181.34 149.00,181.34
             138.37,181.34 124.59,191.00 118.24,199.00
             116.98,200.58 116.05,201.91 115.96,204.00
             115.83,206.85 119.62,215.30 122.39,216.34
             124.33,217.07 136.54,214.28 140.00,214.00 Z
           M 132.00,258.00
           C 133.78,257.41 137.29,255.93 138.98,255.98
             146.64,256.19 145.01,265.31 144.00,270.00
             144.00,270.00 147.00,271.27 147.00,271.27
             156.95,273.81 150.82,262.88 155.31,258.13
             158.75,254.74 162.11,256.74 166.00,258.13
             170.22,242.99 154.83,241.86 144.00,243.29
             140.71,243.72 135.06,244.88 132.95,247.64
             130.78,250.48 131.29,254.78 132.00,258.00 Z" />
</svg>
