<?xml version="1.0" encoding="UTF-8" standalone="no"?>
<!DOCTYPE svg PUBLIC "-//W3C//DTD SVG 20010904//EN"
              "http://www.w3.org/TR/2001/REC-SVG-20010904/DTD/svg10.dtd">

<svg xmlns="http://www.w3.org/2000/svg"
     width="30" height="30"
     viewBox="0 0 1100 1100">
  <path id="Selection #2"
        fill="none" stroke="black" stroke-width="1"
        d="M 178.00,806.00
           C 178.00,806.00 201.00,793.87 201.00,793.87
             204.24,792.49 210.93,790.91 213.01,788.52
             214.57,786.72 216.24,781.46 217.20,779.00
             217.20,779.00 225.20,759.00 225.20,759.00
             225.20,759.00 252.81,689.00 252.81,689.00
             252.81,689.00 341.19,466.00 341.19,466.00
             341.19,466.00 367.60,399.00 367.60,399.00
             370.53,391.68 375.80,374.89 381.00,370.00
             381.00,370.00 366.67,414.00 366.67,414.00
             366.67,414.00 338.67,498.00 338.67,498.00
             338.67,498.00 324.00,545.00 324.00,545.00
             324.00,545.00 354.00,520.08 354.00,520.08
             354.00,520.08 415.00,468.59 415.00,468.59
             415.00,468.59 444.00,444.13 444.00,444.13
             447.09,441.48 454.21,436.14 456.02,432.96
             457.91,429.63 459.44,412.95 460.13,408.00
             460.13,408.00 467.15,353.00 467.15,353.00
             467.15,353.00 484.28,220.00 484.28,220.00
             484.28,220.00 490.95,169.00 490.95,169.00
             490.95,169.00 505.05,59.00 505.05,59.00
             505.05,59.00 508.42,33.00 508.42,33.00
             508.81,29.86 509.22,25.16 504.90,24.58
             500.24,23.95 497.02,30.74 494.95,34.00
             494.95,34.00 474.34,66.00 474.34,66.00
             474.34,66.00 439.31,121.00 439.31,121.00
             439.31,121.00 385.58,205.00 385.58,205.00
             385.58,205.00 324.69,300.00 324.69,300.00
             324.69,300.00 210.31,479.00 210.31,479.00
             210.31,479.00 164.95,550.00 164.95,550.00
             160.44,557.10 149.39,570.79 150.20,579.00
             150.72,584.34 160.38,602.80 163.14,609.00
             163.14,609.00 195.26,678.00 195.26,678.00
             195.26,678.00 206.14,701.00 206.14,701.00
             208.21,705.65 210.32,709.76 209.89,715.00
             209.54,719.36 202.40,737.71 200.42,743.00
             200.42,743.00 186.31,782.00 186.31,782.00
             186.31,782.00 178.00,806.00 178.00,806.00 Z
           M 177.00,991.00
           C 173.67,973.33 173.92,973.86 174.00,956.00
             174.07,940.56 179.78,926.53 180.20,922.00
             180.20,922.00 179.04,907.00 179.04,907.00
             179.42,895.25 184.65,876.91 192.53,868.10
             199.47,860.33 207.81,872.47 214.00,870.72
             215.91,870.18 224.39,863.14 227.00,861.35
             227.00,861.35 248.73,849.04 248.73,849.04
             252.38,846.06 251.66,842.02 255.22,840.64
             258.55,839.34 262.89,842.31 270.00,841.91
             270.00,841.91 295.00,839.00 295.00,839.00
             303.17,838.96 312.02,839.66 320.00,841.42
             320.00,841.42 337.00,846.00 337.00,846.00
             339.63,846.86 343.04,848.34 345.70,846.94
             348.19,845.62 355.02,835.81 357.13,833.00
             357.13,833.00 382.21,800.00 382.21,800.00
             382.21,800.00 410.09,764.34 410.09,764.34
             413.60,761.28 416.56,760.45 421.00,759.61
             423.07,759.22 426.61,759.10 427.98,757.40
             429.71,755.25 430.79,738.74 431.17,735.00
             431.17,735.00 437.00,676.00 437.00,676.00
             431.31,681.10 413.67,707.03 408.00,715.00
             408.00,715.00 355.71,788.00 355.71,788.00
             355.71,788.00 334.86,817.00 334.86,817.00
             333.21,819.31 328.22,827.09 325.83,827.80
             323.32,828.55 320.76,825.74 319.00,824.29
             313.48,819.76 308.45,816.11 302.00,813.00
             302.00,813.00 330.00,778.00 330.00,778.00
             330.00,778.00 386.39,708.00 386.39,708.00
             386.39,708.00 506.39,559.00 506.39,559.00
             506.39,559.00 574.00,475.00 574.00,475.00
             574.00,475.00 595.00,449.00 595.00,449.00
             595.00,449.00 609.00,433.00 609.00,433.00
             609.00,433.00 596.37,452.00 596.37,452.00
             596.37,452.00 577.71,478.00 577.71,478.00
             577.71,478.00 509.00,574.00 509.00,574.00
             509.00,574.00 490.29,600.00 490.29,600.00
             490.29,600.00 480.00,616.00 480.00,616.00
             480.00,616.00 525.00,594.25 525.00,594.25
             525.00,594.25 606.00,554.25 606.00,554.25
             606.00,554.25 641.00,536.75 641.00,536.75
             644.83,534.84 654.86,530.36 657.37,527.61
             659.89,524.85 667.09,508.41 669.00,504.00
             669.00,504.00 687.31,464.00 687.31,464.00
             687.31,464.00 750.14,327.00 750.14,327.00
             750.14,327.00 814.69,186.00 814.69,186.00
             814.69,186.00 830.69,151.00 830.69,151.00
             832.38,147.17 834.32,139.08 826.98,140.49
             823.66,141.13 818.71,145.98 816.00,148.25
             816.00,148.25 793.00,167.59 793.00,167.59
             793.00,167.59 705.00,241.75 705.00,241.75
             705.00,241.75 576.00,350.58 576.00,350.58
             576.00,350.58 437.00,467.73 437.00,467.73
             437.00,467.73 362.00,530.92 362.00,530.92
             362.00,530.92 339.00,550.27 339.00,550.27
             335.72,553.07 330.13,557.37 328.14,561.00
             325.50,565.80 326.66,570.89 327.42,576.00
             327.42,576.00 330.27,597.00 330.27,597.00
             330.27,597.00 338.28,656.00 338.28,656.00
             338.28,656.00 342.05,683.00 342.05,683.00
             343.28,694.00 347.76,705.95 341.44,716.00
             341.44,716.00 295.13,777.00 295.13,777.00
             295.13,777.00 282.37,794.00 282.37,794.00
             280.79,796.11 278.34,799.77 275.91,800.81
             273.58,801.79 270.43,800.68 268.00,800.28
             262.81,799.43 259.28,799.01 254.00,799.00
             254.00,799.00 242.00,799.00 242.00,799.00
             211.28,799.05 179.28,816.83 160.90,841.00
             134.31,875.96 131.25,920.08 150.75,959.00
             155.97,969.41 166.75,985.50 177.00,991.00 Z
           M 1040.98,353.75
           C 1035.32,354.96 1030.15,358.18 1025.00,360.75
             1025.00,360.75 997.00,374.75 997.00,374.75
             997.00,374.75 905.00,420.75 905.00,420.75
             905.00,420.75 865.00,440.25 865.00,440.25
             865.00,440.25 688.00,528.75 688.00,528.75
             688.00,528.75 617.00,563.75 617.00,563.75
             617.00,563.75 505.00,619.75 505.00,619.75
             505.00,619.75 472.00,635.75 472.00,635.75
             468.04,637.73 460.16,641.16 457.39,644.21
             454.28,647.63 454.02,651.65 453.42,656.00
             453.42,656.00 450.93,681.00 450.93,681.00
             450.93,681.00 442.16,765.00 442.16,765.00
             440.95,776.32 441.84,790.52 432.96,798.71
             432.96,798.71 412.00,815.80 412.00,815.80
             412.00,815.80 377.00,844.25 377.00,844.25
             377.00,844.25 360.00,858.08 360.00,858.08
             357.94,859.79 353.36,863.86 351.00,864.63
             347.50,865.76 338.79,861.04 335.00,859.69
             324.46,855.94 311.19,853.13 300.00,853.00
             254.01,852.47 212.52,878.86 195.40,922.00
             191.76,931.16 188.12,945.17 188.00,955.00
             187.80,972.58 187.74,981.94 193.69,999.00
             205.82,1033.77 234.14,1060.12 270.00,1068.87
             276.02,1070.34 284.86,1071.92 291.00,1072.00
             310.35,1072.22 323.97,1070.96 342.00,1062.96
             380.54,1045.87 406.82,1006.23 407.00,964.00
             407.03,957.19 406.10,948.73 404.92,942.00
             404.47,939.47 402.66,933.53 403.46,931.43
             404.65,928.26 418.56,917.76 422.00,915.00
             422.00,915.00 468.00,877.60 468.00,877.60
             474.14,872.69 486.12,861.77 493.00,859.85
             498.14,858.31 501.04,859.52 506.00,859.85
             506.00,859.85 534.00,862.83 534.00,862.83
             534.00,862.83 606.00,870.17 606.00,870.17
             606.00,870.17 632.00,872.96 632.00,872.96
             644.51,873.44 648.03,864.71 655.00,856.00
             655.00,856.00 696.80,803.00 696.80,803.00
             696.80,803.00 874.42,578.00 874.42,578.00
             874.42,578.00 1008.00,409.00 1008.00,409.00
             1008.00,409.00 1039.58,369.00 1039.58,369.00
             1042.66,365.03 1051.06,355.00 1040.98,353.75 Z
           M 760.00,587.00
           C 756.97,592.88 739.94,606.18 734.00,611.27
             734.00,611.27 676.00,661.13 676.00,661.13
             676.00,661.13 472.00,836.58 472.00,836.58
             472.00,836.58 418.00,883.00 418.00,883.00
             418.00,883.00 401.00,897.58 401.00,897.58
             399.31,899.03 394.82,903.20 393.04,903.83
             389.87,904.97 388.26,902.18 386.66,899.98
             386.66,899.98 372.00,882.00 372.00,882.00
             372.00,882.00 411.00,852.42 411.00,852.42
             411.00,852.42 471.00,806.42 471.00,806.42
             471.00,806.42 649.00,670.12 649.00,670.12
             649.00,670.12 726.00,611.12 726.00,611.12
             726.00,611.12 746.00,595.79 746.00,595.79
             750.56,592.22 754.32,588.54 760.00,587.00 Z
           M 198.00,1038.00
           C 196.17,1032.24 193.17,1029.02 190.06,1024.00
             188.39,1021.28 186.28,1016.62 184.37,1014.52
             182.38,1012.33 176.73,1008.86 174.00,1006.84
             174.00,1006.84 162.00,997.75 162.00,997.75
             162.00,997.75 149.00,992.69 149.00,992.69
             139.30,988.32 132.27,982.95 125.17,975.00
             108.67,956.52 103.59,930.20 112.23,907.00
             117.25,893.51 123.57,888.18 126.16,883.00
             126.16,883.00 136.26,855.00 136.26,855.00
             139.91,847.52 145.61,838.49 150.81,832.00
             150.81,832.00 159.00,822.00 159.00,822.00
             148.65,823.40 137.36,827.14 128.00,831.76
             66.41,862.12 47.81,941.26 88.74,996.00
             108.14,1021.94 135.15,1035.98 167.00,1039.17
             171.54,1039.62 173.10,1040.10 178.00,1039.99
             178.00,1039.99 198.00,1038.00 198.00,1038.00 Z
           M 279.00,969.00
           C 284.53,952.39 286.03,944.49 286.00,927.00
             285.98,913.55 282.81,907.74 281.00,896.00
             289.13,893.95 297.69,893.29 306.00,894.59
             308.53,894.99 313.39,895.42 314.98,897.56
             316.13,899.12 316.18,903.96 316.26,906.00
             317.01,926.39 308.59,946.78 292.99,960.08
             288.39,963.99 284.71,966.89 279.00,969.00 Z
           M 245.00,920.00
           C 245.00,935.86 245.79,945.00 238.68,960.00
             236.42,964.77 233.67,970.30 229.14,973.00
             229.14,973.00 229.14,952.00 229.14,952.00
             230.86,939.97 236.39,929.92 243.00,920.00
             243.00,920.00 245.00,920.00 245.00,920.00 Z
           M 356.00,928.00
           C 361.34,934.72 363.95,944.61 365.13,953.00
             368.92,980.01 356.76,1007.38 333.00,1021.55
             313.40,1033.23 287.62,1034.47 267.00,1024.68
             263.01,1022.79 259.65,1020.43 256.00,1018.00
             256.00,1018.00 270.00,1015.34 270.00,1015.34
             277.51,1013.71 286.01,1010.89 293.00,1007.69
             315.88,997.21 335.73,977.63 346.74,955.00
             352.49,943.18 354.01,932.31 356.00,928.00 Z" />
</svg>
