<?xml version="1.0" encoding="UTF-8" standalone="no"?>
<!DOCTYPE svg PUBLIC "-//W3C//DTD SVG 20010904//EN"
              "http://www.w3.org/TR/2001/REC-SVG-20010904/DTD/svg10.dtd">

<svg xmlns="http://www.w3.org/2000/svg"
     width="2.22222in" height="2.22222in"
     viewBox="0 0 200 200">
  <path id="pawn-1"
        fill="black" stroke="black" stroke-width="1"
        d="M 55.00,13.46
           C 39.42,16.93 29.19,28.89 29.00,45.00
             28.89,54.93 29.33,62.99 36.21,71.00
             45.04,81.27 59.26,83.06 72.00,80.68
             92.21,76.89 99.73,48.96 92.10,32.00
             85.13,16.52 70.99,11.25 55.00,13.46 Z
           M 27.00,188.00
           C 27.00,188.00 96.00,188.00 96.00,188.00
             96.00,188.00 96.00,123.00 96.00,123.00
             95.96,113.92 94.60,103.02 87.70,96.47
             78.25,87.50 53.43,86.91 42.00,92.19
             38.27,93.91 35.04,96.68 32.64,100.00
             26.26,108.84 27.00,120.67 27.00,131.00
             27.00,131.00 27.00,188.00 27.00,188.00 Z" />
  <path id="pawn-2"
        fill="#dc3545" stroke="black" stroke-width="1"
        d="M 133.00,13.46
           C 117.42,16.93 107.19,28.89 107.00,45.00
             106.89,54.93 107.33,62.99 114.21,71.00
             123.04,81.27 137.26,83.06 150.00,80.68
             170.21,76.89 177.73,48.96 170.10,32.00
             163.13,16.52 148.99,11.25 133.00,13.46 Z
           M 105.00,188.00
           C 105.00,188.00 174.00,188.00 174.00,188.00
             174.00,188.00 174.00,123.00 174.00,123.00
             173.96,113.92 172.60,103.02 165.70,96.47
             156.25,87.50 131.43,86.91 120.00,92.19
             116.27,93.91 113.04,96.68 110.64,100.00
             104.26,108.84 105.00,120.67 105.00,131.00
             105.00,131.00 105.00,188.00 105.00,188.00 Z" />
</svg>
