<?xml version="1.0" encoding="UTF-8" standalone="no"?>
<!DOCTYPE svg PUBLIC "-//W3C//DTD SVG 20010904//EN"
              "http://www.w3.org/TR/2001/REC-SVG-20010904/DTD/svg10.dtd">

<svg xmlns="http://www.w3.org/2000/svg"
     width="50" height="50"
     viewBox="0 0 300 300">
  <path id="inbound"
        fill="#b4252b" stroke="#b4252b" stroke-width="1"
        d="M 145.00,35.87
           C 145.00,35.87 114.00,53.40 114.00,53.40
             114.00,53.40 73.00,77.00 73.00,77.00
             69.10,79.24 53.80,87.39 52.02,90.33
             50.78,92.37 51.00,95.65 51.00,98.00
             51.00,98.00 51.00,194.00 51.00,194.00
             51.02,204.07 52.17,202.87 66.00,210.99
             66.00,210.99 107.00,234.58 107.00,234.58
             107.00,234.58 136.00,251.40 136.00,251.40
             139.61,253.54 144.66,257.34 149.00,256.13
             149.00,256.13 172.00,243.28 172.00,243.28
             172.00,243.28 223.00,213.85 223.00,213.85
             226.66,211.76 240.25,204.52 241.98,201.67
             243.22,199.63 243.00,196.35 243.00,194.00
             243.00,194.00 243.00,98.00 243.00,98.00
             242.98,87.93 241.83,89.13 228.00,81.01
             228.00,81.01 186.00,56.85 186.00,56.85
             186.00,56.85 158.00,40.72 158.00,40.72
             153.45,38.13 150.41,35.14 145.00,35.87 Z" />

      <path id="outbound"
        fill="black" stroke="black" stroke-width="1"
        d="M 144.00,2.70
           C 144.00,2.70 114.00,19.72 114.00,19.72
             114.00,19.72 49.00,57.15 49.00,57.15
             49.00,57.15 31.00,67.58 31.00,67.58
             28.19,69.19 23.64,71.36 22.02,74.18
             20.80,76.33 21.00,79.57 21.00,82.00
             21.00,82.00 21.00,210.00 21.00,210.00
             21.00,211.97 20.88,215.12 21.60,216.91
             23.32,221.21 34.72,226.50 39.00,229.01
             39.00,229.01 94.00,260.85 94.00,260.85
             94.00,260.85 133.00,283.28 133.00,283.28
             138.04,286.15 143.96,291.19 150.00,289.30
             152.42,288.54 158.40,284.76 161.00,283.28
             161.00,283.28 184.00,270.01 184.00,270.01
             184.00,270.01 246.00,234.28 246.00,234.28
             246.00,234.28 264.00,223.85 264.00,223.85
             266.62,222.35 270.45,220.49 271.98,217.82
             273.20,215.67 273.00,212.43 273.00,210.00
             273.00,210.00 273.00,82.00 273.00,82.00
             273.00,80.03 273.12,76.88 272.40,75.09
             270.68,70.79 259.28,65.50 255.00,62.99
             255.00,62.99 200.00,31.20 200.00,31.20
             200.00,31.20 162.00,9.28 162.00,9.28
             155.94,5.83 151.19,1.27 144.00,2.70 Z
           M 146.00,10.49
           C 152.24,10.62 157.72,15.28 163.00,18.28
             163.00,18.28 199.00,39.00 199.00,39.00
             199.00,39.00 248.00,67.28 248.00,67.28
             251.61,69.33 262.94,74.97 264.43,78.33
             265.14,79.93 265.00,83.19 265.00,85.00
             265.00,85.00 265.00,207.00 265.00,207.00
             265.00,209.24 265.24,212.56 264.01,214.47
             262.70,216.49 258.17,218.91 256.00,220.15
             256.00,220.15 240.00,229.28 240.00,229.28
             240.00,229.28 175.00,266.85 175.00,266.85
             175.00,266.85 157.00,277.28 157.00,277.28
             154.55,278.67 150.72,281.16 148.00,281.51
             143.82,282.03 136.69,277.16 133.00,274.99
             133.00,274.99 99.00,255.28 99.00,255.28
             99.00,255.28 46.00,224.72 46.00,224.72
             42.39,222.67 31.06,217.03 29.57,213.67
             28.86,212.07 29.00,208.81 29.00,207.00
             29.00,207.00 29.00,85.00 29.00,85.00
             29.00,82.76 28.76,79.44 29.99,77.53
             31.30,75.51 35.83,73.09 38.00,71.85
             38.00,71.85 55.00,62.15 55.00,62.15
             55.00,62.15 118.00,25.72 118.00,25.72
             124.15,22.22 140.43,12.00 146.00,10.49 Z" />
</svg>
