<?xml version="1.0" encoding="UTF-8" standalone="no"?>
<!DOCTYPE svg PUBLIC "-//W3C//DTD SVG 20010904//EN"
              "http://www.w3.org/TR/2001/REC-SVG-20010904/DTD/svg10.dtd">

<svg xmlns="http://www.w3.org/2000/svg"
     width="50" height="50"
     viewBox="0 0 300 300">
  <path id="multiple"
        fill="black" stroke="black" stroke-width="1"
        d="M 135.00,33.42
           C 123.23,35.10 116.76,35.43 105.00,39.35
             78.96,48.04 56.46,66.46 42.45,90.00
             5.26,152.51 33.77,233.90 102.00,259.58
             113.28,263.82 128.95,266.86 141.00,267.00
             158.84,267.20 177.97,263.13 194.00,255.24
             205.55,249.56 217.96,241.34 226.83,231.96
             274.87,181.15 270.37,99.69 214.00,56.90
             202.75,48.36 189.59,41.71 176.00,37.86
             164.04,34.47 147.34,31.92 135.00,33.42 Z
           M 139.00,61.28
           C 146.97,60.55 159.17,62.62 167.00,64.63
             176.21,67.00 186.21,71.76 194.00,77.21
             246.39,113.88 243.73,194.49 188.00,226.57
             178.23,232.20 166.25,236.58 155.00,237.83
             155.00,237.83 143.00,238.97 143.00,238.97
             143.00,238.97 135.00,238.16 135.00,238.16
             114.19,235.94 96.34,228.52 81.01,213.91
             45.82,180.36 45.88,122.85 79.09,88.01
             91.91,74.57 109.83,65.84 128.00,62.61
             128.00,62.61 139.00,61.28 139.00,61.28 Z
           M 131.00,77.44
           C 97.76,83.58 70.05,111.13 70.00,146.00
             69.98,157.63 69.63,163.61 73.70,175.00
             82.83,200.59 109.18,222.67 137.00,223.00
             154.38,223.20 162.06,222.99 178.00,214.74
             217.52,194.30 228.64,139.72 201.33,105.00
             183.99,82.95 158.42,73.92 131.00,77.44 Z
           M 140.00,108.29
           C 163.70,106.29 184.92,126.30 184.92,150.00
             184.92,163.05 178.23,175.59 168.00,183.47
             161.61,188.40 153.92,190.78 146.00,191.71
             142.01,192.19 138.90,191.64 135.00,190.91
             110.63,186.29 96.01,161.56 103.04,138.00
             108.44,119.91 122.15,111.01 140.00,108.29 Z" />
</svg>
