<?xml version="1.0" encoding="UTF-8" standalone="no"?>
<!DOCTYPE svg PUBLIC "-//W3C//DTD SVG 20010904//EN"
              "http://www.w3.org/TR/2001/REC-SVG-20010904/DTD/svg10.dtd">

<svg xmlns="http://www.w3.org/2000/svg"
     width="50" height="50"
     viewBox="0 0 300 300">
  <path id="bless"
        fill="#cb9e31" stroke="#cb9e31" stroke-width="1"
        d="M 151.00,12.08
           C 145.74,15.45 141.42,20.58 137.00,25.00
             137.00,25.00 115.00,47.00 115.00,47.00
             115.00,47.00 45.00,117.00 45.00,117.00
             45.00,117.00 21.00,141.00 21.00,141.00
             18.60,143.40 12.63,148.53 12.63,152.00
             12.63,155.15 16.90,158.89 19.00,161.00
             19.00,161.00 39.00,181.00 39.00,181.00
             39.00,181.00 121.00,263.00 121.00,263.00
             121.00,263.00 144.00,286.00 144.00,286.00
             146.74,288.72 150.65,293.72 155.00,291.92
             157.57,290.86 163.73,284.27 166.00,282.00
             166.00,282.00 187.00,261.00 187.00,261.00
             187.00,261.00 262.00,186.00 262.00,186.00
             262.00,186.00 286.00,162.00 286.00,162.00
             288.26,159.74 293.37,155.33 293.37,152.00
             293.37,148.85 289.10,145.11 287.00,143.00
             287.00,143.00 267.00,123.00 267.00,123.00
             267.00,123.00 185.00,41.00 185.00,41.00
             185.00,41.00 163.00,19.00 163.00,19.00
             159.24,15.25 156.66,11.02 151.00,12.08 Z
           M 150.00,66.31
           C 151.62,66.21 152.29,66.02 154.00,66.31
             164.09,67.47 163.41,74.94 170.04,77.52
             180.77,81.69 185.54,81.70 196.00,89.04
             214.76,102.21 227.73,124.84 228.00,148.00
             228.10,156.56 227.83,160.54 225.99,169.00
             225.99,169.00 224.35,176.00 224.35,176.00
             222.84,183.09 229.58,186.68 224.35,195.98
             219.75,204.92 212.24,201.34 207.00,204.59
             207.00,204.59 194.00,214.56 194.00,214.56
             182.17,222.10 165.13,227.51 151.00,226.96
             139.18,226.50 125.25,222.90 115.00,216.99
             115.00,216.99 99.00,205.67 99.00,205.67
             95.83,203.95 93.81,205.10 90.00,204.04
             83.44,202.22 78.76,195.85 79.56,189.00
             79.56,189.00 81.75,180.00 81.75,180.00
             81.76,177.69 77.13,165.10 77.00,154.00
             76.69,126.91 87.79,102.72 111.00,87.70
             123.01,79.93 132.44,78.80 135.90,77.15
             141.81,74.33 139.11,69.65 150.00,66.31 Z
           M 91.00,177.00
           C 98.31,176.26 105.28,180.56 106.97,188.00
             108.55,194.97 103.04,196.75 111.02,203.53
             130.43,220.04 160.67,221.80 183.00,210.63
             190.51,206.87 195.10,202.84 201.00,197.00
             197.43,188.94 197.66,182.12 206.01,177.01
             211.30,173.77 214.02,176.66 216.24,170.95
             217.85,166.80 218.94,158.51 219.00,154.00
             219.24,132.96 212.31,114.28 196.00,100.30
             189.87,95.04 182.62,91.00 175.00,88.34
             172.72,87.55 168.61,85.93 166.28,86.66
             163.10,87.68 160.44,92.95 154.00,93.77
             143.59,95.10 142.99,85.02 134.99,86.78
             130.53,87.75 124.06,90.62 120.00,92.78
             89.66,108.89 78.67,145.94 91.00,177.00 Z
           M 146.00,108.30
           C 160.79,106.83 174.59,110.68 184.82,122.01
             203.71,142.95 197.62,177.40 172.00,189.87
             163.82,193.85 158.81,194.10 150.00,194.00
             118.56,193.63 100.54,159.34 113.49,132.00
             119.84,118.59 131.77,110.99 146.00,108.30 Z
           M 121.00,164.00
           C 121.00,164.00 148.00,117.00 148.00,117.00
             143.40,117.93 139.07,119.02 135.00,121.48
             121.89,129.39 112.60,149.64 121.00,164.00 Z
           M 157.00,117.00
           C 157.00,117.00 184.00,164.00 184.00,164.00
             192.40,149.64 183.11,129.39 170.00,121.48
             165.93,119.02 161.60,117.93 157.00,117.00 Z
           M 126.00,173.00
           C 138.76,189.33 166.24,189.33 179.00,173.00
             179.00,173.00 126.00,173.00 126.00,173.00 Z" />
</svg>
