<?xml version="1.0" encoding="UTF-8" standalone="no"?>
<!DOCTYPE svg PUBLIC "-//W3C//DTD SVG 20010904//EN"
              "http://www.w3.org/TR/2001/REC-SVG-20010904/DTD/svg10.dtd">

<svg xmlns="http://www.w3.org/2000/svg"
     width="50" height="50"
     viewBox="0 0 300 300">
  <path id="curse"
        fill="#725190" stroke="#725190" stroke-width="1"
        d="M 181.00,41.00
           C 181.00,41.00 164.67,88.00 164.67,88.00
             163.62,91.14 158.96,102.20 159.78,104.69
             160.91,108.10 166.54,106.45 169.00,105.87
             169.00,105.87 194.00,100.01 194.00,100.01
             197.03,99.45 200.97,98.81 201.36,103.06
             201.56,105.20 198.81,112.56 198.00,115.00
             198.00,115.00 190.33,139.00 190.33,139.00
             190.33,139.00 164.67,220.00 164.67,220.00
             164.67,220.00 156.33,246.00 156.33,246.00
             155.57,248.29 154.29,253.60 151.78,254.40
             147.10,255.89 147.03,243.65 147.00,241.00
             147.00,241.00 147.00,236.00 147.00,236.00
             147.00,236.00 146.00,223.00 146.00,223.00
             146.00,223.00 145.00,200.00 145.00,200.00
             145.00,200.00 144.00,186.00 144.00,186.00
             144.00,186.00 142.72,158.00 142.72,158.00
             142.44,155.70 142.22,150.61 139.69,149.78
             137.94,149.21 134.71,150.44 133.00,151.00
             133.00,151.00 117.00,156.43 117.00,156.43
             114.42,157.18 110.67,159.11 108.57,156.43
             107.12,154.75 106.48,150.31 106.00,148.00
             106.00,148.00 102.21,131.00 102.21,131.00
             102.21,131.00 89.00,69.00 89.00,69.00
             82.84,73.41 72.81,84.19 67.00,90.00
             67.00,90.00 28.00,129.00 28.00,129.00
             28.00,129.00 13.04,144.00 13.04,144.00
             11.02,146.16 8.45,148.83 8.45,152.00
             8.45,155.82 12.51,159.47 15.00,162.00
             15.00,162.00 35.00,182.00 35.00,182.00
             35.00,182.00 116.00,263.00 116.00,263.00
             116.00,263.00 138.00,285.00 138.00,285.00
             140.70,287.69 144.92,292.55 149.00,292.55
             152.82,292.55 156.47,288.49 159.00,286.00
             159.00,286.00 179.00,266.00 179.00,266.00
             179.00,266.00 261.00,184.00 261.00,184.00
             261.00,184.00 283.00,162.00 283.00,162.00
             285.74,159.22 290.17,155.34 289.46,151.00
             288.89,147.44 284.48,143.49 282.00,141.00
             282.00,141.00 262.00,121.00 262.00,121.00
             262.00,121.00 210.00,69.00 210.00,69.00
             203.38,62.38 187.48,45.64 181.00,41.00 Z" />
</svg>
