<?xml version="1.0" encoding="UTF-8" standalone="no"?>
<!DOCTYPE svg PUBLIC "-//W3C//DTD SVG 20010904//EN"
              "http://www.w3.org/TR/2001/REC-SVG-20010904/DTD/svg10.dtd">

<svg xmlns="http://www.w3.org/2000/svg"
     width="50" height="50"
     viewBox="0 0 300 300">
  <path id="disarm"
        fill="#667171" stroke="#667171" stroke-width="1"
        d="M 139.00,185.00
           C 134.69,175.90 121.44,169.43 113.00,164.19
             109.01,161.71 102.53,157.53 100.87,153.00
             98.95,147.74 104.20,141.99 110.00,144.09
             118.43,147.15 135.52,162.83 149.00,166.00
             148.11,158.34 142.18,153.27 137.00,148.00
             137.00,148.00 122.00,132.00 122.00,132.00
             118.52,128.50 110.79,121.65 113.27,116.04
             116.87,107.89 124.39,111.70 129.00,116.04
             129.00,116.04 149.72,139.00 149.72,139.00
             151.81,141.41 157.41,148.65 160.07,149.60
             167.75,152.35 162.95,140.42 162.05,138.00
             159.05,129.93 151.50,114.25 150.32,107.00
             149.61,102.59 150.48,96.39 156.02,95.79
             162.19,95.13 166.57,104.39 168.69,109.00
             168.69,109.00 183.25,142.00 183.25,142.00
             185.25,145.98 188.41,151.99 193.00,153.35
             196.67,154.43 199.80,151.81 201.64,148.91
             205.49,142.84 204.99,135.51 210.39,129.04
             213.79,124.96 220.17,121.83 224.65,126.43
             227.27,129.12 226.04,132.77 225.40,136.00
             225.40,136.00 220.81,157.00 220.81,157.00
             219.26,165.60 224.88,176.86 225.00,187.00
             225.16,201.72 220.36,202.73 230.00,214.00
             235.87,209.79 242.71,202.29 248.00,197.00
             248.00,197.00 277.00,168.00 277.00,168.00
             280.66,164.34 291.55,155.04 291.55,150.00
             291.55,146.18 287.49,142.53 285.00,140.00
             285.00,140.00 265.00,120.00 265.00,120.00
             265.00,120.00 183.00,38.00 183.00,38.00
             183.00,38.00 161.00,16.00 161.00,16.00
             158.22,13.26 154.34,8.83 150.00,9.54
             146.44,10.11 142.49,14.52 140.00,17.00
             140.00,17.00 119.00,38.00 119.00,38.00
             119.00,38.00 40.00,117.00 40.00,117.00
             40.00,117.00 18.00,139.00 18.00,139.00
             15.31,141.70 10.45,145.92 10.45,150.00
             10.45,154.08 15.31,158.30 18.00,161.00
             18.00,161.00 41.00,184.00 41.00,184.00
             41.00,184.00 117.00,260.00 117.00,260.00
             117.00,260.00 138.00,281.00 138.00,281.00
             140.61,283.61 145.61,289.14 149.00,290.22
             154.79,292.07 161.32,283.68 165.00,280.00
             165.00,280.00 188.00,257.00 188.00,257.00
             190.20,254.80 195.64,249.97 196.13,247.00
             196.57,244.24 193.86,241.02 192.19,239.04
             186.88,232.77 185.05,234.79 178.00,233.10
             173.66,232.06 164.92,229.03 161.00,227.02
             149.41,221.06 145.16,213.00 137.00,206.68
             130.68,201.79 122.41,199.07 115.00,196.19
             110.16,194.31 102.69,191.31 99.74,186.91
             97.62,183.75 97.50,179.13 101.15,177.03
             104.30,175.20 109.74,177.02 113.00,178.02
             122.80,181.06 128.39,184.90 139.00,185.00 Z
           M 169.00,66.00
           C 167.96,71.18 166.45,81.00 162.00,84.00
             162.00,84.00 162.00,65.00 162.00,65.00
             162.00,65.00 169.00,66.00 169.00,66.00 Z
           M 126.00,74.00
           C 128.20,80.32 133.09,88.52 133.00,95.00
             127.82,90.73 120.62,82.55 119.00,76.00
             119.00,76.00 126.00,74.00 126.00,74.00 Z
           M 191.00,121.00
           C 191.00,121.00 193.13,104.00 193.13,104.00
             193.13,104.00 194.73,93.00 194.73,93.00
             195.09,90.52 195.86,82.19 197.17,80.58
             199.34,77.91 206.30,79.69 206.88,83.14
             207.20,85.09 204.74,90.90 203.95,93.00
             203.95,93.00 196.40,112.00 196.40,112.00
             194.94,115.65 194.37,118.74 191.00,121.00 Z
           M 100.00,128.00
           C 100.00,128.00 75.00,114.00 75.00,114.00
             75.00,114.00 78.00,108.00 78.00,108.00
             80.11,108.45 81.07,108.54 83.00,109.74
             87.24,112.37 98.52,123.37 100.00,128.00 Z
           M 86.00,167.00
           C 80.95,168.98 70.59,166.02 65.00,165.00
             65.00,165.00 66.00,160.00 66.00,160.00
             66.00,160.00 86.00,167.00 86.00,167.00 Z
           M 112.00,203.00
           C 109.03,208.10 97.77,212.92 92.02,214.00
             92.02,214.00 92.02,207.74 92.02,207.74
             92.02,207.74 98.00,205.59 98.00,205.59
             98.00,205.59 112.00,203.00 112.00,203.00 Z" />
</svg>
