<?xml version="1.0" encoding="UTF-8" standalone="no"?>
<!DOCTYPE svg PUBLIC "-//W3C//DTD SVG 20010904//EN"
              "http://www.w3.org/TR/2001/REC-SVG-20010904/DTD/svg10.dtd">

<svg xmlns="http://www.w3.org/2000/svg"
     width="50" height="50"
     viewBox="0 0 300 300">
  <path id="immobilize"
        fill="#667171" stroke="#667171" stroke-width="1"
        d="M 149.00,12.08
           C 143.74,15.45 139.42,20.58 135.00,25.00
             135.00,25.00 113.00,47.00 113.00,47.00
             113.00,47.00 43.00,117.00 43.00,117.00
             43.00,117.00 19.00,141.00 19.00,141.00
             16.60,143.40 10.63,148.53 10.63,152.00
             10.63,155.15 14.90,158.89 17.00,161.00
             17.00,161.00 37.00,181.00 37.00,181.00
             37.00,181.00 119.00,263.00 119.00,263.00
             119.00,263.00 142.00,286.00 142.00,286.00
             144.74,288.72 148.65,293.72 153.00,291.92
             155.57,290.86 161.73,284.27 164.00,282.00
             164.00,282.00 185.00,261.00 185.00,261.00
             185.00,261.00 260.00,186.00 260.00,186.00
             260.00,186.00 284.00,162.00 284.00,162.00
             286.26,159.74 291.37,155.33 291.37,152.00
             291.37,148.85 287.10,145.11 285.00,143.00
             285.00,143.00 265.00,123.00 265.00,123.00
             265.00,123.00 183.00,41.00 183.00,41.00
             183.00,41.00 161.00,19.00 161.00,19.00
             157.24,15.25 154.66,11.02 149.00,12.08 Z
           M 102.00,93.00
           C 102.00,93.00 115.86,111.00 115.86,111.00
             115.86,111.00 121.98,121.00 121.98,121.00
             121.98,121.00 119.00,137.00 119.00,137.00
             114.68,134.44 110.96,128.15 108.00,124.00
             105.85,120.98 98.89,111.95 98.15,109.00
             97.26,105.45 100.11,96.18 102.00,93.00 Z
           M 153.00,215.16
           C 153.00,215.16 153.00,218.92 153.00,218.92
             153.00,218.92 140.00,218.92 140.00,218.92
             128.87,217.72 113.17,211.16 105.15,203.38
             99.12,197.54 102.33,182.16 112.00,183.05
             121.69,183.95 125.43,180.78 135.00,180.00
             135.00,180.00 94.86,124.00 94.86,124.00
             94.86,124.00 85.82,111.00 85.82,111.00
             84.90,109.22 83.76,105.63 87.11,105.63
             89.53,105.63 91.52,108.31 92.85,110.02
             92.85,110.02 102.14,123.00 102.14,123.00
             102.14,123.00 130.00,162.00 130.00,162.00
             131.94,164.73 140.32,177.07 142.28,178.26
             145.65,180.30 148.13,175.28 149.67,173.00
             153.36,167.51 160.71,157.70 160.47,151.00
             160.47,151.00 157.58,130.00 157.58,130.00
             157.58,130.00 153.00,100.00 153.00,100.00
             159.14,100.00 164.97,99.84 171.00,98.49
             179.55,96.57 181.80,94.12 192.00,94.00
             196.99,93.95 206.62,94.14 210.72,97.09
             214.00,99.43 213.95,103.37 214.00,107.00
             214.14,118.50 212.81,125.94 209.71,137.00
             209.71,137.00 204.61,155.00 204.61,155.00
             204.61,155.00 211.00,199.00 211.00,199.00
             211.03,201.81 211.35,207.46 209.98,209.79
             208.56,212.19 205.45,213.51 203.00,214.57
             198.87,216.36 186.22,220.88 182.09,220.69
             177.59,220.49 177.75,216.58 172.96,215.16
             166.86,213.69 159.20,214.94 153.00,215.16 Z
           M 105.00,146.00
           C 105.00,146.00 90.04,145.40 90.04,145.40
             90.04,145.40 82.63,138.00 82.63,138.00
             82.63,138.00 68.00,117.00 68.00,117.00
             68.00,117.00 83.70,117.57 83.70,117.57
             83.70,117.57 90.63,125.00 90.63,125.00
             90.63,125.00 105.00,146.00 105.00,146.00 Z" />
</svg>
