<?xml version="1.0" encoding="UTF-8" standalone="no"?>
<!DOCTYPE svg PUBLIC "-//W3C//DTD SVG 20010904//EN"
              "http://www.w3.org/TR/2001/REC-SVG-20010904/DTD/svg10.dtd">

<svg xmlns="http://www.w3.org/2000/svg"
     width="3.33333in" height="3.33333in"
     viewBox="0 0 300 300">
  <path id="heal"
        fill="black" stroke="black" stroke-width="1"
        d="M 168.00,227.00
           C 168.00,227.00 135.00,227.00 135.00,227.00
             130.53,226.94 127.41,226.57 124.31,222.89
             118.44,215.91 126.28,208.75 131.00,204.00
             135.62,199.36 147.15,187.48 153.00,185.65
             156.34,184.60 168.74,185.00 173.00,185.00
             171.50,166.62 162.36,150.03 152.33,135.00
             138.30,113.96 125.47,99.37 113.75,76.00
             113.75,76.00 100.80,48.00 100.80,48.00
             99.90,45.79 97.90,39.59 95.00,39.59
             92.10,39.59 90.10,45.79 89.20,48.00
             89.20,48.00 75.75,77.00 75.75,77.00
             66.72,94.94 52.99,113.58 41.29,130.00
             28.74,147.61 16.26,168.70 16.00,191.00
             15.73,214.26 21.91,236.22 39.01,252.96
             68.58,281.90 118.35,282.31 149.00,254.83
             157.32,247.36 163.60,237.21 168.00,227.00 Z" />

   <path id="plus"
        fill="#4a9803" stroke="black" stroke-width="1"
        d="M 284.00,188.00
           C 284.00,188.00 222.94,188.00 222.94,188.00
             222.94,188.00 222.94,163.00 222.94,163.00
             222.94,163.00 222.94,137.00 222.94,137.00
             222.61,134.63 222.10,129.38 220.40,127.74
             214.76,122.30 206.27,131.25 202.83,135.00
             199.04,139.14 189.57,148.13 187.74,153.00
             186.49,156.31 187.01,171.47 187.00,176.00
             186.99,178.96 187.27,182.35 185.40,184.85
             181.78,189.70 165.98,187.99 160.00,188.00
             156.97,188.00 153.87,187.85 151.00,189.01
             145.93,191.05 132.95,203.56 129.21,208.00
             126.40,211.33 122.31,219.49 127.31,222.83
             129.27,224.13 132.71,223.99 135.00,224.00
             135.00,224.00 175.00,224.00 175.00,224.00
             178.37,224.01 182.85,223.59 185.26,226.43
             187.31,228.84 187.00,233.01 187.00,236.00
             187.00,236.00 187.00,275.00 187.00,275.00
             187.00,277.45 186.76,281.52 188.17,283.57
             191.29,288.10 198.64,285.21 202.00,282.61
             205.58,279.84 218.88,264.94 220.70,261.00
             221.95,258.30 221.96,255.90 222.00,253.00
             222.00,253.00 222.90,235.00 222.90,235.00
             223.10,231.60 222.23,228.08 225.26,225.60
             227.57,223.72 231.18,224.01 234.00,224.00
             238.55,223.99 252.50,224.36 256.00,223.44
             262.55,221.73 271.25,212.81 276.00,208.00
             278.61,205.35 281.57,202.51 282.99,199.00
             284.29,195.80 284.00,191.46 284.00,188.00 Z" />
</svg>
