<?xml version="1.0" encoding="UTF-8" standalone="no"?>
<!DOCTYPE svg PUBLIC "-//W3C//DTD SVG 20010904//EN"
              "http://www.w3.org/TR/2001/REC-SVG-20010904/DTD/svg10.dtd">

<svg xmlns="http://www.w3.org/2000/svg"
     width="3.33333in" height="3.33333in"
     viewBox="0 0 300 300">
  <path id="move"
        fill="black" stroke="black" stroke-width="1"
        d="M 4.00,66.00
           C 4.49,88.42 21.75,111.58 38.00,125.71
             43.50,130.49 51.02,136.95 58.00,139.00
             46.90,142.05 34.99,132.70 24.00,131.00
             25.35,145.99 36.95,157.51 49.00,165.30
             54.22,168.67 60.60,170.61 65.00,175.00
             65.00,175.00 42.00,177.00 42.00,177.00
             46.78,188.92 65.38,193.06 77.00,194.00
             77.26,205.48 80.56,204.11 82.43,211.00
             83.26,214.04 83.01,222.42 83.00,226.00
             82.97,242.16 72.71,254.03 70.00,269.00
             79.98,270.79 114.08,270.22 126.00,270.00
             136.65,269.80 134.02,264.22 134.00,252.00
             133.99,245.39 131.58,237.76 135.01,232.00
             137.05,228.57 142.97,223.03 146.00,220.00
             146.00,220.00 160.01,205.00 160.01,205.00
             163.44,201.48 168.05,197.61 169.85,193.00
             171.12,189.76 170.99,186.41 171.00,183.00
             171.00,183.00 171.00,111.00 171.00,111.00
             165.16,112.10 158.54,115.69 153.00,118.14
             153.00,118.14 118.00,134.75 118.00,134.75
             114.52,136.49 101.99,141.39 101.64,145.13
             101.40,147.68 104.92,156.19 105.95,159.00
             105.95,159.00 114.00,182.00 114.00,182.00
             114.98,184.46 118.81,193.07 118.90,195.00
             119.03,197.59 117.03,200.59 116.00,203.00
             107.85,193.34 102.81,179.86 98.66,168.00
             91.26,146.89 85.00,124.54 85.00,102.00
             67.37,101.19 42.86,91.10 28.00,81.77
             21.03,77.40 11.10,68.35 4.00,66.00 Z
           M 248.00,270.00
           C 248.00,254.16 244.99,240.46 234.54,228.01
             225.15,216.84 210.93,211.43 197.00,208.91
             192.37,207.93 182.29,207.27 178.00,208.91
             174.08,210.59 169.96,214.95 167.04,218.00
             164.19,220.97 151.70,234.41 150.59,237.00
             148.79,240.52 150.16,255.52 150.59,260.00
             151.03,262.52 150.89,265.65 152.60,267.69
             154.87,270.38 158.82,269.99 162.00,270.00
             162.00,270.00 248.00,270.00 248.00,270.00 Z" />

      <path id="plus"
        fill="#4a9803" stroke="black" stroke-width="2"
        d="M 299.00,65.00
           C 299.00,65.00 237.94,65.00 237.94,65.00
             237.94,65.00 237.94,40.00 237.94,40.00
             237.94,40.00 237.94,14.00 237.94,14.00
             237.61,11.63 237.10,6.38 235.40,4.74
             229.76,-0.70 221.27,8.25 217.83,12.00
             214.04,16.14 204.57,25.13 202.74,30.00
             201.49,33.31 202.01,48.47 202.00,53.00
             201.99,55.96 202.27,59.35 200.40,61.85
             196.78,66.70 180.98,64.99 175.00,65.00
             171.97,65.00 168.87,64.85 166.00,66.01
             160.93,68.05 147.95,80.56 144.21,85.00
             141.40,88.33 137.31,96.49 142.31,99.83
             144.27,101.13 147.71,100.99 150.00,101.00
             150.00,101.00 190.00,101.00 190.00,101.00
             193.37,101.01 197.85,100.59 200.26,103.43
             202.31,105.84 202.00,110.01 202.00,113.00
             202.00,113.00 202.00,152.00 202.00,152.00
             202.00,154.45 201.76,158.52 203.17,160.57
             206.29,165.10 213.64,162.21 217.00,159.61
             220.58,156.84 233.88,141.94 235.70,138.00
             236.95,135.30 236.96,132.90 237.00,130.00
             237.00,130.00 237.90,112.00 237.90,112.00
             238.10,108.60 237.23,105.08 240.26,102.60
             242.57,100.72 246.18,101.01 249.00,101.00
             253.55,100.99 267.50,101.36 271.00,100.44
             277.55,98.73 286.25,89.81 291.00,85.00
             293.61,82.35 296.57,79.51 297.99,76.00
             299.29,72.80 299.00,68.46 299.00,65.00 Z" />
</svg>
