<?xml version="1.0" encoding="UTF-8" standalone="no"?>
<!DOCTYPE svg PUBLIC "-//W3C//DTD SVG 20010904//EN"
              "http://www.w3.org/TR/2001/REC-SVG-20010904/DTD/svg10.dtd">

<svg xmlns="http://www.w3.org/2000/svg"
     width="52.9194mm" height="52.9194mm"
     viewBox="0 0 300 300">
  <path id="Selection"
        fill="black" stroke="black" stroke-width="1"
        d="M 205.00,36.00
           C 205.00,36.00 167.00,63.02 167.00,63.02
             167.00,63.02 152.00,72.31 152.00,72.31
             152.00,72.31 139.00,64.43 139.00,64.43
             139.00,64.43 107.00,42.00 107.00,42.00
             107.00,42.00 108.98,80.00 108.98,80.00
             109.00,83.03 110.18,91.77 108.98,93.69
             107.47,96.05 104.46,95.95 102.00,96.00
             102.00,96.00 85.00,97.00 85.00,97.00
             85.00,97.00 38.00,99.00 38.00,99.00
             43.29,105.39 69.58,124.61 78.00,131.21
             80.91,133.49 93.61,143.90 96.00,144.57
             99.19,145.47 103.22,142.49 106.00,141.00
             106.00,141.00 88.00,117.00 88.00,117.00
             88.00,117.00 125.00,113.00 125.00,113.00
             128.13,105.49 126.91,96.99 127.00,89.00
             127.00,89.00 128.00,78.00 128.00,78.00
             128.00,78.00 142.00,86.50 142.00,86.50
             142.00,86.50 151.00,91.12 151.00,91.12
             151.00,91.12 163.00,86.25 163.00,86.25
             163.00,86.25 187.00,75.00 187.00,75.00
             187.00,75.00 190.00,102.00 190.00,102.00
             190.31,104.24 191.00,112.06 192.02,113.49
             193.78,115.96 204.62,117.95 208.00,118.77
             208.00,118.77 215.00,120.32 215.00,120.32
             215.00,120.32 251.00,119.00 251.00,119.00
             251.00,119.00 262.00,119.00 262.00,119.00
             262.00,119.00 248.00,113.49 248.00,113.49
             248.00,113.49 224.00,105.33 224.00,105.33
             224.00,105.33 210.02,99.57 210.02,99.57
             210.02,99.57 207.96,82.00 207.96,82.00
             207.96,82.00 207.96,66.00 207.96,66.00
             207.96,66.00 206.17,48.00 206.17,48.00
             206.17,48.00 205.00,36.00 205.00,36.00 Z
           M 48.00,198.00
           C 45.26,206.04 50.24,208.42 56.00,213.42
             56.00,213.42 67.00,223.91 67.00,223.91
             67.00,223.91 84.00,239.17 84.00,239.17
             92.66,247.00 92.64,250.52 101.00,246.00
             101.00,246.00 89.62,231.91 89.62,231.91
             89.62,231.91 97.72,222.00 97.72,222.00
             97.72,222.00 120.83,197.00 120.83,197.00
             120.83,197.00 159.42,155.00 159.42,155.00
             159.42,155.00 174.07,137.96 174.07,137.96
             174.07,137.96 179.00,109.00 179.00,109.00
             179.00,109.00 159.00,113.50 159.00,113.50
             159.00,113.50 150.09,115.93 150.09,115.93
             150.09,115.93 132.96,134.00 132.96,134.00
             132.96,134.00 93.00,177.00 93.00,177.00
             93.00,177.00 71.99,200.00 71.99,200.00
             71.99,200.00 63.00,207.38 63.00,207.38
             63.00,207.38 48.00,198.00 48.00,198.00 Z
           M 59.00,226.00
           C 59.00,226.00 40.54,246.17 40.54,246.17
             38.06,248.95 34.76,251.90 35.71,256.00
             36.72,260.39 42.35,264.88 46.91,263.36
             49.39,262.53 53.09,258.01 55.00,256.00
             55.00,256.00 72.00,238.00 72.00,238.00
             72.00,238.00 59.00,226.00 59.00,226.00 Z" />
  <path id="plus"
        fill="#4a9803" stroke="black" stroke-width="2"
         d="M 283.00,189.00
           C 283.00,189.00 221.67,189.00 221.67,189.00
             221.67,189.00 221.67,177.00 221.67,177.00
             221.67,177.00 221.67,168.00 221.67,168.00
             221.67,168.00 221.67,150.00 221.67,150.00
             221.67,150.00 221.67,138.00 221.67,138.00
             221.23,135.57 222.03,130.37 220.36,128.73
             217.03,125.45 211.22,128.26 208.51,130.94
             208.51,130.94 189.02,152.00 189.02,152.00
             188.02,154.00 188.04,155.83 188.00,158.00
             188.00,158.00 188.00,178.00 188.00,178.00
             188.00,180.77 188.32,185.29 186.26,187.40
             184.49,189.21 181.34,188.98 179.00,189.00
             179.00,189.00 159.00,189.00 159.00,189.00
             156.91,189.00 153.94,188.88 152.00,189.60
             149.01,190.70 146.36,193.71 144.00,195.83
             138.95,200.37 133.55,204.79 129.15,210.00
             126.97,212.57 123.72,219.28 127.40,221.98
             129.09,223.21 132.94,223.00 135.00,223.00
             135.00,223.00 178.00,223.00 178.00,223.00
             185.22,223.01 187.85,222.85 188.00,231.00
             188.00,231.00 188.00,276.00 188.00,276.00
             188.00,277.99 187.77,281.81 189.02,283.40
             191.81,286.93 198.34,284.19 200.91,281.85
             203.67,279.35 219.03,262.68 220.16,259.91
             221.23,257.30 220.99,253.81 221.00,251.00
             221.00,251.00 221.70,233.00 221.70,233.00
             221.60,230.27 220.61,226.82 222.74,224.60
             224.32,222.95 226.90,223.04 229.00,223.00
             229.00,223.00 249.00,223.00 249.00,223.00
             251.46,223.00 254.71,223.13 257.00,222.26
             260.41,220.96 270.89,211.03 274.00,207.99
             276.56,205.48 281.19,201.28 282.40,198.00
             283.20,195.83 283.00,191.43 283.00,189.00 Z" />
</svg>
