<?xml version="1.0" encoding="UTF-8" standalone="no"?>
<!DOCTYPE svg PUBLIC "-//W3C//DTD SVG 20010904//EN"
              "http://www.w3.org/TR/2001/REC-SVG-20010904/DTD/svg10.dtd">

<svg xmlns="http://www.w3.org/2000/svg"
     width="50" height="50"
     viewBox="0 0 300 300">
  <path id="invisible"
        fill="black" stroke="black" stroke-width="1"
        d="M 147.00,12.08
           C 141.74,15.45 137.42,20.58 133.00,25.00
             133.00,25.00 111.00,47.00 111.00,47.00
             111.00,47.00 41.00,117.00 41.00,117.00
             41.00,117.00 17.00,141.00 17.00,141.00
             14.60,143.40 8.63,148.53 8.63,152.00
             8.63,155.15 12.90,158.89 15.00,161.00
             15.00,161.00 35.00,181.00 35.00,181.00
             35.00,181.00 117.00,263.00 117.00,263.00
             117.00,263.00 140.00,286.00 140.00,286.00
             142.74,288.72 146.65,293.72 151.00,291.92
             153.57,290.86 159.73,284.27 162.00,282.00
             162.00,282.00 183.00,261.00 183.00,261.00
             183.00,261.00 258.00,186.00 258.00,186.00
             258.00,186.00 282.00,162.00 282.00,162.00
             284.26,159.74 289.37,155.33 289.37,152.00
             289.37,148.85 285.10,145.11 283.00,143.00
             283.00,143.00 263.00,123.00 263.00,123.00
             263.00,123.00 181.00,41.00 181.00,41.00
             181.00,41.00 159.00,19.00 159.00,19.00
             155.24,15.25 152.66,11.02 147.00,12.08 Z
           M 143.00,59.35
           C 146.69,59.22 151.67,61.11 148.22,65.49
             146.94,67.12 142.04,68.99 140.02,69.29
             136.72,69.77 133.67,67.72 134.84,64.20
             135.91,61.00 140.14,60.01 143.00,59.35 Z
           M 158.31,62.62
           C 162.59,61.94 167.84,64.53 169.16,69.02
             169.76,71.08 169.00,73.48 166.77,74.12
             163.34,75.09 152.37,67.65 158.31,62.62 Z
           M 127.22,73.66
           C 136.43,72.97 131.90,86.24 128.78,87.34
             122.09,89.70 121.52,77.59 127.22,73.66 Z
           M 169.99,80.66
           C 178.57,81.91 173.83,94.31 169.99,95.18
             163.50,96.59 163.87,83.03 169.99,80.66 Z
           M 131.23,94.66
           C 135.13,94.37 140.06,97.14 141.34,101.16
             142.02,103.29 141.07,105.62 138.85,106.29
             134.76,107.54 124.43,99.52 131.23,94.66 Z
           M 158.00,99.43
           C 167.64,99.63 163.22,108.05 155.00,109.26
             151.71,109.75 147.96,107.95 149.40,104.14
             150.54,101.12 155.22,100.08 158.00,99.43 Z
           M 143.13,119.81
           C 146.21,118.91 152.98,118.29 155.80,119.81
             159.11,122.15 160.10,128.91 155.80,130.12
             152.97,130.95 151.17,128.16 149.00,128.16
             146.83,128.16 145.03,130.95 142.13,130.12
             138.18,128.99 138.17,122.87 143.13,119.81 Z
           M 137.27,139.66
           C 146.79,138.93 141.83,153.00 137.89,154.34
             134.55,155.48 133.19,152.85 133.15,149.98
             133.09,146.19 134.18,141.88 137.27,139.66 Z
           M 158.13,139.66
           C 165.86,139.08 166.22,152.99 162.69,154.34
             157.40,156.38 151.90,143.86 158.13,139.66 Z
           M 131.90,163.82
           C 140.66,164.47 134.75,178.14 131.90,179.16
             128.77,180.19 126.64,177.85 126.52,174.96
             126.35,170.63 128.20,165.80 131.90,163.82 Z
           M 165.09,163.74
           C 171.68,165.44 173.54,177.51 168.79,179.16
             162.58,181.30 160.54,168.04 162.21,165.43
             163.33,163.69 164.94,163.80 165.09,163.74 Z
           M 125.11,188.66
           C 133.88,188.00 128.74,202.09 125.74,203.39
             122.27,204.88 120.29,202.17 120.28,198.98
             120.26,194.88 121.64,190.86 125.11,188.66 Z
           M 170.31,188.66
           C 178.30,188.04 179.34,201.69 175.57,203.41
             169.50,206.17 165.52,192.52 170.31,188.66 Z
           M 119.06,212.82
           C 125.19,213.29 128.60,223.64 122.89,225.22
             116.12,227.09 111.29,217.06 119.06,212.82 Z
           M 178.06,212.74
           C 185.60,214.76 183.95,225.77 176.05,225.56
             169.43,225.39 172.34,214.66 178.06,212.74 Z
           M 134.23,221.60
           C 137.20,220.92 141.01,220.63 143.75,222.31
             146.65,224.08 146.92,227.76 143.75,229.26
             139.23,231.38 126.51,227.36 134.23,221.60 Z
           M 161.96,221.51
           C 165.27,222.19 168.55,225.03 165.39,228.26
             163.72,229.97 160.24,230.04 158.00,229.98
             154.28,229.87 149.81,227.49 153.60,223.60
             155.37,221.79 159.56,221.66 161.96,221.51 Z" />
</svg>
