<?xml version="1.0" encoding="UTF-8" standalone="no"?>
<!DOCTYPE svg PUBLIC "-//W3C//DTD SVG 20010904//EN"
              "http://www.w3.org/TR/2001/REC-SVG-20010904/DTD/svg10.dtd">

<svg xmlns="http://www.w3.org/2000/svg"
     width="50" height="50"
     viewBox="0 0 300 300">
  <path id="jump"
        fill="black" stroke="black" stroke-width="1"
        d="M 201.00,57.00
           C 201.00,57.00 201.00,83.00 201.00,83.00
             165.64,87.77 135.26,110.13 119.37,142.00
             116.25,148.25 112.82,158.16 111.23,165.00
             111.23,165.00 108.85,176.95 108.85,176.95
             107.12,181.59 103.07,181.74 99.00,183.46
             90.61,187.01 81.09,195.18 87.01,205.00
             88.32,207.17 90.00,208.87 92.02,210.39
             104.79,220.06 129.95,220.89 145.00,217.11
             150.49,215.73 156.44,213.63 160.91,210.07
             162.44,208.86 163.78,207.55 164.85,205.91
             173.63,192.56 155.98,182.72 145.00,181.00
             146.02,159.17 163.47,136.81 182.00,126.44
             188.31,122.91 194.40,121.47 201.00,119.00
             201.00,119.00 201.00,142.00 201.00,142.00
             201.00,142.00 228.00,127.42 228.00,127.42
             228.00,127.42 275.00,100.00 275.00,100.00
             275.00,100.00 243.00,80.72 243.00,80.72
             243.00,80.72 201.00,57.00 201.00,57.00 Z
           M 234.00,200.00
           C 234.00,200.00 195.00,166.58 195.00,166.58
             187.90,160.48 183.78,154.07 174.00,154.00
             163.93,153.93 161.99,154.53 159.00,165.00
             161.32,165.00 164.87,164.84 167.00,165.59
             170.24,166.75 175.31,171.57 178.00,173.95
             178.00,173.95 197.00,190.42 197.00,190.42
             199.46,192.52 207.83,198.35 206.80,201.84
             206.33,203.45 203.29,205.87 202.00,207.00
             202.00,207.00 189.00,218.27 189.00,218.27
             185.05,221.66 170.54,234.91 167.00,236.26
             164.71,237.13 161.46,237.00 159.00,237.00
             159.00,237.00 93.00,237.00 93.00,237.00
             82.33,236.98 79.85,232.53 72.00,225.72
             72.00,225.72 43.00,200.00 43.00,200.00
             43.00,200.00 83.00,166.89 83.00,166.89
             83.00,166.89 101.28,164.01 101.28,164.01
             101.28,164.01 105.00,154.00 105.00,154.00
             105.00,154.00 78.00,154.00 78.00,154.00
             70.08,154.15 67.74,157.67 62.00,162.58
             62.00,162.58 39.00,182.58 39.00,182.58
             39.00,182.58 24.02,195.58 24.02,195.58
             22.32,197.12 19.59,199.18 20.34,201.84
             20.85,203.68 25.44,207.47 27.00,208.85
             27.00,208.85 45.00,224.42 45.00,224.42
             45.00,224.42 62.00,239.13 62.00,239.13
             64.66,241.42 68.74,245.29 72.00,246.42
             74.03,247.11 76.84,247.00 79.00,247.00
             79.00,247.00 173.00,247.00 173.00,247.00
             184.74,246.98 186.23,242.68 195.00,235.13
             203.29,227.99 228.86,207.12 234.00,200.00 Z" />
</svg>
