<?xml version="1.0" encoding="UTF-8" standalone="no"?>
<!DOCTYPE svg PUBLIC "-//W3C//DTD SVG 20010904//EN"
              "http://www.w3.org/TR/2001/REC-SVG-20010904/DTD/svg10.dtd">

<svg xmlns="http://www.w3.org/2000/svg"
     width="50" height="50"
     viewBox="0 0 300 300">
  <path id="muddle"
        fill="#644f3e" stroke="#644f3e" stroke-width="1"
        d="M 147.00,9.78
           C 141.46,12.57 137.34,17.66 133.00,22.00
             133.00,22.00 112.00,43.00 112.00,43.00
             112.00,43.00 40.00,115.00 40.00,115.00
             40.00,115.00 16.00,139.00 16.00,139.00
             13.45,141.57 8.27,146.08 8.54,150.00
             8.77,153.44 13.64,157.63 16.00,160.00
             16.00,160.00 36.00,180.00 36.00,180.00
             36.00,180.00 59.96,204.00 59.96,204.00
             59.96,204.00 69.01,214.00 69.01,214.00
             69.01,214.00 117.00,262.00 117.00,262.00
             117.00,262.00 140.00,284.98 140.00,284.98
             142.92,287.82 146.49,291.66 151.00,290.22
             154.39,289.14 159.39,283.61 162.00,281.00
             162.00,281.00 182.00,261.00 182.00,261.00
             182.00,261.00 227.99,215.00 227.99,215.00
             227.99,215.00 237.04,205.00 237.04,205.00
             237.04,205.00 258.00,184.00 258.00,184.00
             258.00,184.00 281.00,161.00 281.00,161.00
             283.51,158.49 289.21,153.59 289.46,150.00
             289.73,146.08 284.55,141.57 282.00,139.00
             282.00,139.00 260.00,117.00 260.00,117.00
             260.00,117.00 178.00,35.00 178.00,35.00
             178.00,35.00 159.00,16.00 159.00,16.00
             155.05,12.11 152.87,8.98 147.00,9.78 Z
           M 159.00,176.00
           C 158.85,177.80 158.91,179.17 157.98,180.83
             156.03,184.30 143.05,193.58 139.00,193.55
             131.92,193.50 126.89,185.31 126.17,179.00
             125.62,174.13 123.23,157.61 125.02,154.00
             128.92,146.15 152.93,133.41 157.15,123.00
             158.92,118.63 156.95,105.17 156.28,100.00
             155.69,95.49 155.41,87.65 151.61,84.60
             148.35,81.99 143.31,83.86 141.91,87.62
             140.70,92.19 145.03,104.10 141.91,109.82
             139.78,113.08 134.25,116.04 131.00,118.00
             128.27,119.64 119.50,126.47 116.73,123.36
             114.23,120.55 119.38,117.04 118.82,109.00
             118.47,103.94 115.80,90.08 118.02,86.18
             120.11,82.53 130.03,77.79 134.00,75.74
             134.00,75.74 153.00,66.01 153.00,66.01
             155.64,64.92 159.11,63.29 162.00,63.83
             165.31,64.46 168.66,67.66 170.91,70.02
             179.17,78.67 178.98,81.15 180.28,92.00
             180.28,92.00 182.08,109.00 182.08,109.00
             182.64,116.00 184.52,120.40 180.44,127.00
             175.92,134.31 166.49,143.07 160.00,148.83
             157.70,150.87 152.06,155.08 150.60,157.17
             145.90,163.88 152.26,173.68 159.00,176.00 Z
           M 146.99,203.76
           C 154.66,206.03 154.47,212.39 155.35,219.00
             155.58,221.41 156.46,225.36 155.35,227.61
             154.11,230.47 142.16,236.18 139.01,236.04
             130.23,235.65 129.10,215.67 130.60,212.21
             132.31,208.26 142.87,204.12 146.99,203.76 Z" />
</svg>
