<?xml version="1.0" encoding="UTF-8" standalone="no"?>
<!DOCTYPE svg PUBLIC "-//W3C//DTD SVG 20010904//EN"
              "http://www.w3.org/TR/2001/REC-SVG-20010904/DTD/svg10.dtd">

<svg xmlns="http://www.w3.org/2000/svg"
     width="50" height="50"
     viewBox="0 0 300 300">
  <path id="pierce"
        fill="#474845" stroke="#474845" stroke-width="1"
        d="M 147.00,9.78
           C 141.46,12.57 137.34,17.66 133.00,22.00
             133.00,22.00 112.00,43.00 112.00,43.00
             112.00,43.00 40.00,115.00 40.00,115.00
             40.00,115.00 16.00,139.00 16.00,139.00
             13.31,141.70 8.45,145.92 8.45,150.00
             8.45,153.82 12.51,157.47 15.00,160.00
             15.00,160.00 35.00,180.00 35.00,180.00
             35.00,180.00 117.00,262.00 117.00,262.00
             117.00,262.00 140.00,284.98 140.00,284.98
             142.92,287.82 146.49,291.66 151.00,290.22
             154.39,289.14 159.39,283.61 162.00,281.00
             162.00,281.00 183.00,260.00 183.00,260.00
             183.00,260.00 259.00,184.00 259.00,184.00
             259.00,184.00 282.00,161.00 282.00,161.00
             284.69,158.30 289.55,154.08 289.55,150.00
             289.55,146.18 285.49,142.53 283.00,140.00
             283.00,140.00 263.00,120.00 263.00,120.00
             263.00,120.00 181.00,38.00 181.00,38.00
             181.00,38.00 160.00,17.00 160.00,17.00
             155.87,12.89 153.22,8.93 147.00,9.78 Z
           M 172.00,56.00
           C 172.00,56.00 172.00,114.00 172.00,114.00
             172.00,114.00 193.00,99.00 193.00,99.00
             193.00,99.00 180.00,122.00 180.00,122.00
             180.00,122.00 193.00,122.00 193.00,122.00
             189.10,126.72 181.63,132.60 176.00,135.00
             170.93,127.50 164.83,119.65 155.00,119.11
             147.60,118.69 144.09,123.02 140.53,120.96
             138.75,119.94 137.17,116.77 136.15,115.00
             133.30,110.08 129.98,105.35 128.00,100.00
             128.00,100.00 141.00,105.00 141.00,105.00
             141.00,105.00 141.00,81.00 141.00,81.00
             141.00,81.00 154.00,102.00 154.00,102.00
             154.00,102.00 165.00,71.00 165.00,71.00
             165.00,71.00 172.00,56.00 172.00,56.00 Z
           M 263.00,149.00
           C 263.00,149.00 263.00,151.00 263.00,151.00
             263.00,151.00 237.00,160.60 237.00,160.60
             233.99,161.80 227.03,164.89 224.00,164.50
             219.95,163.98 217.30,159.68 214.00,157.60
             211.03,155.73 208.35,156.01 205.00,156.00
             205.00,156.00 45.00,156.00 45.00,156.00
             43.24,156.00 39.92,156.14 38.38,155.43
             34.25,153.53 33.91,147.55 37.61,144.99
             39.41,143.75 42.86,144.00 45.00,144.00
             45.00,144.00 205.00,144.00 205.00,144.00
             208.35,143.99 211.03,144.27 214.00,142.40
             217.30,140.32 219.95,136.02 224.00,135.50
             227.03,135.11 233.99,138.20 237.00,139.40
             237.00,139.40 263.00,149.00 263.00,149.00 Z
           M 193.00,179.00
           C 193.00,179.00 180.00,179.00 180.00,179.00
             180.00,179.00 193.00,202.00 193.00,202.00
             193.00,202.00 172.00,187.00 172.00,187.00
             172.00,187.00 172.00,245.00 172.00,245.00
             172.00,245.00 165.00,230.00 165.00,230.00
             165.00,230.00 153.00,199.00 153.00,199.00
             153.00,199.00 142.00,220.00 142.00,220.00
             142.00,220.00 141.00,197.00 141.00,197.00
             141.00,197.00 128.00,201.00 128.00,201.00
             130.57,195.07 133.96,189.48 137.40,184.02
             139.20,181.16 140.25,178.92 144.04,179.68
             146.91,180.25 147.96,181.73 153.00,181.95
             163.94,182.43 170.42,174.25 176.00,166.00
             181.52,168.71 189.08,174.29 193.00,179.00 Z" />
</svg>
