<?xml version="1.0" encoding="UTF-8" standalone="no"?>
<!DOCTYPE svg PUBLIC "-//W3C//DTD SVG 20010904//EN"
              "http://www.w3.org/TR/2001/REC-SVG-20010904/DTD/svg10.dtd">

<svg xmlns="http://www.w3.org/2000/svg"
     width="50" height="50"
     viewBox="0 0 300 300">
  <path id="poison"
        fill="#747861" stroke="#747861" stroke-width="1"
        d="M 149.00,13.78
           C 143.46,16.57 139.34,21.66 135.00,26.00
             135.00,26.00 114.00,47.00 114.00,47.00
             114.00,47.00 42.00,119.00 42.00,119.00
             42.00,119.00 18.00,143.00 18.00,143.00
             15.31,145.70 10.45,149.92 10.45,154.00
             10.45,157.82 14.51,161.47 17.00,164.00
             17.00,164.00 37.00,184.00 37.00,184.00
             37.00,184.00 119.00,266.00 119.00,266.00
             119.00,266.00 142.00,288.98 142.00,288.98
             144.92,291.82 148.49,295.66 153.00,294.22
             156.39,293.14 161.39,287.61 164.00,285.00
             164.00,285.00 185.00,264.00 185.00,264.00
             185.00,264.00 261.00,188.00 261.00,188.00
             261.00,188.00 284.00,165.00 284.00,165.00
             286.69,162.30 291.55,158.08 291.55,154.00
             291.55,150.18 287.49,146.53 285.00,144.00
             285.00,144.00 265.00,124.00 265.00,124.00
             265.00,124.00 183.00,42.00 183.00,42.00
             183.00,42.00 162.00,21.00 162.00,21.00
             157.87,16.89 155.22,12.93 149.00,13.78 Z
           M 195.00,199.00
           C 195.61,203.66 196.18,206.12 195.98,211.00
             195.59,220.54 186.71,221.08 179.00,222.05
             165.37,223.50 144.57,223.78 131.00,222.05
             126.49,221.61 117.66,220.85 114.43,217.57
             110.26,213.34 112.88,204.53 113.00,199.00
             101.96,198.90 86.54,196.14 78.17,188.53
             61.14,173.05 64.01,139.82 75.55,122.00
             88.32,102.27 117.60,94.27 140.00,94.00
             169.66,93.66 207.41,92.59 228.82,117.00
             244.01,134.33 248.39,172.09 229.91,188.68
             221.43,196.29 206.12,198.90 195.00,199.00 Z
           M 108.00,151.00
           C 104.73,154.01 93.90,162.40 92.84,166.02
             91.70,169.95 95.39,172.52 98.97,171.36
             103.88,169.76 108.98,159.04 113.03,159.04
             117.39,159.04 122.47,170.04 127.98,171.26
             131.17,171.96 133.62,169.13 132.60,166.00
             131.21,161.71 121.86,154.59 118.00,152.00
             121.27,149.00 132.11,140.59 133.16,136.97
             134.30,133.00 130.78,130.31 127.08,131.62
             122.42,133.27 116.83,143.96 113.00,143.96
             109.27,143.96 103.47,133.34 98.84,131.79
             95.36,130.64 92.64,133.49 93.66,137.00
             94.91,141.36 104.18,148.35 108.00,151.00 Z
           M 184.00,151.00
           C 180.73,154.01 169.90,162.40 168.84,166.02
             167.70,169.95 171.39,172.52 174.97,171.36
             179.87,169.77 184.99,159.04 189.02,159.04
             193.09,159.04 198.51,170.05 203.98,171.26
             207.17,171.96 209.62,169.13 208.60,166.00
             207.21,161.71 197.86,154.59 194.00,152.00
             197.27,149.00 208.11,140.59 209.16,136.97
             210.30,133.00 206.78,130.31 203.08,131.62
             198.42,133.27 192.83,143.96 189.00,143.96
             185.27,143.96 179.47,133.34 174.84,131.79
             171.36,130.64 168.64,133.49 169.66,137.00
             170.91,141.36 180.18,148.35 184.00,151.00 Z
           M 141.00,191.00
           C 154.81,189.15 148.22,189.39 161.00,193.00
             161.00,187.90 160.02,172.02 155.58,169.18
             152.20,167.01 148.75,169.35 146.64,172.06
             142.53,177.33 141.06,184.50 141.00,191.00 Z" />
</svg>
