<?xml version="1.0" encoding="UTF-8" standalone="no"?>
<!DOCTYPE svg PUBLIC "-//W3C//DTD SVG 20010904//EN"
              "http://www.w3.org/TR/2001/REC-SVG-20010904/DTD/svg10.dtd">

<svg xmlns="http://www.w3.org/2000/svg"
     width="50" height="50"
     viewBox="0 0 300 300">
  <path id="card"
        fill="black" stroke="black" stroke-width="1"
        d="M 168.99,223.00
           C 168.99,223.00 166.00,224.00 166.00,224.00
             164.69,228.00 157.91,241.61 153.82,242.35
             149.56,243.11 142.22,235.37 139.17,232.60
             139.17,232.60 113.00,211.37 113.00,211.37
             108.45,207.90 101.46,203.05 99.00,198.00
             107.44,194.07 106.23,190.55 118.00,189.32
             123.90,188.70 126.73,192.15 131.00,195.55
             136.47,199.91 145.37,207.36 152.00,209.00
             152.00,209.00 168.37,178.00 168.37,178.00
             168.37,178.00 169.00,170.00 169.00,170.00
             169.00,170.00 169.00,60.00 169.00,60.00
             169.00,60.00 174.00,60.00 174.00,60.00
             174.00,60.00 174.00,54.00 174.00,54.00
             160.94,53.95 168.11,51.02 151.00,51.00
             151.00,51.00 38.00,51.00 38.00,51.00
             32.92,51.01 28.18,50.98 24.74,55.47
             22.66,58.17 23.01,61.78 23.00,65.00
             23.00,65.00 23.00,97.00 23.00,97.00
             23.00,97.00 23.00,249.00 23.00,249.00
             23.01,253.77 22.67,258.18 27.11,261.26
             30.65,263.73 38.63,263.00 43.00,263.00
             43.00,263.00 80.00,263.00 80.00,263.00
             80.00,263.00 153.00,263.00 153.00,263.00
             155.82,263.00 166.49,262.57 168.38,260.98
             170.24,259.42 168.96,252.67 168.99,250.00
             168.99,250.00 168.99,223.00 168.99,223.00 Z
           M 183.00,54.00
           C 183.00,54.00 183.00,60.00 183.00,60.00
             183.00,60.00 193.00,60.00 193.00,60.00
             193.00,60.00 193.00,54.00 193.00,54.00
             193.00,54.00 183.00,54.00 183.00,54.00 Z
           M 213.00,60.00
           C 213.00,60.00 213.00,54.00 213.00,54.00
             210.40,54.00 202.87,53.07 202.74,56.99
             202.72,57.81 203.02,58.46 203.64,58.98
             205.26,60.35 210.81,60.00 213.00,60.00 Z
           M 222.09,54.00
           C 222.09,54.00 222.09,57.98 222.09,57.98
             222.31,58.88 222.49,59.94 222.87,60.77
             226.34,68.29 232.74,57.62 225.85,54.60
             224.63,54.06 223.29,54.11 222.09,54.00 Z
           M 223.00,73.00
           C 223.00,73.00 223.00,84.00 223.00,84.00
             223.00,84.00 229.00,84.00 229.00,84.00
             229.00,84.00 229.00,73.00 229.00,73.00
             229.00,73.00 223.00,73.00 223.00,73.00 Z
           M 223.00,94.00
           C 223.00,94.00 223.00,104.00 223.00,104.00
             223.00,104.00 229.00,104.00 229.00,104.00
             229.00,104.00 229.00,94.00 229.00,94.00
             229.00,94.00 223.00,94.00 223.00,94.00 Z
           M 223.00,114.00
           C 223.00,121.97 222.02,124.42 229.00,125.00
             229.00,125.00 229.00,114.00 229.00,114.00
             229.00,114.00 223.00,114.00 223.00,114.00 Z
           M 223.00,145.00
           C 223.00,145.00 229.00,145.00 229.00,145.00
             229.00,145.00 229.00,134.00 229.00,134.00
             222.02,134.58 223.00,137.03 223.00,145.00 Z
           M 223.00,155.00
           C 223.00,155.00 223.00,165.00 223.00,165.00
             223.00,165.00 229.00,165.00 229.00,165.00
             229.00,165.00 229.00,155.00 229.00,155.00
             229.00,155.00 223.00,155.00 223.00,155.00 Z
           M 223.00,175.00
           C 223.00,175.00 223.00,186.00 223.00,186.00
             229.98,185.42 229.00,182.97 229.00,175.00
             229.00,175.00 223.00,175.00 223.00,175.00 Z
           M 102.00,195.00
           C 102.00,195.00 102.00,196.00 102.00,196.00
             102.00,196.00 101.00,195.00 101.00,195.00
             101.00,195.00 102.00,195.00 102.00,195.00 Z
           M 101.00,196.00
           C 101.00,196.00 101.00,197.00 101.00,197.00
             101.00,197.00 100.00,196.00 100.00,196.00
             100.00,196.00 101.00,196.00 101.00,196.00 Z
           M 223.00,196.00
           C 223.00,196.00 223.00,206.00 223.00,206.00
             223.00,206.00 229.00,206.00 229.00,206.00
             229.00,206.00 229.00,196.00 229.00,196.00
             229.00,196.00 223.00,196.00 223.00,196.00 Z
           M 223.00,216.00
           C 223.00,223.97 222.02,226.42 229.00,227.00
             229.00,227.00 229.00,216.00 229.00,216.00
             229.00,216.00 223.00,216.00 223.00,216.00 Z
           M 168.00,221.00
           C 168.00,221.00 168.00,222.00 168.00,222.00
             168.00,222.00 169.00,221.00 169.00,221.00
             169.00,221.00 168.00,221.00 168.00,221.00 Z
           M 224.00,236.00
           C 224.00,236.00 223.00,247.00 223.00,247.00
             223.00,247.00 229.00,247.00 229.00,247.00
             229.00,247.00 229.00,236.00 229.00,236.00
             229.00,236.00 224.00,236.00 224.00,236.00 Z
           M 179.00,256.00
           C 179.00,256.00 179.00,262.00 179.00,262.00
             179.00,262.00 189.00,262.00 189.00,262.00
             189.00,262.00 189.00,256.00 189.00,256.00
             189.00,256.00 179.00,256.00 179.00,256.00 Z
           M 199.00,256.00
           C 199.00,256.00 199.00,262.00 199.00,262.00
             199.00,262.00 209.00,262.00 209.00,262.00
             209.00,262.00 209.00,256.00 209.00,256.00
             209.00,256.00 199.00,256.00 199.00,256.00 Z
           M 218.00,256.00
           C 218.00,256.00 218.00,262.00 218.00,262.00
             223.55,262.00 227.06,263.08 229.00,257.00
             229.00,257.00 218.00,256.00 218.00,256.00 Z" />

      <path id="check"
        fill="#d36362" stroke="#d36362" stroke-width="1"
        d="M 160.00,198.00
           C 160.00,198.00 157.00,199.00 157.00,199.00
             157.00,199.00 156.00,201.00 156.00,201.00
             156.00,201.00 152.00,211.00 152.00,211.00
             152.00,211.00 131.00,196.12 131.00,196.12
             128.99,194.63 123.65,190.19 121.72,189.52
             117.86,188.19 107.00,192.85 104.06,195.39
             102.07,197.11 100.31,199.14 101.74,201.83
             101.74,201.83 114.00,212.71 114.00,212.71
             114.00,212.71 140.00,233.12 140.00,233.12
             144.72,236.75 149.19,241.35 155.00,243.00
             155.00,243.00 172.99,212.00 172.99,212.00
             172.99,212.00 181.23,197.00 181.23,197.00
             181.23,197.00 198.06,168.04 198.06,168.04
             198.06,168.04 208.06,150.71 208.06,150.71
             209.36,148.26 210.97,144.96 209.58,142.22
             206.77,136.71 194.49,136.82 190.78,141.15
             190.78,141.15 182.99,154.00 182.99,154.00
             182.99,154.00 167.67,181.00 167.67,181.00
             164.98,185.94 160.18,192.46 160.00,198.00 Z" />
</svg>
