<?xml version="1.0" encoding="UTF-8" standalone="no"?>
<!DOCTYPE svg PUBLIC "-//W3C//DTD SVG 20010904//EN"
              "http://www.w3.org/TR/2001/REC-SVG-20010904/DTD/svg10.dtd">

<svg xmlns="http://www.w3.org/2000/svg"
     width="50" height="50"
     viewBox="0 0 300 300">
  <path id="card"
        fill="black" stroke="black" stroke-width="1"
        d="M 28.00,54.00
           C 28.00,54.00 28.00,75.00 28.00,75.00
             28.00,75.00 28.00,117.00 28.00,117.00
             28.00,117.00 28.00,246.00 28.00,246.00
             28.01,251.56 27.73,255.62 33.04,258.99
             37.40,261.76 44.88,261.00 50.00,261.00
             50.00,261.00 85.00,261.00 85.00,261.00
             85.00,261.00 155.00,261.00 155.00,261.00
             155.00,261.00 175.00,259.00 175.00,259.00
             175.00,259.00 272.00,259.00 272.00,259.00
             274.54,258.99 278.48,259.32 280.40,257.40
             282.19,255.61 281.98,252.35 282.00,250.00
             282.00,250.00 282.00,225.00 282.00,225.00
             282.00,225.00 282.00,115.00 282.00,115.00
             281.99,107.78 282.15,105.15 274.00,105.00
             274.00,105.00 222.00,105.00 222.00,105.00
             225.96,110.74 231.58,109.00 238.00,109.00
             238.00,109.00 278.00,109.00 278.00,109.00
             278.00,109.00 278.00,255.00 278.00,255.00
             278.00,255.00 170.00,255.00 170.00,255.00
             170.00,255.00 170.00,157.00 170.00,157.00
             170.00,157.00 169.00,140.00 169.00,140.00
             169.00,140.00 170.00,106.00 170.00,106.00
             170.00,106.00 147.00,103.00 147.00,103.00
             147.00,106.15 147.83,117.40 145.40,119.18
             142.87,121.03 132.81,114.65 130.00,113.25
             130.00,113.25 95.00,95.65 95.00,95.65
             95.00,95.65 87.00,90.00 87.00,90.00
             94.99,82.45 113.94,71.34 124.00,64.67
             129.57,60.97 137.50,54.90 144.00,54.00
             144.00,54.00 145.00,72.00 145.00,72.00
             145.00,72.00 170.00,75.00 170.00,75.00
             169.06,69.78 168.82,67.36 168.96,62.00
             169.13,59.73 169.91,56.29 168.96,54.30
             166.64,49.93 161.18,50.01 157.00,50.14
             157.00,50.14 66.00,50.14 66.00,50.14
             66.00,50.14 34.09,50.14 34.09,50.14
             31.81,51.06 29.92,52.68 28.00,54.00 Z
           M 61.00,118.00
           C 60.15,120.16 58.70,122.76 58.19,125.00
             58.02,127.56 60.39,139.19 58.19,149.00
             58.19,149.00 76.00,148.00 76.00,148.00
             76.00,148.00 75.00,153.00 75.00,153.00
             64.96,151.20 62.02,150.90 62.00,162.00
             62.00,162.00 62.00,235.00 62.00,235.00
             61.99,237.95 62.27,241.37 60.40,243.85
             57.20,248.11 52.36,246.57 50.60,241.98
             49.89,240.13 50.00,237.02 50.00,235.00
             50.00,235.00 50.00,162.00 50.00,162.00
             49.98,149.89 46.17,151.66 36.00,153.00
             36.00,153.00 36.00,148.00 36.00,148.00
             36.00,148.00 53.81,149.00 53.81,149.00
             51.59,140.51 53.98,127.56 53.81,125.00
             53.30,122.76 51.85,120.16 51.00,118.00
             51.00,118.00 61.00,118.00 61.00,118.00 Z" />

    <path id="arrow"
        fill="#d36362" stroke="#d36362" stroke-width="1"
        d="M 90.00,89.00
           C 95.09,94.19 104.40,97.95 111.00,101.25
             111.00,101.25 144.00,118.00 144.00,118.00
             144.00,118.00 144.00,100.00 144.00,100.00
             156.75,100.00 170.61,102.26 182.00,108.32
             204.18,120.13 213.72,143.89 214.00,168.00
             214.02,170.47 214.17,174.70 213.26,176.91
             212.09,179.78 208.62,182.27 206.55,185.01
             203.73,188.76 202.24,193.34 202.04,198.00
             201.86,202.04 202.23,205.28 203.90,209.00
             214.74,233.10 250.85,222.79 248.67,198.00
             247.62,186.04 240.65,183.61 238.60,178.00
             237.60,175.29 238.04,164.58 238.00,161.00
             237.64,130.29 221.39,100.72 194.00,86.32
             179.31,78.59 158.52,75.00 142.00,75.00
             142.00,75.00 141.00,57.00 141.00,57.00
             141.00,57.00 126.00,65.81 126.00,65.81
             126.00,65.81 90.00,89.00 90.00,89.00 Z" />
</svg>
