<?xml version="1.0" encoding="UTF-8" standalone="no"?>
<!DOCTYPE svg PUBLIC "-//W3C//DTD SVG 20010904//EN"
              "http://www.w3.org/TR/2001/REC-SVG-20010904/DTD/svg10.dtd">

<svg xmlns="http://www.w3.org/2000/svg"
     width="0.55in" height="0.55in"
     viewBox="0 0 330 330">
  <path id="background"
        fill="#c630a3" stroke="black" stroke-width="1"
        d="M 159.00,21.08
           C 153.74,24.45 149.42,29.58 145.00,34.00
             145.00,34.00 123.00,56.00 123.00,56.00
             123.00,56.00 52.00,127.00 52.00,127.00
             52.00,127.00 26.00,153.00 26.00,153.00
             23.65,155.35 17.40,160.93 16.82,164.00
             16.10,167.89 21.52,172.50 24.00,175.00
             24.00,175.00 48.00,199.00 48.00,199.00
             48.00,199.00 105.99,257.00 105.99,257.00
             105.99,257.00 128.00,280.00 128.00,280.00
             128.00,280.00 149.00,301.00 149.00,301.00
             151.45,303.45 156.87,309.46 160.00,310.34
             165.36,311.86 174.41,300.59 178.00,297.00
             178.00,297.00 224.00,251.00 224.00,251.00
             224.00,251.00 284.00,191.00 284.00,191.00
             284.00,191.00 299.00,176.00 299.00,176.00
             301.42,173.56 304.94,170.47 305.67,167.00
             306.73,161.91 302.18,159.02 299.00,155.96
             299.00,155.96 276.00,133.00 276.00,133.00
             276.00,133.00 190.00,47.00 190.00,47.00
             190.00,47.00 170.00,27.00 170.00,27.00
             166.36,23.39 164.40,20.07 159.00,21.08 Z" />
  <path id="hand"
        fill="white" stroke="white" stroke-width="1"
        d="M 149.00,71.00
           C 149.00,71.00 154.00,72.00 154.00,72.00
             154.00,72.00 149.00,71.00 149.00,71.00 Z
           M 142.00,85.00
           C 142.00,85.00 162.00,85.00 162.00,85.00
             162.00,85.00 159.71,82.59 159.71,82.59
             159.71,82.59 144.29,82.59 144.29,82.59
             144.29,82.59 142.00,85.00 142.00,85.00 Z
           M 190.00,85.00
           C 190.00,85.00 201.00,85.00 201.00,85.00
             197.51,81.55 193.05,80.44 190.00,85.00 Z
           M 109.00,98.00
           C 109.00,98.00 126.00,98.00 126.00,98.00
             126.00,98.00 126.00,95.00 126.00,95.00
             117.01,94.92 111.62,91.49 109.00,98.00 Z
           M 143.00,95.00
           C 143.00,95.00 143.00,98.00 143.00,98.00
             143.00,98.00 162.00,99.00 162.00,99.00
             162.00,99.00 162.00,95.00 162.00,95.00
             162.00,95.00 143.00,95.00 143.00,95.00 Z
           M 183.00,98.00
           C 186.91,99.11 199.32,98.95 202.71,97.41
             204.27,96.70 204.20,96.20 205.00,95.00
             205.00,95.00 185.41,95.57 185.41,95.57
             185.41,95.57 183.00,98.00 183.00,98.00 Z
           M 145.00,107.00
           C 145.00,107.00 145.00,112.00 145.00,112.00
             145.00,112.00 164.00,112.00 164.00,112.00
             164.00,112.00 164.00,107.00 164.00,107.00
             164.00,107.00 145.00,107.00 145.00,107.00 Z
           M 181.00,107.00
           C 181.00,107.00 181.00,112.00 181.00,112.00
             181.00,112.00 202.00,111.00 202.00,111.00
             202.00,111.00 202.00,107.00 202.00,107.00
             202.00,107.00 181.00,107.00 181.00,107.00 Z
           M 111.00,108.00
           C 111.00,108.00 111.00,112.00 111.00,112.00
             111.00,112.00 131.00,112.00 131.00,112.00
             131.00,112.00 131.00,108.00 131.00,108.00
             131.00,108.00 111.00,108.00 111.00,108.00 Z
           M 115.00,120.00
           C 115.00,120.00 116.00,125.00 116.00,125.00
             116.00,125.00 137.00,125.00 137.00,125.00
             137.00,125.00 133.78,121.02 133.78,121.02
             133.78,121.02 115.00,120.00 115.00,120.00 Z
           M 147.00,120.00
           C 147.00,120.00 147.00,126.00 147.00,126.00
             147.00,126.00 166.00,125.00 166.00,125.00
             166.00,125.00 165.00,120.00 165.00,120.00
             165.00,120.00 147.00,120.00 147.00,120.00 Z
           M 177.00,125.00
           C 177.00,125.00 199.00,124.00 199.00,124.00
             199.00,124.00 199.00,120.00 199.00,120.00
             199.00,120.00 185.00,120.83 185.00,120.83
             185.00,120.83 178.72,121.99 178.72,121.99
             178.72,121.99 177.00,125.00 177.00,125.00 Z
           M 87.00,124.00
           C 87.00,124.00 99.00,125.00 99.00,125.00
             95.90,119.83 91.07,119.98 87.00,124.00 Z
           M 86.00,133.00
           C 86.00,133.00 87.74,137.01 87.74,137.01
             87.74,137.01 93.00,138.00 93.00,138.00
             93.00,138.00 110.00,138.00 110.00,138.00
             110.00,138.00 107.44,133.99 107.44,133.99
             107.44,133.99 86.00,133.00 86.00,133.00 Z
           M 121.00,133.00
           C 121.00,133.00 121.00,138.00 121.00,138.00
             121.00,138.00 141.00,138.00 141.00,138.00
             141.00,138.00 141.00,133.00 141.00,133.00
             141.00,133.00 121.00,133.00 121.00,133.00 Z
           M 148.00,133.00
           C 148.00,133.00 148.00,138.00 148.00,138.00
             148.00,138.00 167.00,137.00 167.00,137.00
             167.00,137.00 165.28,133.99 165.28,133.99
             165.28,133.99 148.00,133.00 148.00,133.00 Z
           M 174.00,133.00
           C 174.00,133.00 174.00,138.00 174.00,138.00
             174.00,138.00 196.00,138.00 196.00,138.00
             196.00,138.00 196.00,133.00 196.00,133.00
             196.00,133.00 174.00,133.00 174.00,133.00 Z
           M 93.00,146.00
           C 93.00,146.00 95.42,149.98 95.42,149.98
             95.42,149.98 102.00,151.00 102.00,151.00
             102.00,151.00 119.00,151.00 119.00,151.00
             119.00,151.00 116.49,147.02 116.49,147.02
             116.49,147.02 110.00,146.00 110.00,146.00
             110.00,146.00 93.00,146.00 93.00,146.00 Z
           M 125.00,146.00
           C 125.00,146.00 125.00,151.00 125.00,151.00
             125.00,151.00 193.00,152.00 193.00,152.00
             193.00,152.00 193.00,146.00 193.00,146.00
             193.00,146.00 125.00,146.00 125.00,146.00 Z
           M 230.00,150.00
           C 230.00,150.00 235.00,151.00 235.00,151.00
             235.00,151.00 230.00,150.00 230.00,150.00 Z
           M 100.00,158.00
           C 100.00,158.00 104.33,163.98 104.33,163.98
             104.33,163.98 126.00,165.00 126.00,165.00
             126.00,165.00 198.00,165.00 198.00,165.00
             198.00,165.00 192.91,159.02 192.91,159.02
             192.91,159.02 171.00,158.00 171.00,158.00
             171.00,158.00 100.00,158.00 100.00,158.00 Z
           M 208.00,165.00
           C 208.00,165.00 230.00,165.00 230.00,165.00
             230.00,165.00 240.79,164.40 240.79,164.40
             240.79,164.40 245.00,159.00 245.00,159.00
             245.00,159.00 235.00,158.04 235.00,158.04
             235.00,158.04 221.00,158.04 221.00,158.04
             221.00,158.04 214.00,159.02 214.00,159.02
             214.00,159.02 208.00,165.00 208.00,165.00 Z
           M 108.00,171.00
           C 108.00,171.00 108.00,177.00 108.00,177.00
             108.00,177.00 131.00,177.00 131.00,177.00
             131.00,177.00 146.00,178.00 146.00,178.00
             146.00,178.00 198.00,178.00 198.00,178.00
             198.00,178.00 218.00,178.00 218.00,178.00
             218.00,178.00 226.00,176.98 226.00,176.98
             226.00,176.98 232.00,171.00 232.00,171.00
             232.00,171.00 108.00,171.00 108.00,171.00 Z
           M 109.00,184.00
           C 109.00,184.00 110.00,191.00 110.00,191.00
             110.00,191.00 190.00,191.00 190.00,191.00
             190.00,191.00 213.48,190.01 213.48,190.01
             213.48,190.01 218.00,183.00 218.00,183.00
             218.00,183.00 172.00,183.00 172.00,183.00
             172.00,183.00 155.00,184.00 155.00,184.00
             155.00,184.00 109.00,184.00 109.00,184.00 Z
           M 111.00,196.00
           C 111.00,196.00 112.00,204.00 112.00,204.00
             112.00,204.00 129.00,204.00 129.00,204.00
             129.00,204.00 144.00,205.00 144.00,205.00
             144.00,205.00 184.00,205.00 184.00,205.00
             184.00,205.00 200.00,205.00 200.00,205.00
             200.00,205.00 207.30,204.01 207.30,204.01
             207.30,204.01 211.00,196.00 211.00,196.00
             211.00,196.00 111.00,196.00 111.00,196.00 Z
           M 115.00,209.00
           C 119.89,216.69 121.03,217.98 130.00,218.00
             130.00,218.00 182.00,218.00 182.00,218.00
             185.49,218.00 198.04,218.63 200.37,217.01
             202.34,215.63 204.04,211.23 205.00,209.00
             205.00,209.00 115.00,209.00 115.00,209.00 Z
           M 125.00,222.00
           C 129.89,229.69 131.03,230.98 140.00,231.00
             140.00,231.00 178.00,230.17 178.00,230.17
             187.08,229.30 190.83,231.64 195.00,221.00
             195.00,221.00 125.00,222.00 125.00,222.00 Z
           M 135.00,234.00
           C 136.98,242.04 135.26,243.87 143.00,244.00
             143.00,244.00 188.00,244.00 188.00,244.00
             188.00,244.00 188.00,234.00 188.00,234.00
             188.00,234.00 135.00,234.00 135.00,234.00 Z
           M 137.01,247.00
           C 136.76,249.94 135.47,255.14 137.01,257.61
             138.86,260.50 143.87,261.20 147.00,261.75
             156.63,263.44 163.19,265.41 173.00,262.71
             187.26,258.78 187.95,258.92 188.00,251.00
             188.00,251.00 188.00,246.00 188.00,246.00
             188.00,246.00 137.01,247.00 137.01,247.00 Z" />
</svg>
