<?xml version="1.0" encoding="UTF-8" standalone="no"?>
<!DOCTYPE svg PUBLIC "-//W3C//DTD SVG 20010904//EN"
              "http://www.w3.org/TR/2001/REC-SVG-20010904/DTD/svg10.dtd">

<svg xmlns="http://www.w3.org/2000/svg"
     width="50" height="50"
     viewBox="0 0 300 300">
  <path id="retaliate"
        fill="black" stroke="black" stroke-width="1"
        d="M 129.00,62.00
           C 129.00,62.00 159.00,57.25 159.00,57.25
             161.94,56.76 169.21,55.85 171.35,54.10
             173.21,52.58 174.27,49.24 174.96,47.00
             175.61,44.89 176.83,40.09 176.52,38.00
             175.80,33.24 166.44,25.31 162.00,23.72
             155.33,21.34 146.20,24.92 140.00,27.40
             128.76,31.90 129.01,31.63 129.00,40.00
             129.00,40.00 129.00,62.00 129.00,62.00 Z
           M 64.00,92.00
           C 72.81,85.72 82.35,74.66 91.00,69.90
             96.52,66.87 104.73,65.51 110.96,65.00
             110.96,65.00 110.96,49.00 110.96,49.00
             110.96,49.00 110.04,41.00 110.04,41.00
             109.89,37.59 110.67,32.11 108.40,29.42
             107.08,27.85 104.89,27.01 103.00,26.36
             91.37,22.41 82.53,30.91 74.00,37.80
             74.00,37.80 68.00,42.95 68.00,42.95
             65.44,45.22 60.43,48.97 59.19,52.00
             58.05,54.79 59.44,60.91 59.87,64.00
             59.87,64.00 64.00,92.00 64.00,92.00 Z
           M 192.00,46.00
           C 192.00,46.00 181.71,81.00 181.71,81.00
             181.71,81.00 176.35,102.00 176.35,102.00
             175.40,106.20 172.99,114.94 174.60,118.90
             176.92,124.60 190.42,126.89 196.00,126.98
             197.92,127.02 200.87,127.12 202.49,125.98
             204.47,124.59 205.59,120.28 206.33,118.00
             206.33,118.00 212.86,96.00 212.86,96.00
             212.86,96.00 221.00,66.00 221.00,66.00
             221.63,62.96 223.25,56.89 222.22,54.09
             220.04,48.15 207.69,45.42 202.00,45.09
             198.55,44.89 195.39,45.55 192.00,46.00 Z
           M 163.00,68.47
           C 163.00,68.47 128.00,75.72 128.00,75.72
             119.82,76.80 103.82,77.99 97.00,81.75
             87.59,86.94 72.88,104.04 65.00,112.00
             65.00,112.00 48.92,130.00 48.92,130.00
             46.85,132.49 42.14,138.10 41.19,141.00
             39.48,146.22 48.95,158.42 52.00,163.00
             52.00,163.00 66.33,185.00 66.33,185.00
             68.30,187.94 72.87,194.15 74.00,197.00
             74.00,197.00 77.24,215.00 77.24,215.00
             78.70,221.22 80.94,231.26 89.00,230.77
             93.20,230.52 103.10,226.25 107.00,224.22
             126.98,213.77 148.24,184.38 141.23,161.00
             138.60,152.23 133.63,144.33 128.25,137.00
             126.25,134.29 121.19,129.46 121.87,126.02
             123.06,120.01 132.31,121.09 137.00,120.20
             147.81,118.13 159.27,115.03 165.12,105.00
             169.03,98.31 172.64,87.76 172.96,80.00
             173.29,72.18 171.70,68.12 163.00,68.47 Z
           M 235.04,75.33
           C 228.31,78.51 227.14,88.58 225.00,95.00
             225.00,95.00 216.63,122.00 216.63,122.00
             215.90,124.87 214.29,129.80 216.00,132.47
             218.20,135.90 226.14,137.53 230.00,137.82
             243.42,138.83 247.08,128.55 250.95,118.00
             254.66,107.88 260.08,96.73 256.12,86.00
             254.51,81.62 252.64,77.97 247.99,76.34
             246.28,75.74 242.84,75.20 241.00,75.33
             238.63,74.95 237.34,75.15 235.04,75.33 Z
           M 149.00,130.00
           C 149.88,139.74 155.81,148.80 156.00,165.00
             156.31,192.17 145.19,219.12 121.00,233.55
             111.65,239.12 104.52,241.02 94.00,243.00
             94.29,249.19 97.17,261.47 98.65,268.00
             99.15,270.23 100.01,275.64 101.73,277.01
             103.31,278.26 107.03,278.00 109.00,278.00
             109.00,278.00 154.00,278.00 154.00,278.00
             156.36,278.00 160.35,278.38 161.99,276.40
             163.05,275.13 163.47,271.67 163.75,270.00
             163.75,270.00 167.53,249.02 167.53,249.02
             170.24,241.29 173.89,248.08 175.30,252.00
             175.30,252.00 176.76,257.00 176.76,257.00
             176.76,257.00 178.39,265.00 178.39,265.00
             178.39,265.00 180.00,278.00 180.00,278.00
             180.00,278.00 221.00,278.00 221.00,278.00
             221.00,278.00 216.00,235.00 216.00,235.00
             215.92,227.89 215.33,219.64 217.93,213.00
             221.47,203.96 229.27,193.52 235.42,186.00
             237.83,183.06 244.18,176.65 244.30,173.00
             244.36,171.21 243.11,168.67 242.42,167.00
             240.97,163.47 237.04,151.89 234.50,149.98
             233.00,148.86 228.95,148.11 227.00,147.63
             227.00,147.63 209.00,143.35 209.00,143.35
             209.00,143.35 173.00,134.87 173.00,134.87
             165.09,132.95 157.17,130.38 149.00,130.00 Z" />
</svg>
