<?xml version="1.0" encoding="UTF-8" standalone="no"?>
<!DOCTYPE svg PUBLIC "-//W3C//DTD SVG 20010904//EN"
              "http://www.w3.org/TR/2001/REC-SVG-20010904/DTD/svg10.dtd">

<svg xmlns="http://www.w3.org/2000/svg"
     width="50" height="50"
     viewBox="0 0 300 300">
  <path id="shield"
        fill="black" stroke="black" stroke-width="1"
        d="M 144.00,28.52
           C 144.00,28.52 127.00,33.00 127.00,33.00
             127.00,33.00 65.00,41.73 65.00,41.73
             65.00,41.73 45.00,45.21 45.00,45.21
             42.61,45.72 38.50,46.41 37.02,48.51
             35.06,51.30 36.93,56.91 37.55,60.00
             38.78,66.17 39.99,76.74 40.00,83.00
             40.05,114.29 28.25,142.12 28.00,163.00
             27.80,180.42 28.22,193.42 41.17,206.91
             47.64,213.65 58.63,220.45 67.00,224.74
             67.00,224.74 106.00,240.81 106.00,240.81
             106.00,240.81 135.00,252.86 135.00,252.86
             138.28,254.67 144.48,259.67 148.00,259.05
             150.02,258.70 157.36,253.71 160.00,252.32
             160.00,252.32 181.00,243.42 181.00,243.42
             199.78,236.28 217.41,230.36 235.00,220.28
             246.61,213.63 257.39,204.68 262.55,192.00
             266.47,182.36 266.12,173.16 266.00,163.00
             265.75,142.12 253.95,114.29 254.00,83.00
             254.01,76.74 255.22,66.17 256.45,60.00
             257.07,56.91 258.94,51.30 256.98,48.51
             255.50,46.41 251.39,45.72 249.00,45.21
             249.00,45.21 230.00,41.87 230.00,41.87
             230.00,41.87 171.00,33.75 171.00,33.75
             163.36,32.42 150.56,27.63 144.00,28.52 Z" />
</svg>
