<?xml version="1.0" encoding="UTF-8" standalone="no"?>
<!DOCTYPE svg PUBLIC "-//W3C//DTD SVG 20010904//EN"
              "http://www.w3.org/TR/2001/REC-SVG-20010904/DTD/svg10.dtd">

<svg xmlns="http://www.w3.org/2000/svg"
     width="50" height="50"
     viewBox="0 0 300 300">
  <path id="strengthen"
        fill="#4b8cbe" stroke="#4b8cbe" stroke-width="1"
        d="M 147.00,11.93
           C 141.84,14.36 138.04,18.96 134.00,23.00
             134.00,23.00 113.00,44.00 113.00,44.00
             113.00,44.00 41.00,117.00 41.00,117.00
             41.00,117.00 17.00,141.00 17.00,141.00
             14.60,143.40 8.63,148.53 8.63,152.00
             8.63,155.15 12.90,158.89 15.00,161.00
             15.00,161.00 35.00,181.00 35.00,181.00
             35.00,181.00 117.00,263.00 117.00,263.00
             117.00,263.00 140.00,286.00 140.00,286.00
             142.38,288.36 146.27,293.05 150.00,292.26
             152.92,291.63 157.80,286.20 160.00,284.00
             160.00,284.00 181.00,263.00 181.00,263.00
             181.00,263.00 260.00,185.00 260.00,185.00
             260.00,185.00 282.00,163.00 282.00,163.00
             284.46,160.50 289.57,155.77 289.41,152.00
             289.29,149.26 286.76,146.86 284.98,145.00
             284.98,145.00 271.00,131.00 271.00,131.00
             271.00,131.00 216.00,76.00 216.00,76.00
             216.00,76.00 167.00,27.00 167.00,27.00
             164.06,24.06 153.95,13.36 151.00,11.93
             149.00,11.19 148.84,11.62 147.00,11.93 Z
           M 131.00,149.00
           C 139.70,142.84 155.66,139.05 166.00,142.47
             172.94,144.76 175.37,149.40 178.58,149.62
             178.58,149.62 191.00,144.34 191.00,144.34
             200.48,141.04 205.23,141.00 215.00,141.00
             215.00,156.85 219.46,175.11 217.42,190.00
             216.85,194.17 216.58,201.42 213.49,204.49
             210.45,207.51 205.83,206.96 202.00,206.42
             202.00,206.42 194.00,205.10 194.00,205.10
             194.00,205.10 180.00,200.90 180.00,200.90
             177.33,200.83 171.85,203.09 169.00,203.98
             164.45,205.38 156.73,206.81 152.00,206.96
             140.68,207.32 118.51,200.56 107.00,197.29
             99.46,195.15 86.53,193.93 83.13,185.98
             81.64,182.49 81.29,178.72 80.85,175.00
             78.76,157.61 83.95,143.68 90.72,128.00
             90.72,128.00 97.96,110.00 97.96,110.00
             99.71,104.25 99.75,99.34 103.13,94.00
             111.27,81.15 132.35,74.18 147.00,74.00
             163.47,73.81 171.00,76.78 171.00,95.00
             171.00,98.01 171.02,103.06 168.91,105.43
             167.35,107.19 163.30,107.38 161.00,107.75
             153.45,108.99 148.70,110.14 141.00,108.32
             138.59,107.76 133.22,105.46 131.21,105.92
             127.73,106.73 126.57,113.01 125.89,116.00
             123.27,127.52 129.46,137.60 131.00,149.00 Z" />
</svg>
