<?xml version="1.0" encoding="UTF-8" standalone="no"?>
<!DOCTYPE svg PUBLIC "-//W3C//DTD SVG 20010904//EN"
              "http://www.w3.org/TR/2001/REC-SVG-20010904/DTD/svg10.dtd">

<svg xmlns="http://www.w3.org/2000/svg"
     width="50" height="50"
     viewBox="0 0 300 300">
  <path id="stun"
        fill="#2c3e57" stroke="#2c3e57" stroke-width="1"
        d="M 149.00,12.08
           C 143.74,15.45 139.42,20.58 135.00,25.00
             135.00,25.00 113.00,47.00 113.00,47.00
             113.00,47.00 43.00,117.00 43.00,117.00
             43.00,117.00 19.00,141.00 19.00,141.00
             16.60,143.40 10.63,148.53 10.63,152.00
             10.63,155.15 14.90,158.89 17.00,161.00
             17.00,161.00 37.00,181.00 37.00,181.00
             37.00,181.00 119.00,263.00 119.00,263.00
             119.00,263.00 142.00,286.00 142.00,286.00
             144.74,288.72 148.65,293.72 153.00,291.92
             155.57,290.86 161.73,284.27 164.00,282.00
             164.00,282.00 185.00,261.00 185.00,261.00
             185.00,261.00 260.00,186.00 260.00,186.00
             260.00,186.00 284.00,162.00 284.00,162.00
             286.26,159.74 291.37,155.33 291.37,152.00
             291.37,148.85 287.10,145.11 285.00,143.00
             285.00,143.00 265.00,123.00 265.00,123.00
             265.00,123.00 183.00,41.00 183.00,41.00
             183.00,41.00 161.00,19.00 161.00,19.00
             157.24,15.25 154.66,11.02 149.00,12.08 Z
           M 146.00,65.00
           C 146.00,65.00 172.00,101.00 172.00,101.00
             172.00,101.00 214.00,90.00 214.00,90.00
             214.00,90.00 199.00,122.00 199.00,122.00
             199.00,122.00 238.00,139.00 238.00,139.00
             238.00,139.00 224.00,147.25 224.00,147.25
             224.00,147.25 201.00,158.00 201.00,158.00
             204.98,167.24 215.46,187.49 217.00,196.00
             217.00,196.00 176.00,190.00 176.00,190.00
             176.00,190.00 176.00,228.00 176.00,228.00
             169.03,224.77 163.75,218.54 158.00,213.58
             156.12,211.95 152.44,208.12 150.00,207.96
             147.21,207.77 142.15,212.47 140.00,214.25
             134.08,219.14 124.62,228.17 118.00,231.00
             118.00,231.00 117.00,210.00 117.00,210.00
             117.00,210.00 117.00,187.00 117.00,187.00
             117.00,187.00 64.00,179.00 64.00,179.00
             64.00,179.00 84.00,161.39 84.00,161.39
             84.00,161.39 105.00,145.00 105.00,145.00
             105.00,145.00 78.00,111.00 78.00,111.00
             78.00,111.00 125.00,111.00 125.00,111.00
             125.00,111.00 132.72,91.00 132.72,91.00
             132.72,91.00 144.00,65.00 144.00,65.00
             144.00,65.00 146.00,65.00 146.00,65.00 Z
           M 149.00,96.00
           C 149.00,96.00 138.72,114.00 138.72,114.00
             138.72,114.00 131.90,122.98 131.90,122.98
             131.90,122.98 111.00,126.00 111.00,126.00
             111.00,126.00 118.31,141.00 118.31,141.00
             118.31,141.00 120.99,148.00 120.99,148.00
             120.99,148.00 116.00,155.00 116.00,155.00
             116.00,155.00 104.00,168.00 104.00,168.00
             104.00,168.00 129.00,173.00 129.00,173.00
             129.00,173.00 132.00,198.00 132.00,198.00
             132.00,198.00 147.00,188.45 147.00,188.45
             147.00,188.45 164.00,200.00 164.00,200.00
             164.00,200.00 169.73,178.60 169.73,178.60
             169.73,178.60 177.00,177.00 177.00,177.00
             177.00,177.00 192.00,176.00 192.00,176.00
             192.00,176.00 182.00,154.00 182.00,154.00
             182.00,154.00 201.00,142.00 201.00,142.00
             196.84,137.85 184.80,132.65 179.00,131.00
             179.00,131.00 186.00,113.00 186.00,113.00
             186.00,113.00 168.04,118.37 168.04,118.37
             168.04,118.37 160.98,111.00 160.98,111.00
             160.98,111.00 149.00,96.00 149.00,96.00 Z
           M 152.00,120.00
           C 153.88,123.00 158.58,131.33 162.09,131.88
             164.13,132.19 169.77,129.77 172.00,129.00
             172.00,129.00 168.00,140.00 168.00,140.00
             168.00,140.00 180.00,145.00 180.00,145.00
             180.00,145.00 171.66,154.09 171.66,154.09
             171.66,154.09 175.00,166.00 175.00,166.00
             175.00,166.00 162.00,166.00 162.00,166.00
             162.00,166.00 159.00,179.00 159.00,179.00
             159.00,179.00 150.00,171.00 150.00,171.00
             150.00,171.00 141.00,178.00 141.00,178.00
             141.00,178.00 139.00,163.00 139.00,163.00
             139.00,163.00 125.00,161.00 125.00,161.00
             125.00,161.00 133.77,149.00 133.77,149.00
             133.77,149.00 129.00,137.00 129.00,137.00
             129.00,137.00 139.82,135.40 139.82,135.40
             143.56,133.83 148.30,123.82 150.00,120.00
             150.00,120.00 152.00,120.00 152.00,120.00 Z" />
</svg>
