<?xml version="1.0" encoding="UTF-8" standalone="no"?>
<!DOCTYPE svg PUBLIC "-//W3C//DTD SVG 20010904//EN"
              "http://www.w3.org/TR/2001/REC-SVG-20010904/DTD/svg10.dtd">

<svg xmlns="http://www.w3.org/2000/svg"
     width="50" height="50"
     viewBox="0 0 300 300">
  <path id="wound"
        fill="#d55b2b" stroke="#d55b2b" stroke-width="1"
        d="M 149.00,12.08
           C 143.74,15.45 139.42,20.58 135.00,25.00
             135.00,25.00 113.00,47.00 113.00,47.00
             113.00,47.00 43.00,117.00 43.00,117.00
             43.00,117.00 19.00,141.00 19.00,141.00
             16.60,143.40 10.63,148.53 10.63,152.00
             10.63,155.15 14.90,158.89 17.00,161.00
             17.00,161.00 37.00,181.00 37.00,181.00
             37.00,181.00 119.00,263.00 119.00,263.00
             119.00,263.00 142.00,286.00 142.00,286.00
             144.74,288.72 148.65,293.72 153.00,291.92
             155.57,290.86 161.73,284.27 164.00,282.00
             164.00,282.00 185.00,261.00 185.00,261.00
             185.00,261.00 260.00,186.00 260.00,186.00
             260.00,186.00 284.00,162.00 284.00,162.00
             286.26,159.74 291.37,155.33 291.37,152.00
             291.37,148.85 287.10,145.11 285.00,143.00
             285.00,143.00 265.00,123.00 265.00,123.00
             265.00,123.00 183.00,41.00 183.00,41.00
             183.00,41.00 161.00,19.00 161.00,19.00
             157.24,15.25 154.66,11.02 149.00,12.08 Z
           M 143.00,61.00
           C 142.69,67.78 141.34,72.81 145.65,79.00
             152.41,88.69 164.54,90.97 169.00,78.00
             178.32,83.05 180.29,91.04 178.68,101.00
             177.93,105.64 175.75,111.21 177.74,115.90
             180.48,122.37 190.62,122.46 193.00,110.00
             197.20,112.04 198.66,113.77 200.67,118.00
             207.15,131.61 198.45,141.75 198.04,154.00
             197.75,162.79 202.33,172.81 192.00,178.00
             192.00,178.00 165.44,136.00 165.44,136.00
             163.10,130.83 159.69,119.42 154.00,117.84
             146.70,115.83 144.02,127.27 141.74,132.00
             138.27,139.19 134.67,146.30 130.31,153.00
             122.70,164.68 115.82,171.49 110.00,185.00
             93.50,179.32 99.00,155.71 104.81,144.00
             104.81,144.00 109.93,134.00 109.93,134.00
             111.59,129.72 112.16,126.59 111.96,122.00
             111.55,112.69 106.93,108.98 102.00,102.00
             107.71,100.38 113.12,100.43 117.91,104.39
             120.66,106.66 123.80,111.57 127.00,112.60
             131.17,113.95 135.01,109.45 134.62,105.00
             134.62,105.00 129.52,90.00 129.52,90.00
             127.10,78.70 131.73,65.43 143.00,61.00 Z
           M 154.00,123.00
           C 158.50,135.96 164.72,147.77 172.59,159.00
             181.06,171.09 192.27,184.64 192.96,200.00
             193.62,214.61 188.24,227.81 176.00,236.38
             154.27,251.59 123.59,242.22 114.70,217.00
             105.35,190.50 124.03,173.29 136.95,153.00
             136.95,153.00 152.00,123.00 152.00,123.00
             152.00,123.00 154.00,123.00 154.00,123.00 Z" />
</svg>
