<?xml version="1.0" encoding="UTF-8" standalone="no"?>
<!DOCTYPE svg PUBLIC "-//W3C//DTD SVG 20010904//EN"
              "http://www.w3.org/TR/2001/REC-SVG-20010904/DTD/svg10.dtd">

<svg xmlns="http://www.w3.org/2000/svg"
     width="50mm" height="50mm"
     viewBox="0 0 280 280">
  <path id="Selection #2"
        fill="none" stroke="black" stroke-width="1"
        d="M 0.00,0.00
           C 0.00,0.00 0.00,280.00 0.00,280.00
             0.00,280.00 280.00,280.00 280.00,280.00
             280.00,280.00 280.00,0.00 280.00,0.00
             280.00,0.00 0.00,0.00 0.00,0.00 Z
           M 223.00,62.00
           C 223.00,62.00 224.00,106.00 224.00,106.00
             224.15,113.82 227.73,115.72 233.00,121.00
             233.00,121.00 249.00,137.00 249.00,137.00
             251.21,139.21 257.80,144.93 257.80,148.00
             257.80,151.16 250.33,157.67 248.00,160.00
             248.00,160.00 232.00,176.00 232.00,176.00
             229.76,178.24 225.36,182.32 224.02,185.00
             222.90,187.24 223.02,189.57 223.00,192.00
             223.00,192.00 223.00,232.00 223.00,232.00
             223.00,232.00 179.00,233.00 179.00,233.00
             170.60,233.16 167.65,238.37 162.00,244.00
             162.00,244.00 147.00,258.00 147.00,258.00
             144.78,260.21 139.07,266.80 136.00,266.80
             132.93,266.80 127.21,260.21 125.00,258.00
             120.95,253.95 104.57,236.80 101.00,235.02
             98.76,233.90 96.43,234.02 94.00,233.96
             94.00,233.96 82.00,233.96 82.00,233.96
             82.00,233.96 70.00,233.00 70.00,233.00
             70.00,233.00 52.00,233.00 52.00,233.00
             52.00,233.00 52.00,189.00 52.00,189.00
             51.98,179.68 51.10,181.07 42.00,172.00
             42.00,172.00 18.00,149.00 18.00,149.00
             18.00,149.00 41.00,124.00 41.00,124.00
             41.00,124.00 51.20,112.00 51.20,112.00
             51.20,112.00 51.20,92.00 51.20,92.00
             51.20,92.00 50.00,63.00 50.00,63.00
             50.00,63.00 96.00,62.00 96.00,62.00
             103.82,61.85 105.72,58.27 111.00,53.00
             111.00,53.00 127.00,37.00 127.00,37.00
             128.93,35.07 133.65,29.98 136.00,29.17
             140.33,27.67 146.22,35.22 149.00,38.00
             149.00,38.00 165.00,54.00 165.00,54.00
             167.24,56.24 171.32,60.64 174.00,61.98
             176.24,63.10 178.57,62.98 181.00,62.96
             181.00,62.96 194.00,62.96 194.00,62.96
             194.00,62.96 206.00,62.00 206.00,62.00
             206.00,62.00 223.00,62.00 223.00,62.00 Z" />
</svg>
