<?xml version="1.0" encoding="UTF-8" standalone="no"?>
<!DOCTYPE svg PUBLIC "-//W3C//DTD SVG 20010904//EN"
              "http://www.w3.org/TR/2001/REC-SVG-20010904/DTD/svg10.dtd">

<svg xmlns="http://www.w3.org/2000/svg"
     width="50" height="50"
     viewBox="0 0 300 300">
  <path id="air"
        fill="#94a9ac" stroke="#94a9ac" stroke-width="1"
        d="M 133.00,19.21
           C 113.69,22.34 96.92,27.38 80.00,37.45
             51.81,54.22 32.20,80.10 22.00,111.00
             18.56,121.41 16.02,133.01 16.00,144.00
             15.96,167.47 16.36,180.56 25.45,203.00
             40.40,239.92 70.48,266.61 108.00,279.00
             116.87,281.93 129.70,284.89 139.00,285.00
             139.00,285.00 157.00,285.00 157.00,285.00
             177.14,284.97 198.53,277.29 216.00,267.69
             229.31,260.38 243.57,247.82 253.00,236.00
             299.82,177.27 289.41,90.13 229.00,44.89
             218.92,37.34 205.95,30.33 194.00,26.33
             182.02,22.33 169.72,19.02 157.00,19.21
             157.00,19.21 133.00,19.21 133.00,19.21 Z
           M 151.00,121.00
           C 148.81,120.05 145.22,117.71 143.00,118.05
             139.33,118.60 134.01,124.78 137.18,130.98
             139.49,135.52 145.02,138.16 150.00,137.78
             160.46,136.98 169.85,125.00 170.80,115.00
             171.92,103.27 159.75,93.71 149.00,92.55
             131.35,90.66 121.69,116.18 113.92,128.00
             107.51,137.75 99.74,144.41 88.00,146.54
             88.00,146.54 79.00,147.42 79.00,147.42
             73.03,148.21 56.82,148.92 53.00,144.00
             72.88,144.00 90.97,141.14 103.51,124.00
             113.93,109.76 115.51,89.66 134.00,82.47
             147.59,77.18 166.94,80.62 176.47,92.09
             188.37,106.40 182.83,130.93 168.00,140.90
             154.67,149.85 126.65,151.78 125.38,130.00
             125.22,127.39 125.89,124.43 126.81,122.00
             131.56,109.56 149.21,105.53 151.00,121.00 Z
           M 222.00,144.00
           C 222.00,149.19 221.59,153.63 225.39,157.79
             232.10,165.12 243.17,161.50 246.77,152.99
             251.07,142.85 238.90,134.25 230.00,133.34
             218.09,132.12 202.11,148.51 193.00,155.58
             178.01,167.21 156.23,176.97 137.00,177.00
             137.00,177.00 131.00,177.00 131.00,177.00
             120.86,176.98 117.43,175.37 108.00,172.88
             100.88,171.01 85.74,167.41 82.00,161.00
             107.16,168.29 134.89,172.33 159.00,159.51
             181.31,147.65 198.04,122.69 226.00,121.09
             242.87,120.13 263.06,132.24 261.91,151.00
             260.88,167.76 242.85,175.91 228.00,171.84
             223.25,170.54 218.58,168.10 215.70,163.96
             210.49,156.48 213.32,146.99 222.00,144.00 Z
           M 178.00,196.00
           C 167.80,186.72 178.56,172.90 190.00,172.10
             203.41,171.16 214.57,182.56 212.70,196.00
             211.30,206.05 205.78,212.86 197.00,217.69
             162.64,236.61 121.18,209.45 93.00,190.67
             93.00,190.67 75.00,179.44 75.00,179.44
             68.20,175.66 57.54,171.58 50.00,169.43
             45.53,168.15 38.93,167.79 36.00,164.00
             52.23,164.00 59.45,164.16 75.00,170.45
             75.00,170.45 101.00,183.69 101.00,183.69
             101.00,183.69 133.00,199.78 133.00,199.78
             143.33,204.63 157.56,210.26 169.00,210.91
             178.97,211.48 194.52,207.76 200.30,199.00
             206.54,189.52 195.79,180.71 189.00,181.98
             182.39,183.23 178.65,189.87 178.00,196.00 Z" />
</svg>
