<?xml version="1.0" encoding="UTF-8" standalone="no"?>
<!DOCTYPE svg PUBLIC "-//W3C//DTD SVG 20010904//EN"
              "http://www.w3.org/TR/2001/REC-SVG-20010904/DTD/svg10.dtd">

<svg xmlns="http://www.w3.org/2000/svg"
     width="50" height="50"
     viewBox="0 0 300 300">
  <path id="frost"
        fill="#2fbbdc" stroke="#2fbbdc" stroke-width="1"
        d="M 149.00,31.00
           C 149.00,31.00 149.00,152.00 149.00,152.00
             149.00,152.00 186.00,131.42 186.00,131.42
             186.00,131.42 254.00,92.00 254.00,92.00
             251.26,84.83 245.35,77.85 240.41,72.00
             218.63,46.18 182.55,31.00 149.00,31.00 Z" />
  <path id="fire"
        fill="#d14f2b" stroke="#d14f2b" stroke-width="1"
        d="M 151.00,152.00
           C 151.00,152.00 151.00,154.00 151.00,154.00
             151.00,154.00 221.00,194.42 221.00,194.42
             221.00,194.42 255.00,213.00 255.00,213.00
             271.41,187.53 274.79,149.85 266.71,121.00
             264.31,112.44 262.93,109.09 259.42,101.00
             258.34,98.52 256.97,94.48 253.90,93.99
             251.37,93.59 247.16,96.51 245.00,97.80
             245.00,97.80 226.00,108.72 226.00,108.72
             226.00,108.72 151.00,152.00 151.00,152.00 Z" />
  <path id="earth"
        fill="#819e3e" stroke="#819e3e" stroke-width="1"
        d="M 149.00,154.00
           C 149.00,154.00 149.00,275.00 149.00,275.00
             180.83,275.00 212.28,262.41 235.00,239.99
             241.23,233.83 250.98,222.16 254.00,214.00
             254.00,214.00 191.00,177.40 191.00,177.40
             191.00,177.40 166.00,162.99 166.00,162.99
             166.00,162.99 149.00,154.00 149.00,154.00 Z" />
  <path id="light"
        fill="#e5a72d" stroke="#e5a72d" stroke-width="1"
        d="M 44.00,214.00
           C 47.99,224.43 61.34,239.19 70.00,246.20
             92.95,264.75 119.35,275.00 149.00,275.00
             149.00,275.00 149.00,154.00 149.00,154.00
             149.00,154.00 112.00,174.58 112.00,174.58
             112.00,174.58 67.00,200.58 67.00,200.58
             67.00,200.58 44.00,214.00 44.00,214.00 Z" />

  <path id="darkness"
        fill="#1d262c" stroke="#1d262c" stroke-width="1"
        d="M 43.00,93.00
           C 21.86,125.82 21.86,180.18 43.00,213.00
             43.00,213.00 80.00,192.60 80.00,192.60
             80.00,192.60 120.00,169.58 120.00,169.58
             120.00,169.58 147.00,154.00 147.00,154.00
             147.00,154.00 147.00,152.00 147.00,152.00
             147.00,152.00 76.00,111.15 76.00,111.15
             76.00,111.15 43.00,93.00 43.00,93.00 Z" />

<path id="air"
        fill="#94a9ac" stroke="#94a9ac" stroke-width="1"
        d="M 44.00,93.00
           C 44.00,93.00 72.00,108.99 72.00,108.99
             72.00,108.99 149.00,153.00 149.00,153.00
             149.00,153.00 149.00,31.00 149.00,31.00
             116.92,31.00 85.85,43.31 63.00,66.00
             56.54,72.42 45.83,84.01 44.00,93.00 Z" />
</svg>
