<?xml version="1.0" encoding="UTF-8" standalone="no"?>
<!DOCTYPE svg PUBLIC "-//W3C//DTD SVG 20010904//EN"
              "http://www.w3.org/TR/2001/REC-SVG-20010904/DTD/svg10.dtd">

<svg xmlns="http://www.w3.org/2000/svg"
     width="50" height="50"
     viewBox="0 0 300 300">
  <path id="darkness"
        fill="#1d262c" stroke="#1d262c" stroke-width="1"
        d="M 140.00,29.21
           C 128.40,31.08 121.53,31.51 110.00,35.35
             79.75,45.44 54.24,67.46 39.97,96.00
             16.69,142.56 25.53,199.74 62.04,236.99
             74.44,249.64 91.38,259.91 108.00,265.95
             118.58,269.79 134.76,272.86 146.00,273.00
             165.56,273.23 183.15,269.33 201.00,261.41
             213.94,255.67 230.41,243.69 239.57,233.00
             250.75,219.95 258.63,207.26 264.31,191.00
             279.52,147.38 267.87,95.01 234.00,63.09
             222.30,52.07 208.86,43.61 194.00,37.60
             181.86,32.70 165.10,29.16 152.00,29.21
             152.00,29.21 140.00,29.21 140.00,29.21 Z
           M 128.00,77.45
           C 128.00,77.45 149.00,79.82 149.00,79.82
             149.00,79.82 170.00,77.34 170.00,77.34
             189.52,77.34 211.69,86.12 224.56,101.01
             258.55,140.33 246.08,201.74 196.00,219.95
             188.56,222.65 177.92,224.66 170.00,224.66
             170.00,224.66 149.00,222.18 149.00,222.18
             149.00,222.18 128.00,224.66 128.00,224.66
             109.00,224.66 88.43,216.62 75.17,202.91
             47.29,174.10 46.96,126.35 76.09,98.17
             91.91,82.86 107.01,79.20 128.00,77.45 Z
           M 119.00,84.43
           C 87.13,89.65 61.05,114.50 61.00,148.00
             61.00,148.00 61.00,156.00 61.00,156.00
             61.39,188.97 92.58,217.62 125.00,218.00
             136.42,218.13 146.53,216.58 157.00,211.68
             164.11,208.35 172.60,201.82 177.83,196.00
             183.32,189.88 187.67,182.68 190.58,175.00
             208.63,127.17 169.74,78.16 119.00,84.43 Z
           M 161.00,84.00
           C 165.16,90.61 173.16,90.05 180.00,91.45
             188.15,93.11 195.03,95.93 202.00,100.44
             236.84,122.97 239.86,170.53 208.00,197.08
             199.77,203.93 191.44,208.00 181.00,210.34
             173.96,211.91 165.29,211.18 161.00,218.00
             177.98,218.00 187.44,218.24 203.00,209.69
             241.24,188.69 249.31,133.95 217.83,103.29
             205.66,91.43 189.04,84.08 172.00,84.00
             172.00,84.00 161.00,84.00 161.00,84.00 Z" />
</svg>
