<?xml version="1.0" encoding="UTF-8" standalone="no"?>
<!DOCTYPE svg PUBLIC "-//W3C//DTD SVG 20010904//EN"
              "http://www.w3.org/TR/2001/REC-SVG-20010904/DTD/svg10.dtd">

<svg xmlns="http://www.w3.org/2000/svg"
     width="50" height="50"
     viewBox="0 0 300 300">
  <path id="earth"
        fill="#819e3e" stroke="#819e3e" stroke-width="1"
        d="M 141.00,31.42
           C 127.79,33.31 119.82,34.20 107.00,39.06
             79.04,49.67 55.20,71.24 41.81,98.00
             8.80,163.98 41.60,245.20 112.00,268.67
             122.21,272.07 136.25,274.87 147.00,275.00
             167.72,275.24 186.20,271.61 205.00,262.68
             216.32,257.30 231.41,246.13 239.91,237.00
             285.03,188.56 284.08,111.22 236.00,65.04
             221.98,51.57 205.42,42.23 187.00,36.34
             174.20,32.26 154.34,29.80 141.00,31.42 Z
           M 124.00,209.00
           C 124.00,216.99 123.82,218.01 125.65,226.00
             126.34,229.01 128.26,235.14 127.65,237.96
             126.34,243.97 114.64,247.41 111.89,240.94
             110.82,238.42 110.04,229.96 110.00,227.00
             109.84,212.71 111.24,197.40 119.09,185.00
             129.10,169.19 154.71,150.65 170.00,138.88
             180.48,130.81 192.63,121.37 198.00,109.00
             180.37,123.42 166.88,133.39 147.00,144.72
             131.66,153.46 120.31,159.92 110.03,175.00
             106.31,180.46 104.37,184.63 102.64,191.00
             102.11,192.95 101.38,197.68 99.47,198.60
             94.79,200.87 85.74,189.28 83.44,186.00
             71.76,169.36 72.79,152.23 82.31,135.00
             85.21,129.76 88.82,125.26 93.01,121.00
             120.07,93.59 149.54,99.47 183.00,91.11
             193.03,88.60 198.77,86.35 208.00,81.75
             210.42,80.55 214.89,77.65 217.42,79.70
             219.51,81.41 220.63,90.18 220.95,93.00
             222.37,105.56 223.14,115.30 223.00,128.00
             223.00,128.00 222.09,138.00 222.09,138.00
             220.15,164.45 213.73,185.96 192.00,202.99
             186.10,207.61 180.14,211.24 173.00,213.64
             168.00,215.33 158.18,217.26 153.00,216.83
             143.00,215.99 133.08,213.22 124.00,209.00 Z" />
</svg>
