<?xml version="1.0" encoding="UTF-8" standalone="no"?>
<!DOCTYPE svg PUBLIC "-//W3C//DTD SVG 20010904//EN"
              "http://www.w3.org/TR/2001/REC-SVG-20010904/DTD/svg10.dtd">

<svg xmlns="http://www.w3.org/2000/svg"
     width="50" height="50"
     viewBox="0 0 300 300">
  <path id="fire"
        fill="#d14f2b" stroke="#d14f2b" stroke-width="1"
        d="M 141.00,29.21
           C 141.00,29.21 122.00,32.47 122.00,32.47
             87.24,41.13 57.92,63.78 41.81,96.00
             8.25,163.12 43.03,246.95 116.00,267.86
             125.49,270.58 137.13,272.88 147.00,273.00
             167.47,273.24 186.42,269.49 205.00,260.68
             215.92,255.51 230.63,244.68 238.96,236.00
             284.54,188.55 284.28,111.89 237.99,65.00
             226.14,53.01 211.60,43.79 196.00,37.60
             183.50,32.64 167.47,29.06 154.00,29.21
             154.00,29.21 141.00,29.21 141.00,29.21 Z
           M 169.00,52.00
           C 169.00,52.00 168.00,67.00 168.00,67.00
             168.05,78.75 171.65,90.75 177.31,101.00
             187.34,119.16 200.69,122.09 212.56,139.00
             233.33,168.58 227.29,213.24 198.00,234.84
             188.49,241.86 180.24,245.65 169.00,249.00
             171.76,244.06 176.31,241.53 180.49,234.00
             188.97,218.70 188.13,198.70 177.00,185.00
             174.41,197.72 159.14,207.82 149.00,214.67
             141.54,219.71 134.16,225.25 133.20,235.00
             132.56,241.49 135.68,244.96 139.00,250.00
             124.16,249.32 110.44,242.33 100.00,232.00
             82.23,214.41 75.35,195.79 77.83,171.00
             79.15,157.86 81.63,142.33 93.00,134.00
             93.00,147.06 93.82,159.70 103.30,169.91
             110.64,177.81 118.99,178.86 128.00,173.03
             131.29,170.91 134.51,167.68 135.99,164.00
             139.24,155.99 131.86,137.10 130.00,128.00
             128.37,120.00 127.99,117.15 128.00,109.00
             128.04,85.59 143.01,54.34 169.00,52.00 Z" />
</svg>
