<?xml version="1.0" encoding="UTF-8" standalone="no"?>
<!DOCTYPE svg PUBLIC "-//W3C//DTD SVG 20010904//EN"
              "http://www.w3.org/TR/2001/REC-SVG-20010904/DTD/svg10.dtd">

<svg xmlns="http://www.w3.org/2000/svg"
     width="50" height="50"
     viewBox="0 0 300 300">
  <path id="light"
        fill="#819e3e" stroke="#819e3e" stroke-width="1"
        d="M 142.00,29.21
           C 130.40,31.08 123.53,31.51 112.00,35.35
             81.75,45.44 56.24,67.46 41.97,96.00
             18.69,142.56 27.53,199.74 64.04,236.99
             76.44,249.64 93.38,259.91 110.00,265.95
             120.58,269.79 136.76,272.86 148.00,273.00
             167.56,273.23 185.15,269.33 203.00,261.41
             215.94,255.67 232.41,243.69 241.57,233.00
             252.75,219.95 260.63,207.26 266.31,191.00
             281.52,147.38 269.87,95.01 236.00,63.09
             224.30,52.07 210.86,43.61 196.00,37.60
             183.86,32.70 167.10,29.16 154.00,29.21
             154.00,29.21 142.00,29.21 142.00,29.21 Z
           M 175.00,92.00
           C 175.00,92.00 212.00,80.00 212.00,80.00
             214.63,79.12 221.89,75.87 223.94,78.61
             225.69,80.96 222.55,88.34 221.67,91.00
             221.67,91.00 210.00,127.00 210.00,127.00
             210.00,127.00 244.00,143.75 244.00,143.75
             246.62,145.06 253.37,147.60 253.37,151.00
             253.37,154.40 246.62,156.94 244.00,158.25
             244.00,158.25 210.00,175.00 210.00,175.00
             210.00,175.00 221.67,211.00 221.67,211.00
             222.55,213.66 225.69,221.04 223.94,223.39
             221.89,226.13 214.63,222.88 212.00,222.00
             212.00,222.00 175.00,210.00 175.00,210.00
             175.00,210.00 158.25,244.00 158.25,244.00
             156.94,246.62 154.40,253.37 151.00,253.37
             147.60,253.37 145.06,246.62 143.75,244.00
             143.75,244.00 127.00,210.00 127.00,210.00
             127.00,210.00 91.00,221.67 91.00,221.67
             88.34,222.55 80.96,225.69 78.61,223.94
             75.87,221.89 79.12,214.63 80.00,212.00
             80.00,212.00 92.00,175.00 92.00,175.00
             92.00,175.00 58.00,158.25 58.00,158.25
             55.38,156.94 48.63,154.40 48.63,151.00
             48.63,147.60 55.38,145.06 58.00,143.75
             58.00,143.75 92.00,127.00 92.00,127.00
             92.00,127.00 80.33,91.00 80.33,91.00
             79.45,88.34 76.31,80.96 78.06,78.61
             80.11,75.87 87.37,79.12 90.00,80.00
             90.00,80.00 127.00,92.00 127.00,92.00
             127.00,92.00 143.75,58.00 143.75,58.00
             145.06,55.38 147.60,48.63 151.00,48.63
             154.40,48.63 156.94,55.38 158.25,58.00
             158.25,58.00 175.00,92.00 175.00,92.00 Z
           M 150.00,68.00
           C 150.00,68.00 135.00,95.00 135.00,95.00
             137.63,95.88 143.88,98.59 146.30,96.97
             147.90,95.90 150.06,90.02 151.00,88.00
             151.94,90.02 154.10,95.90 155.70,96.97
             158.12,98.59 164.37,95.88 167.00,95.00
             167.00,95.00 152.00,68.00 152.00,68.00
             152.00,68.00 150.00,68.00 150.00,68.00 Z
           M 92.00,92.00
           C 92.00,92.00 99.00,122.00 99.00,122.00
             103.11,121.23 110.44,119.47 109.32,113.96
             109.32,113.96 107.00,107.00 107.00,107.00
             109.08,107.59 114.12,109.68 115.79,109.50
             119.66,109.07 121.41,102.14 122.00,99.00
             122.00,99.00 92.00,92.00 92.00,92.00 Z
           M 180.00,99.00
           C 180.77,103.11 182.53,110.44 188.04,109.32
             188.04,109.32 195.00,107.00 195.00,107.00
             194.41,109.08 192.32,114.12 192.50,115.79
             192.93,119.66 199.86,121.41 203.00,122.00
             203.00,122.00 210.00,92.00 210.00,92.00
             210.00,92.00 180.00,99.00 180.00,99.00 Z
           M 124.00,114.00
           C 126.58,115.03 134.45,118.80 136.78,118.19
             140.04,117.34 142.77,108.07 144.00,105.00
             141.38,104.41 134.32,102.13 132.18,102.47
             128.22,103.09 125.08,110.59 124.00,114.00 Z
           M 158.00,105.00
           C 159.23,108.07 161.96,117.34 165.22,118.19
             167.55,118.80 175.42,115.03 178.00,114.00
             176.92,110.59 173.78,103.09 169.82,102.47
             167.68,102.13 160.62,104.41 158.00,105.00 Z
           M 105.00,144.00
           C 108.07,142.77 117.34,140.04 118.19,136.78
             118.80,134.45 115.03,126.58 114.00,124.00
             110.59,125.08 103.09,128.22 102.47,132.18
             102.13,134.32 104.41,141.38 105.00,144.00 Z
           M 188.00,124.00
           C 186.97,126.58 183.20,134.45 183.81,136.78
             184.66,140.04 193.93,142.77 197.00,144.00
             197.59,141.38 199.87,134.32 199.53,132.18
             198.91,128.22 191.41,125.08 188.00,124.00 Z
           M 68.00,150.00
           C 68.00,150.00 68.00,152.00 68.00,152.00
             68.00,152.00 95.00,167.00 95.00,167.00
             95.88,164.37 98.59,158.12 96.97,155.70
             95.90,154.10 90.02,151.94 88.00,151.00
             90.02,150.06 95.90,147.90 96.97,146.30
             98.59,143.88 95.88,137.63 95.00,135.00
             95.00,135.00 68.00,150.00 68.00,150.00 Z
           M 207.00,135.00
           C 206.12,137.63 203.41,143.88 205.03,146.30
             206.10,147.90 211.98,150.06 214.00,151.00
             211.98,151.94 206.10,154.10 205.03,155.70
             203.41,158.12 206.12,164.37 207.00,167.00
             207.00,167.00 234.00,152.00 234.00,152.00
             234.00,152.00 234.00,150.00 234.00,150.00
             234.00,150.00 207.00,135.00 207.00,135.00 Z
           M 105.00,158.00
           C 104.41,160.62 102.13,167.68 102.47,169.82
             103.09,173.78 110.59,176.92 114.00,178.00
             115.03,175.42 118.80,167.55 118.19,165.22
             117.34,161.96 108.07,159.23 105.00,158.00 Z
           M 196.00,158.00
           C 193.39,159.35 185.25,162.31 184.13,164.41
             182.70,167.09 186.84,175.11 188.00,178.00
             199.88,174.25 202.72,168.99 196.00,158.00 Z
           M 99.00,180.00
           C 99.00,180.00 92.00,210.00 92.00,210.00
             92.00,210.00 122.00,203.00 122.00,203.00
             121.23,198.89 119.47,191.56 113.96,192.68
             113.96,192.68 107.00,195.00 107.00,195.00
             107.59,192.92 109.68,187.88 109.50,186.21
             109.07,182.34 102.14,180.59 99.00,180.00 Z
           M 195.00,195.00
           C 192.92,194.41 187.88,192.32 186.21,192.50
             182.34,192.93 180.59,199.86 180.00,203.00
             180.00,203.00 210.00,210.00 210.00,210.00
             210.00,210.00 203.00,180.00 203.00,180.00
             198.89,180.77 191.56,182.53 192.68,188.04
             192.68,188.04 195.00,195.00 195.00,195.00 Z
           M 124.00,188.00
           C 125.08,191.41 128.22,198.91 132.18,199.53
             134.32,199.87 141.38,197.59 144.00,197.00
             142.77,193.93 140.04,184.66 136.78,183.81
             134.45,183.20 126.58,186.97 124.00,188.00 Z
           M 158.00,197.00
           C 160.62,197.59 167.68,199.87 169.82,199.53
             173.78,198.91 176.92,191.41 178.00,188.00
             175.42,186.97 167.55,183.20 165.22,183.81
             161.96,184.66 159.23,193.93 158.00,197.00 Z
           M 135.00,207.00
           C 135.00,207.00 150.00,234.00 150.00,234.00
             150.00,234.00 152.00,234.00 152.00,234.00
             152.00,234.00 167.00,207.00 167.00,207.00
             164.37,206.12 158.12,203.41 155.70,205.03
             154.10,206.10 151.94,211.98 151.00,214.00
             150.06,211.98 147.90,206.10 146.30,205.03
             143.88,203.41 137.63,206.12 135.00,207.00 Z" />
</svg>
