<?xml version="1.0" encoding="UTF-8" standalone="no"?>
<!DOCTYPE svg PUBLIC "-//W3C//DTD SVG 20010904//EN"
              "http://www.w3.org/TR/2001/REC-SVG-20010904/DTD/svg10.dtd">

<svg xmlns="http://www.w3.org/2000/svg"
     width="50" height="50"
     viewBox="0 0 300 300">
  <path id="frost"
        fill="#2fbbdc" stroke="#2fbbdc" stroke-width="1"
        d="M 140.00,28.21
           C 129.10,29.98 120.70,30.79 110.00,34.35
             82.72,43.44 59.17,62.31 44.45,87.00
             16.02,134.69 23.05,196.21 62.04,235.99
             73.95,248.14 90.16,258.06 106.00,264.19
             116.91,268.41 134.31,271.86 146.00,272.00
             165.22,272.22 184.65,268.27 202.00,259.89
             214.23,253.98 228.73,244.03 237.83,234.00
             281.91,185.43 282.67,109.78 234.99,63.04
             223.80,52.08 209.46,42.97 195.00,37.01
             182.34,31.80 164.70,28.07 151.00,28.21
             151.00,28.21 140.00,28.21 140.00,28.21 Z
           M 153.00,67.00
           C 155.81,65.67 167.72,60.06 169.98,59.78
             173.54,59.33 175.29,62.12 173.92,64.73
             171.75,68.87 156.85,71.96 154.02,76.39
             152.90,78.15 152.98,80.97 153.02,83.00
             153.07,85.83 153.34,87.28 154.00,90.00
             154.00,90.00 165.00,85.14 165.00,85.14
             168.19,83.72 180.26,76.00 182.34,81.30
             184.10,85.76 176.89,88.16 174.00,89.42
             170.66,90.88 156.53,97.05 155.02,99.39
             153.78,101.32 154.00,104.74 154.00,107.00
             153.99,110.63 153.41,121.06 155.02,123.79
             156.34,126.03 159.76,127.73 162.00,129.01
             163.74,130.00 165.95,131.43 168.00,131.49
             171.23,131.59 181.60,125.09 185.00,123.25
             187.03,122.16 189.48,121.11 190.36,118.79
             190.95,117.27 189.87,106.26 189.58,104.00
             189.12,100.55 186.65,86.63 192.05,86.63
             195.51,86.63 195.80,90.48 196.02,93.00
             196.02,93.00 198.00,116.00 198.00,116.00
             198.00,116.00 212.00,109.00 212.00,109.00
             211.29,106.08 209.50,90.83 209.65,88.04
             209.79,85.33 211.65,82.64 214.59,84.28
             216.62,85.42 216.78,87.97 217.05,90.00
             217.05,90.00 219.00,105.00 219.00,105.00
             221.93,103.09 228.76,98.86 231.98,98.07
             234.72,97.40 237.86,98.54 237.04,101.86
             236.32,104.78 226.01,110.53 223.00,113.00
             226.77,114.60 234.06,119.24 236.68,122.30
             238.49,124.40 239.55,128.41 235.85,129.13
             231.47,129.98 220.27,118.39 216.28,117.62
             213.96,117.17 205.74,122.68 203.00,124.00
             203.00,124.00 223.71,138.90 223.71,138.90
             227.18,142.40 225.95,146.74 221.95,146.08
             216.80,145.22 200.54,130.65 196.00,130.14
             193.09,129.81 188.50,133.09 186.00,134.60
             178.11,139.36 173.00,140.23 173.00,150.00
             173.00,152.20 172.90,154.85 174.02,156.82
             175.60,159.58 190.74,168.94 194.00,169.71
             198.28,170.72 204.51,165.06 208.00,162.66
             208.00,162.66 220.00,154.60 220.00,154.60
             221.92,153.75 224.36,153.19 225.60,155.43
             227.24,158.39 223.99,161.00 221.96,162.57
             217.44,166.05 208.00,172.56 203.00,175.00
             205.47,177.02 213.23,183.12 216.42,182.45
             220.19,181.67 231.35,170.24 235.85,170.99
             239.59,171.61 238.46,175.62 236.68,177.70
             233.89,180.96 227.02,185.44 223.00,187.00
             226.01,189.47 236.32,195.22 237.04,198.14
             237.86,201.46 234.72,202.60 231.98,201.93
             228.76,201.14 221.93,196.91 219.00,195.00
             219.00,195.00 216.57,212.89 216.57,212.89
             215.75,215.47 213.09,217.52 210.77,215.22
             209.19,213.65 209.70,210.98 209.85,209.00
             210.10,205.77 211.59,195.44 210.98,193.10
             209.99,189.31 201.45,185.82 198.00,184.00
             198.00,184.00 196.02,207.00 196.02,207.00
             195.80,209.52 195.51,213.37 192.05,213.37
             186.82,213.37 188.98,200.37 189.42,197.00
             189.73,194.64 190.84,183.70 190.31,182.04
             188.98,177.85 178.04,172.83 174.00,170.75
             172.23,169.83 169.59,168.17 167.58,168.38
             165.98,168.54 163.42,170.18 162.00,171.00
             159.74,172.30 156.35,173.95 155.02,176.21
             153.41,178.94 153.99,189.37 154.00,193.00
             154.00,195.26 153.78,198.68 155.02,200.61
             156.53,202.95 170.66,209.12 174.00,210.58
             176.89,211.84 184.10,214.24 182.34,218.70
             180.26,224.00 168.19,216.28 165.00,214.86
             161.07,213.11 157.14,211.18 153.00,210.00
             153.00,213.64 152.21,221.66 154.60,224.37
             157.94,228.15 171.86,231.35 173.92,235.27
             175.29,237.88 173.54,240.67 169.98,240.22
             167.72,239.94 155.81,234.33 153.00,233.00
             153.00,236.81 154.63,251.14 149.00,251.14
             143.37,251.14 145.00,236.81 145.00,233.00
             142.19,234.33 130.28,239.94 128.02,240.22
             124.46,240.67 122.71,237.88 124.08,235.27
             126.25,231.13 141.15,228.04 143.99,223.61
             145.96,220.51 144.62,213.49 143.99,210.00
             143.99,210.00 133.00,214.86 133.00,214.86
             129.81,216.28 117.74,224.00 115.66,218.70
             113.90,214.24 121.11,211.84 124.00,210.58
             127.34,209.12 141.47,202.95 142.98,200.61
             144.22,198.68 144.00,195.26 144.00,193.00
             144.01,189.37 144.59,178.94 142.98,176.21
             141.65,173.96 138.25,172.28 136.00,171.00
             134.29,170.03 131.41,168.22 129.42,168.23
             127.58,168.24 125.56,169.69 123.99,170.58
             120.52,172.54 108.89,177.94 107.64,181.21
             107.05,182.73 108.13,193.74 108.42,196.00
             108.88,199.45 111.35,213.37 105.95,213.37
             102.49,213.37 102.20,209.52 101.98,207.00
             101.98,207.00 100.00,184.00 100.00,184.00
             96.52,185.67 88.02,189.27 87.02,193.10
             86.41,195.44 87.90,205.77 88.15,209.00
             88.30,210.98 88.81,213.65 87.23,215.22
             84.91,217.52 82.25,215.47 81.43,212.89
             81.43,212.89 79.00,195.00 79.00,195.00
             76.07,196.91 69.24,201.14 66.02,201.93
             63.28,202.60 60.14,201.46 60.96,198.14
             61.68,195.22 71.99,189.47 75.00,187.00
             70.98,185.44 64.11,180.96 61.32,177.70
             59.54,175.62 58.41,171.61 62.15,170.99
             66.69,170.23 77.55,181.59 81.72,182.38
             84.05,182.83 92.25,177.32 95.00,176.00
             95.00,176.00 85.00,168.86 85.00,168.86
             85.00,168.86 78.00,163.98 78.00,163.98
             76.22,162.72 73.26,160.74 72.36,158.72
             71.14,155.96 72.97,152.89 77.02,154.19
             79.55,155.00 91.92,163.97 95.00,166.14
             97.67,168.03 100.50,170.57 104.00,169.70
             105.79,169.25 110.18,166.31 112.00,165.20
             120.09,160.29 125.00,159.96 125.00,150.00
             125.00,147.83 125.10,145.13 123.98,143.21
             122.24,140.24 111.44,134.17 108.00,132.21
             106.17,131.17 104.20,129.89 102.00,130.14
             99.44,130.43 92.42,135.71 90.00,137.42
             87.47,139.21 80.45,144.32 78.00,145.40
             76.08,146.25 73.64,146.81 72.40,144.57
             70.76,141.61 74.01,139.00 76.04,137.43
             80.56,133.95 90.00,127.44 95.00,125.00
             92.60,123.16 84.46,116.99 81.58,117.56
             78.04,118.26 66.51,129.98 62.15,129.13
             58.45,128.41 59.51,124.40 61.32,122.30
             63.94,119.24 71.23,114.60 75.00,113.00
             71.99,110.53 61.68,104.78 60.96,101.86
             60.14,98.54 63.28,97.40 66.02,98.07
             69.24,98.86 76.07,103.09 79.00,105.00
             79.00,105.00 80.95,90.00 80.95,90.00
             81.22,87.97 81.38,85.42 83.41,84.28
             86.35,82.64 88.21,85.33 88.35,88.04
             88.50,90.83 86.71,106.08 86.00,109.00
             86.00,109.00 100.00,116.00 100.00,116.00
             100.00,116.00 101.98,93.00 101.98,93.00
             102.20,90.48 102.49,86.63 105.95,86.63
             111.35,86.63 108.88,100.55 108.42,104.00
             108.13,106.26 107.05,117.27 107.64,118.79
             108.52,121.11 110.97,122.16 113.00,123.25
             116.40,125.09 126.77,131.59 130.00,131.49
             132.05,131.43 134.26,130.00 136.00,129.01
             138.24,127.73 141.66,126.03 142.98,123.79
             144.59,121.06 144.01,110.63 144.00,107.00
             144.00,104.74 144.22,101.32 142.98,99.39
             141.47,97.05 127.34,90.88 124.00,89.42
             121.11,88.16 113.90,85.76 115.66,81.30
             117.74,76.00 129.81,83.72 133.00,85.14
             133.00,85.14 144.00,90.00 144.00,90.00
             144.66,87.28 144.93,85.83 144.98,83.00
             145.02,80.97 145.10,78.15 143.98,76.39
             141.15,71.96 126.25,68.87 124.08,64.73
             122.71,62.12 124.46,59.33 128.02,59.78
             130.28,60.06 142.19,65.67 145.00,67.00
             145.00,63.19 143.37,48.86 149.00,48.86
             154.63,48.86 153.00,63.19 153.00,67.00 Z" />

    <path id="no-element"
        fill="#d36362" stroke="#d36362" stroke-width="1"
        d="M 136.00,22.21
           C 117.14,25.27 101.57,29.59 85.00,39.45
             55.26,57.14 33.98,85.44 25.63,119.00
             23.73,126.61 22.04,135.15 22.00,143.00
             21.91,162.34 22.15,175.24 28.69,194.00
             42.88,234.66 77.30,266.00 119.00,276.37
             125.90,278.09 134.92,279.91 142.00,280.00
             170.95,280.33 189.07,277.94 215.00,263.69
             228.46,256.30 242.63,243.93 252.19,232.00
             289.09,185.94 289.56,118.80 253.76,72.00
             240.52,54.69 225.41,43.30 206.00,33.76
             192.60,27.17 172.96,22.02 158.00,22.21
             158.00,22.21 136.00,22.21 136.00,22.21 Z
           M 145.00,28.28
           C 152.01,27.63 154.31,28.16 161.00,28.83
             179.92,30.72 191.97,34.09 209.00,42.76
             213.90,45.25 218.56,48.17 223.00,51.43
             224.44,52.49 227.16,54.38 227.66,56.17
             228.31,58.48 226.33,60.45 224.94,62.00
             224.94,62.00 212.00,75.00 212.00,75.00
             212.00,75.00 168.00,119.00 168.00,119.00
             168.00,119.00 157.00,129.98 157.00,129.98
             155.49,131.42 153.24,133.80 151.00,133.80
             148.76,133.80 146.51,131.42 145.00,129.98
             145.00,129.98 134.00,119.00 134.00,119.00
             134.00,119.00 90.00,75.00 90.00,75.00
             90.00,75.00 77.06,62.00 77.06,62.00
             75.67,60.45 73.69,58.48 74.34,56.17
             75.20,53.11 86.87,46.03 90.00,44.31
             104.18,36.52 117.98,31.73 134.00,29.43
             134.00,29.43 145.00,28.28 145.00,28.28 Z
           M 57.09,74.20
           C 62.75,76.02 71.44,86.44 76.00,91.00
             76.00,91.00 117.00,132.00 117.00,132.00
             117.00,132.00 129.98,145.00 129.98,145.00
             131.42,146.51 133.80,148.76 133.80,151.00
             133.80,154.16 126.33,160.67 124.00,163.00
             124.00,163.00 93.00,194.00 93.00,194.00
             93.00,194.00 68.00,219.00 68.00,219.00
             65.86,221.14 60.03,227.80 57.09,227.80
             54.17,227.80 50.84,222.20 49.34,220.00
             43.97,212.10 38.72,202.06 35.67,193.00
             25.27,162.13 25.16,128.70 39.76,99.00
             42.96,92.48 50.39,76.53 57.09,74.20 Z
           M 244.91,74.20
           C 251.61,76.53 259.04,92.48 262.24,99.00
             276.84,128.70 276.73,162.13 266.33,193.00
             263.28,202.06 258.03,212.10 252.66,220.00
             251.16,222.20 247.83,227.80 244.91,227.80
             241.97,227.80 236.14,221.14 234.00,219.00
             234.00,219.00 209.00,194.00 209.00,194.00
             209.00,194.00 178.00,163.00 178.00,163.00
             175.67,160.67 168.20,154.16 168.20,151.00
             168.20,148.76 170.58,146.51 172.02,145.00
             172.02,145.00 185.00,132.00 185.00,132.00
             185.00,132.00 226.00,91.00 226.00,91.00
             230.56,86.44 239.25,76.02 244.91,74.20 Z
           M 151.00,168.20
           C 155.94,169.73 159.40,174.40 163.00,178.00
             163.00,178.00 185.00,200.00 185.00,200.00
             185.00,200.00 217.00,232.00 217.00,232.00
             219.37,234.37 227.80,241.82 227.80,244.91
             227.80,247.48 223.88,249.95 222.00,251.28
             214.59,256.53 210.99,258.32 203.00,262.24
             172.45,277.26 137.50,276.78 106.00,265.31
             98.22,262.47 87.83,256.70 81.00,251.98
             78.64,250.34 73.43,247.40 74.34,243.96
             75.01,241.39 82.76,234.24 85.00,232.00
             85.00,232.00 113.00,204.00 113.00,204.00
             113.00,204.00 138.00,179.00 138.00,179.00
             141.86,175.14 145.71,169.84 151.00,168.20 Z" />
</svg>
