<?xml version="1.0" encoding="UTF-8" standalone="no"?>
<!DOCTYPE svg PUBLIC "-//W3C//DTD SVG 20010904//EN"
              "http://www.w3.org/TR/2001/REC-SVG-20010904/DTD/svg10.dtd">

<svg xmlns="http://www.w3.org/2000/svg"
     width="50" height="50"
     viewBox="0 0 300 300">
  <path id="frost"
        fill="#2fbbdc" stroke="#2fbbdc" stroke-width="1"
        d="M 149.00,31.00
           C 149.00,31.00 149.00,152.00 149.00,152.00
             149.00,152.00 186.00,131.42 186.00,131.42
             186.00,131.42 254.00,92.00 254.00,92.00
             251.26,84.83 245.35,77.85 240.41,72.00
             218.63,46.18 182.55,31.00 149.00,31.00 Z" />
  <path id="fire"
        fill="#d14f2b" stroke="#d14f2b" stroke-width="1"
        d="M 151.00,152.00
           C 151.00,152.00 151.00,154.00 151.00,154.00
             151.00,154.00 221.00,194.42 221.00,194.42
             221.00,194.42 255.00,213.00 255.00,213.00
             271.41,187.53 274.79,149.85 266.71,121.00
             264.31,112.44 262.93,109.09 259.42,101.00
             258.34,98.52 256.97,94.48 253.90,93.99
             251.37,93.59 247.16,96.51 245.00,97.80
             245.00,97.80 226.00,108.72 226.00,108.72
             226.00,108.72 151.00,152.00 151.00,152.00 Z" />
  <path id="earth"
        fill="#819e3e" stroke="#819e3e" stroke-width="1"
        d="M 149.00,154.00
           C 149.00,154.00 149.00,275.00 149.00,275.00
             180.83,275.00 212.28,262.41 235.00,239.99
             241.23,233.83 250.98,222.16 254.00,214.00
             254.00,214.00 191.00,177.40 191.00,177.40
             191.00,177.40 166.00,162.99 166.00,162.99
             166.00,162.99 149.00,154.00 149.00,154.00 Z" />
  <path id="light"
        fill="#e5a72d" stroke="#e5a72d" stroke-width="1"
        d="M 44.00,214.00
           C 47.99,224.43 61.34,239.19 70.00,246.20
             92.95,264.75 119.35,275.00 149.00,275.00
             149.00,275.00 149.00,154.00 149.00,154.00
             149.00,154.00 112.00,174.58 112.00,174.58
             112.00,174.58 67.00,200.58 67.00,200.58
             67.00,200.58 44.00,214.00 44.00,214.00 Z" />

  <path id="darkness"
        fill="#1d262c" stroke="#1d262c" stroke-width="1"
        d="M 43.00,93.00
           C 21.86,125.82 21.86,180.18 43.00,213.00
             43.00,213.00 80.00,192.60 80.00,192.60
             80.00,192.60 120.00,169.58 120.00,169.58
             120.00,169.58 147.00,154.00 147.00,154.00
             147.00,154.00 147.00,152.00 147.00,152.00
             147.00,152.00 76.00,111.15 76.00,111.15
             76.00,111.15 43.00,93.00 43.00,93.00 Z" />

<path id="air"
        fill="#94a9ac" stroke="#94a9ac" stroke-width="1"
        d="M 44.00,93.00
           C 44.00,93.00 72.00,108.99 72.00,108.99
             72.00,108.99 149.00,153.00 149.00,153.00
             149.00,153.00 149.00,31.00 149.00,31.00
             116.92,31.00 85.85,43.31 63.00,66.00
             56.54,72.42 45.83,84.01 44.00,93.00 Z" />
<path id="no-element"
        fill="#d36362" stroke="#d36362" stroke-width="1"
        d="M 136.00,22.21
           C 117.14,25.27 101.57,29.59 85.00,39.45
             55.26,57.14 33.98,85.44 25.63,119.00
             23.73,126.61 22.04,135.15 22.00,143.00
             21.91,162.34 22.15,175.24 28.69,194.00
             42.88,234.66 77.30,266.00 119.00,276.37
             125.90,278.09 134.92,279.91 142.00,280.00
             170.95,280.33 189.07,277.94 215.00,263.69
             228.46,256.30 242.63,243.93 252.19,232.00
             289.09,185.94 289.56,118.80 253.76,72.00
             240.52,54.69 225.41,43.30 206.00,33.76
             192.60,27.17 172.96,22.02 158.00,22.21
             158.00,22.21 136.00,22.21 136.00,22.21 Z
           M 145.00,28.28
           C 152.01,27.63 154.31,28.16 161.00,28.83
             179.92,30.72 191.97,34.09 209.00,42.76
             213.90,45.25 218.56,48.17 223.00,51.43
             224.44,52.49 227.16,54.38 227.66,56.17
             228.31,58.48 226.33,60.45 224.94,62.00
             224.94,62.00 212.00,75.00 212.00,75.00
             212.00,75.00 168.00,119.00 168.00,119.00
             168.00,119.00 157.00,129.98 157.00,129.98
             155.49,131.42 153.24,133.80 151.00,133.80
             148.76,133.80 146.51,131.42 145.00,129.98
             145.00,129.98 134.00,119.00 134.00,119.00
             134.00,119.00 90.00,75.00 90.00,75.00
             90.00,75.00 77.06,62.00 77.06,62.00
             75.67,60.45 73.69,58.48 74.34,56.17
             75.20,53.11 86.87,46.03 90.00,44.31
             104.18,36.52 117.98,31.73 134.00,29.43
             134.00,29.43 145.00,28.28 145.00,28.28 Z
           M 57.09,74.20
           C 62.75,76.02 71.44,86.44 76.00,91.00
             76.00,91.00 117.00,132.00 117.00,132.00
             117.00,132.00 129.98,145.00 129.98,145.00
             131.42,146.51 133.80,148.76 133.80,151.00
             133.80,154.16 126.33,160.67 124.00,163.00
             124.00,163.00 93.00,194.00 93.00,194.00
             93.00,194.00 68.00,219.00 68.00,219.00
             65.86,221.14 60.03,227.80 57.09,227.80
             54.17,227.80 50.84,222.20 49.34,220.00
             43.97,212.10 38.72,202.06 35.67,193.00
             25.27,162.13 25.16,128.70 39.76,99.00
             42.96,92.48 50.39,76.53 57.09,74.20 Z
           M 244.91,74.20
           C 251.61,76.53 259.04,92.48 262.24,99.00
             276.84,128.70 276.73,162.13 266.33,193.00
             263.28,202.06 258.03,212.10 252.66,220.00
             251.16,222.20 247.83,227.80 244.91,227.80
             241.97,227.80 236.14,221.14 234.00,219.00
             234.00,219.00 209.00,194.00 209.00,194.00
             209.00,194.00 178.00,163.00 178.00,163.00
             175.67,160.67 168.20,154.16 168.20,151.00
             168.20,148.76 170.58,146.51 172.02,145.00
             172.02,145.00 185.00,132.00 185.00,132.00
             185.00,132.00 226.00,91.00 226.00,91.00
             230.56,86.44 239.25,76.02 244.91,74.20 Z
           M 151.00,168.20
           C 155.94,169.73 159.40,174.40 163.00,178.00
             163.00,178.00 185.00,200.00 185.00,200.00
             185.00,200.00 217.00,232.00 217.00,232.00
             219.37,234.37 227.80,241.82 227.80,244.91
             227.80,247.48 223.88,249.95 222.00,251.28
             214.59,256.53 210.99,258.32 203.00,262.24
             172.45,277.26 137.50,276.78 106.00,265.31
             98.22,262.47 87.83,256.70 81.00,251.98
             78.64,250.34 73.43,247.40 74.34,243.96
             75.01,241.39 82.76,234.24 85.00,232.00
             85.00,232.00 113.00,204.00 113.00,204.00
             113.00,204.00 138.00,179.00 138.00,179.00
             141.86,175.14 145.71,169.84 151.00,168.20 Z" />
</svg>
