<?xml version="1.0" encoding="UTF-8" standalone="no"?>
<!DOCTYPE svg PUBLIC "-//W3C//DTD SVG 20010904//EN"
              "http://www.w3.org/TR/2001/REC-SVG-20010904/DTD/svg10.dtd">

<svg xmlns="http://www.w3.org/2000/svg"
     width="50" height="50"
     viewBox="0 0 300 300">
  <path id="darkness"
        fill="#1d262c" stroke="#1d262c" stroke-width="1"
        d="M 140.00,29.21
           C 128.40,31.08 121.53,31.51 110.00,35.35
             79.75,45.44 54.24,67.46 39.97,96.00
             16.69,142.56 25.53,199.74 62.04,236.99
             74.44,249.64 91.38,259.91 108.00,265.95
             118.58,269.79 134.76,272.86 146.00,273.00
             165.56,273.23 183.15,269.33 201.00,261.41
             213.94,255.67 230.41,243.69 239.57,233.00
             250.75,219.95 258.63,207.26 264.31,191.00
             279.52,147.38 267.87,95.01 234.00,63.09
             222.30,52.07 208.86,43.61 194.00,37.60
             181.86,32.70 165.10,29.16 152.00,29.21
             152.00,29.21 140.00,29.21 140.00,29.21 Z
           M 128.00,77.45
           C 128.00,77.45 149.00,79.82 149.00,79.82
             149.00,79.82 170.00,77.34 170.00,77.34
             189.52,77.34 211.69,86.12 224.56,101.01
             258.55,140.33 246.08,201.74 196.00,219.95
             188.56,222.65 177.92,224.66 170.00,224.66
             170.00,224.66 149.00,222.18 149.00,222.18
             149.00,222.18 128.00,224.66 128.00,224.66
             109.00,224.66 88.43,216.62 75.17,202.91
             47.29,174.10 46.96,126.35 76.09,98.17
             91.91,82.86 107.01,79.20 128.00,77.45 Z
           M 119.00,84.43
           C 87.13,89.65 61.05,114.50 61.00,148.00
             61.00,148.00 61.00,156.00 61.00,156.00
             61.39,188.97 92.58,217.62 125.00,218.00
             136.42,218.13 146.53,216.58 157.00,211.68
             164.11,208.35 172.60,201.82 177.83,196.00
             183.32,189.88 187.67,182.68 190.58,175.00
             208.63,127.17 169.74,78.16 119.00,84.43 Z
           M 161.00,84.00
           C 165.16,90.61 173.16,90.05 180.00,91.45
             188.15,93.11 195.03,95.93 202.00,100.44
             236.84,122.97 239.86,170.53 208.00,197.08
             199.77,203.93 191.44,208.00 181.00,210.34
             173.96,211.91 165.29,211.18 161.00,218.00
             177.98,218.00 187.44,218.24 203.00,209.69
             241.24,188.69 249.31,133.95 217.83,103.29
             205.66,91.43 189.04,84.08 172.00,84.00
             172.00,84.00 161.00,84.00 161.00,84.00 Z" />

  <path id="no-element"
        fill="#d36362" stroke="#d36362" stroke-width="1"
        d="M 136.00,22.21
           C 117.14,25.27 101.57,29.59 85.00,39.45
             55.26,57.14 33.98,85.44 25.63,119.00
             23.73,126.61 22.04,135.15 22.00,143.00
             21.91,162.34 22.15,175.24 28.69,194.00
             42.88,234.66 77.30,266.00 119.00,276.37
             125.90,278.09 134.92,279.91 142.00,280.00
             170.95,280.33 189.07,277.94 215.00,263.69
             228.46,256.30 242.63,243.93 252.19,232.00
             289.09,185.94 289.56,118.80 253.76,72.00
             240.52,54.69 225.41,43.30 206.00,33.76
             192.60,27.17 172.96,22.02 158.00,22.21
             158.00,22.21 136.00,22.21 136.00,22.21 Z
           M 145.00,28.28
           C 152.01,27.63 154.31,28.16 161.00,28.83
             179.92,30.72 191.97,34.09 209.00,42.76
             213.90,45.25 218.56,48.17 223.00,51.43
             224.44,52.49 227.16,54.38 227.66,56.17
             228.31,58.48 226.33,60.45 224.94,62.00
             224.94,62.00 212.00,75.00 212.00,75.00
             212.00,75.00 168.00,119.00 168.00,119.00
             168.00,119.00 157.00,129.98 157.00,129.98
             155.49,131.42 153.24,133.80 151.00,133.80
             148.76,133.80 146.51,131.42 145.00,129.98
             145.00,129.98 134.00,119.00 134.00,119.00
             134.00,119.00 90.00,75.00 90.00,75.00
             90.00,75.00 77.06,62.00 77.06,62.00
             75.67,60.45 73.69,58.48 74.34,56.17
             75.20,53.11 86.87,46.03 90.00,44.31
             104.18,36.52 117.98,31.73 134.00,29.43
             134.00,29.43 145.00,28.28 145.00,28.28 Z
           M 57.09,74.20
           C 62.75,76.02 71.44,86.44 76.00,91.00
             76.00,91.00 117.00,132.00 117.00,132.00
             117.00,132.00 129.98,145.00 129.98,145.00
             131.42,146.51 133.80,148.76 133.80,151.00
             133.80,154.16 126.33,160.67 124.00,163.00
             124.00,163.00 93.00,194.00 93.00,194.00
             93.00,194.00 68.00,219.00 68.00,219.00
             65.86,221.14 60.03,227.80 57.09,227.80
             54.17,227.80 50.84,222.20 49.34,220.00
             43.97,212.10 38.72,202.06 35.67,193.00
             25.27,162.13 25.16,128.70 39.76,99.00
             42.96,92.48 50.39,76.53 57.09,74.20 Z
           M 244.91,74.20
           C 251.61,76.53 259.04,92.48 262.24,99.00
             276.84,128.70 276.73,162.13 266.33,193.00
             263.28,202.06 258.03,212.10 252.66,220.00
             251.16,222.20 247.83,227.80 244.91,227.80
             241.97,227.80 236.14,221.14 234.00,219.00
             234.00,219.00 209.00,194.00 209.00,194.00
             209.00,194.00 178.00,163.00 178.00,163.00
             175.67,160.67 168.20,154.16 168.20,151.00
             168.20,148.76 170.58,146.51 172.02,145.00
             172.02,145.00 185.00,132.00 185.00,132.00
             185.00,132.00 226.00,91.00 226.00,91.00
             230.56,86.44 239.25,76.02 244.91,74.20 Z
           M 151.00,168.20
           C 155.94,169.73 159.40,174.40 163.00,178.00
             163.00,178.00 185.00,200.00 185.00,200.00
             185.00,200.00 217.00,232.00 217.00,232.00
             219.37,234.37 227.80,241.82 227.80,244.91
             227.80,247.48 223.88,249.95 222.00,251.28
             214.59,256.53 210.99,258.32 203.00,262.24
             172.45,277.26 137.50,276.78 106.00,265.31
             98.22,262.47 87.83,256.70 81.00,251.98
             78.64,250.34 73.43,247.40 74.34,243.96
             75.01,241.39 82.76,234.24 85.00,232.00
             85.00,232.00 113.00,204.00 113.00,204.00
             113.00,204.00 138.00,179.00 138.00,179.00
             141.86,175.14 145.71,169.84 151.00,168.20 Z" />
</svg>
